{
.appVersion = "3151";
.formatVersion = 3;
customParameters = (
{
name = vendorID;
value = COMM;
},
{
name = panose;
value = (
2,
13,
2,
4,
3,
5,
2,
5,
2,
3
);
},
{
name = unicodeRanges;
value = (
0,
1,
2
);
},
{
name = codePageRanges;
value = (
"1252",
"1250",
"1254",
"1257",
"bit 29"
);
},
{
name = fsType;
value = (
2
);
},
{
name = glyphOrder;
value = (
.notdef,
Eth,
eth,
Lslash,
lslash,
Scaron,
scaron,
Yacute,
yacute,
Thorn,
thorn,
Zcaron,
zcaron,
onehalf,
onequarter,
onesuperior,
threequarters,
threesuperior,
twosuperior,
brokenbar,
minus,
multiply,
space,
exclam,
quotedbl,
numbersign,
dollar,
percent,
ampersand,
quotesingle,
parenleft,
parenright,
asterisk,
plus,
comma,
hyphen,
period,
slash,
zero,
one,
two,
three,
four,
five,
six,
seven,
eight,
nine,
colon,
semicolon,
less,
equal,
greater,
question,
at,
A,
B,
C,
D,
E,
F,
G,
H,
I,
J,
K,
L,
M,
N,
O,
P,
Q,
R,
S,
T,
U,
V,
W,
X,
Y,
Z,
bracketleft,
backslash,
bracketright,
asciicircum,
underscore,
grave,
a,
b,
c,
d,
e,
f,
g,
h,
i,
j,
k,
l,
m,
n,
o,
p,
q,
r,
s,
t,
u,
v,
w,
x,
y,
z,
braceleft,
bar,
braceright,
asciitilde,
Adieresis,
Aring,
Ccedilla,
Eacute,
Ntilde,
Odieresis,
Udieresis,
aacute,
agrave,
acircumflex,
adieresis,
atilde,
aring,
ccedilla,
eacute,
egrave,
ecircumflex,
edieresis,
iacute,
igrave,
icircumflex,
idieresis,
ntilde,
oacute,
ograve,
ocircumflex,
odieresis,
otilde,
uacute,
ugrave,
ucircumflex,
udieresis,
dagger,
degree,
cent,
sterling,
section,
bullet,
paragraph,
germandbls,
registered,
copyright,
trademark,
acute,
dieresis,
notequal,
AE,
Oslash,
infinity,
plusminus,
lessequal,
greaterequal,
yen,
mu,
partialdiff,
summation,
product,
pi,
integral,
ordfeminine,
ordmasculine,
Omega,
ae,
oslash,
questiondown,
exclamdown,
logicalnot,
radical,
florin,
approxequal,
Delta,
guillemotleft,
guillemotright,
ellipsis,
uni00A0,
Agrave,
Atilde,
Otilde,
OE,
oe,
endash,
emdash,
quotedblleft,
quotedblright,
quoteleft,
quoteright,
divide,
lozenge,
ydieresis,
Ydieresis,
fraction,
Euro,
guilsinglleft,
guilsinglright,

glyphs = (
{
glyphname = Eth;
kernRight = Eth;
layers = (
{
hints = (
{
horizontal = 1;
place = (0, 46);
place = (0, 46);
type = Stem;
},
{
horizontal = 1;
place = (336, 45);
place = (336, 45);
type = Stem;
},
{
horizontal = 1;
place = (668, 47);
place = (668, 47);
type = Stem;
},
{
place = (72, 52);
place = (72, 52);
type = Stem;
},
{
place = (566, 54);
place = (566, 54);
type = Stem;
}
);
layerId = m01;
shapes = (
{
closed = 1;
nodes = (
(1,336,l),
(72,336,l),
(72,0,l),
(315,0,ls),
(523,0,o),
(620,145,o),
(620,355,cs),
(620,565,o),
(530,715,o),
(322,715,cs),
(72,715,l),
(72,381,l),
(1,381,l)
);
},
{
closed = 1;
nodes = (
(124,46,l),
(124,336,l),
(382,336,l),
(382,381,l),
(124,381,l),
(124,668,l),
(320,668,ls),
(493,668,o),
(566,544,o),
(566,355,cs),
(566,166,o),
(486,46,o),
(313,46,cs)
);
}
);
width = 660;
}
);
note = Eth;
unicode = 208;
},
{
glyphname = eth;
layers = (
{
hints = (
{
horizontal = 1;
place = (-13, 42);
place = (-13, 42);
type = Stem;
},
{
horizontal = 1;
place = (487, 41);
place = (487, 41);
type = Stem;
},
{
horizontal = 1;
place = (715, -20);
target = down;
type = TopGhost;
},
{
place = (25, 50);
place = (25, 50);
type = Stem;
},
{
place = (439, 50);
place = (439, 50);
type = Stem;
}
);
layerId = m01;
shapes = (
{
closed = 1;
nodes = (
(160,595,l),
(174,564,l),
(308,618,l),
(352,571,o),
(388,517,o),
(413,452,c),
(412,452,l),
(372,501,o),
(316,528,o),
(255,528,cs),
(116,528,o),
(25,414,o),
(25,258,cs),
(25,102,o),
(112,-13,o),
(257,-13,cs),
(403,-13,o),
(489,101,o),
(489,269,cs),
(489,448,o),
(423,563,o),
(353,636,c),
(441,672,l),
(428,703,l),
(327,662,l),
(303,684,o),
(280,701,o),
(260,715,c),
(196,715,l),
(226,692,o),
(255,669,o),
(282,644,c)
);
},
{
closed = 1;
nodes = (
(138,29,o),
(75,132,o),
(75,258,cs),
(75,384,o),
(138,487,o),
(257,487,cs),
(375,487,o),
(439,389,o),
(439,258,cs),
(439,132,o),
(376,29,o),
(257,29,cs)
);
}
);
width = 514;
}
);
note = eth;
unicode = 240;
},
{
glyphname = Lslash;
layers = (
{
hints = (
{
horizontal = 1;
place = (0, 48);
place = (0, 48);
type = Stem;
},
{
horizontal = 1;
place = (715, -20);
target = down;
type = TopGhost;
},
{
place = (82, 52);
place = (82, 52);
type = Stem;
}
);
layerId = m01;
shapes = (
{
closed = 1;
nodes = (
(-5,203,l),
(82,249,l),
(82,0,l),
(519,0,l),
(519,48,l),
(134,48,l),
(134,277,l),
(405,421,l),
(405,469,l),
(134,325,l),
(134,715,l),
(82,715,l),
(82,297,l),
(-5,251,l)
);
}
);
width = 544;
}
);
note = Lslash;
unicode = 321;
},
{
glyphname = lslash;
layers = (
{
hints = (
{
horizontal = 1;
place = (0, 21);
target = up;
type = BottomGhost;
},
{
horizontal = 1;
place = (715, -20);
target = down;
type = TopGhost;
},
{
place = (73, 49);
place = (73, 49);
type = Stem;
}
);
layerId = m01;
shapes = (
{
closed = 1;
nodes = (
(5,291,l),
(73,349,l),
(73,0,l),
(122,0,l),
(122,391,l),
(197,455,l),
(197,508,l),
(122,444,l),
(122,715,l),
(73,715,l),
(73,402,l),
(5,344,l)
);
}
);
width = 195;
}
);
note = lslash;
unicode = 322;
},
{
glyphname = Scaron;
kernLeft = Scaron;
kernRight = Scaron;
layers = (
{
hints = (
{
horizontal = 1;
place = (-13, 46);
place = (-13, 46);
type = Stem;
},
{
horizontal = 1;
place = (683, 46);
place = (683, 46);
type = Stem;
},
{
place = (23, 53);
place = (23, 53);
type = Stem;
},
{
place = (493, 54);
place = (493, 54);
type = Stem;
},
{
place = (49, 53);
place = (49, 53);
type = Stem;
},
{
place = (473, 52);
place = (473, 52);
type = Stem;
},
{
horizontal = 1;
place = (752, 101);
place = (752, 101);
type = Stem;
}
);
layerId = m01;
shapes = (
{
closed = 1;
nodes = (
(450,-13,o),
(547,75,o),
(547,197,cs),
(547,340,o),
(439,373,o),
(300,399,cs),
(159,425,o),
(102,453,o),
(102,541,cs),
(102,623,o),
(170,683,o),
(287,683,cs),
(387,683,o),
(463,630,o),
(473,530,c),
(525,530,l),
(515,647,o),
(431,729,o),
(286,729,cs),
(145,729,o),
(49,652,o),
(49,540,cs),
(49,421,o),
(132,379,o),
(268,354,cs),
(438,322,o),
(493,296,o),
(493,193,cs),
(493,92,o),
(410,33,o),
(301,33,cs),
(168,33,o),
(81,105,o),
(76,226,c),
(23,226,l),
(31,89,o),
(123,-13,o),
(302,-13,cs)
);
},
{
closed = 1;
nodes = (
(410,853,l),
(354,853,l),
(287,782,l),
(285,782,l),
(219,853,l),
(160,853,l),
(254,752,l),
(316,752,l)
);
}
);
width = 581;
}
);
note = Scaron;
unicode = 352;
},
{
glyphname = scaron;
kernLeft = scaron;
kernRight = scaron;
layers = (
{
hints = (
{
horizontal = 1;
place = (-13, 42);
place = (-13, 42);
type = Stem;
},
{
horizontal = 1;
place = (485, 43);
place = (485, 43);
type = Stem;
},
{
horizontal = 1;
place = (592, 106);
place = (592, 106);
type = Stem;
},
{
place = (34, 49);
place = (34, 49);
type = Stem;
},
{
place = (360, 49);
place = (360, 49);
type = Stem;
},
{
horizontal = 1;
place = (592, 30);
place = (592, 30);
type = Stem;
}
);
layerId = m01;
shapes = (
{
closed = 1;
nodes = (
(342,-13,o),
(409,55,o),
(409,139,cs),
(409,237,o),
(341,265,o),
(237,289,cs),
(131,314,o),
(83,331,o),
(83,391,cs),
(83,445,o),
(126,485,o),
(210,485,cs),
(288,485,o),
(339,447,o),
(346,381,c),
(394,381,l),
(382,465,o),
(329,528,o),
(210,528,cs),
(112,528,o),
(34,476,o),
(34,390,cs),
(34,298,o),
(113,270,o),
(219,245,cs),
(333,218,o),
(360,196,o),
(360,140,cs),
(360,72,o),
(308,29,o),
(221,29,cs),
(135,29,o),
(74,71,o),
(67,156,c),
(17,156,l),
(22,67,o),
(86,-13,o),
(221,-13,cs)
);
},
{
closed = 1;
nodes = (
(329,698,l),
(275,698,l),
(220,622,l),
(218,622,l),
(164,698,l),
(107,698,l),
(187,592,l),
(249,592,l)
);
}
);
width = 433;
}
);
note = scaron;
unicode = 353;
},
{
glyphname = Yacute;
kernLeft = Yacute;
kernRight = Yacute;
layers = (
{
hints = (
{
horizontal = 1;
place = (0, 21);
target = up;
type = BottomGhost;
},
{
horizontal = 1;
place = (715, -20);
target = down;
type = TopGhost;
},
{
horizontal = 1;
place = (753, 110);
place = (753, 110);
type = Stem;
},
{
place = (263, 52);
place = (263, 52);
type = Stem;
}
);
layerId = m01;
shapes = (
{
closed = 1;
nodes = (
(263,0,l),
(315,0,l),
(315,316,l),
(574,715,l),
(518,715,l),
(291,365,l),
(289,365,l),
(62,715,l),
(5,715,l),
(263,318,l)
);
},
{
closed = 1;
nodes = (
(257,753,l),
(301,753,l),
(402,863,l),
(333,863,l)
);
}
);
width = 579;
}
);
note = Yacute;
unicode = 221;
},
{
glyphname = yacute;
kernLeft = yacute;
kernRight = yacute;
layers = (
{
hints = (
{
horizontal = 1;
place = (-171, 45);
place = (-171, 45);
type = Stem;
},
{
horizontal = 1;
place = (517, -20);
target = down;
type = TopGhost;
},
{
horizontal = 1;
place = (588, 127);
place = (588, 127);
type = Stem;
},
{
place = (10, 436);
place = (10, 436);
type = Stem;
},
{
horizontal = 1;
place = (-165, 21);
target = up;
type = BottomGhost;
}
);
layerId = m01;
shapes = (
{
closed = 1;
nodes = (
(166,-171,o),
(208,-146,o),
(238,-62,cs),
(446,517,l),
(396,517,l),
(276,175,ls),
(258,123,o),
(234,46,o),
(234,46,c),
(232,46,l),
(232,46,o),
(206,124,o),
(187,175,cs),
(61,517,l),
(10,517,l),
(208,-8,l),
(193,-51,ls),
(174,-106,o),
(143,-126,o),
(100,-126,cs),
(78,-126,o),
(67,-123,o),
(59,-121,c),
(57,-121,l),
(57,-165,l),
(68,-168,o),
(78,-171,o),
(96,-171,cs)
);
},
{
closed = 1;
nodes = (
(191,588,l),
(235,588,l),
(336,715,l),
(267,715,l)
);
}
);
width = 455;
}
);
note = yacute;
unicode = 253;
},
{
glyphname = Thorn;
layers = (
{
hints = (
{
horizontal = 1;
place = (0, 21);
target = up;
type = BottomGhost;
},
{
horizontal = 1;
place = (181, 46);
place = (181, 46);
type = Stem;
},
{
horizontal = 1;
place = (530, 47);
place = (530, 47);
type = Stem;
},
{
place = (62, 52);
place = (62, 52);
type = Stem;
},
{
place = (496, 53);
place = (496, 53);
type = Stem;
},
{
horizontal = 1;
place = (530, 185);
place = (530, 185);
type = Stem;
}
);
layerId = m01;
shapes = (
{
closed = 1;
nodes = (
(114,0,l),
(114,181,l),
(325,181,ls),
(472,181,o),
(549,247,o),
(549,381,cs),
(549,442,o),
(532,487,o),
(498,520,cs),
(460,557,o),
(411,577,o),
(332,577,cs),
(114,577,l),
(114,715,l),
(62,715,l),
(62,0,l)
);
},
{
closed = 1;
nodes = (
(328,530,ls),
(439,530,o),
(496,475,o),
(496,380,cs),
(496,285,o),
(448,227,o),
(321,227,cs),
(114,227,l),
(114,530,l)
);
}
);
width = 578;
}
);
note = Thorn;
unicode = 222;
},
{
glyphname = thorn;
kernRight = thorn;
layers = (
{
hints = (
{
horizontal = 1;
place = (-166, 21);
target = up;
type = BottomGhost;
},
{
horizontal = 1;
place = (-11, 41);
place = (-11, 41);
type = Stem;
},
{
horizontal = 1;
place = (486, 42);
place = (486, 42);
type = Stem;
},
{
horizontal = 1;
place = (715, -20);
target = down;
type = TopGhost;
},
{
place = (50, 49);
place = (50, 49);
type = Stem;
},
{
place = (441, 50);
place = (441, 50);
type = Stem;
}
);
layerId = m01;
shapes = (
{
closed = 1;
nodes = (
(50,-166,l),
(99,-166,l),
(99,85,l),
(101,85,l),
(138,26,o),
(192,-11,o),
(278,-11,cs),
(411,-11,o),
(491,105,o),
(491,259,cs),
(491,431,o),
(402,528,o),
(282,528,cs),
(195,528,o),
(136,484,o),
(101,418,c),
(99,418,l),
(99,715,l),
(50,715,l)
);
},
{
closed = 1;
nodes = (
(159,30,o),
(94,119,o),
(94,256,cs),
(94,387,o),
(160,486,o),
(275,486,cs),
(381,486,o),
(441,396,o),
(441,258,cs),
(441,135,o),
(387,30,o),
(276,30,cs)
);
}
);
width = 516;
}
);
note = thorn;
unicode = 254;
},
{
glyphname = Zcaron;
kernLeft = Zcaron;
kernRight = Zcaron;
layers = (
{
hints = (
{
horizontal = 1;
place = (0, 46);
place = (0, 46);
type = Stem;
},
{
horizontal = 1;
place = (670, 45);
place = (670, 45);
type = Stem;
},
{
place = (24, 60);
place = (24, 60);
type = Stem;
},
{
place = (466, 61);
place = (466, 61);
type = Stem;
},
{
horizontal = 1;
place = (670, 183);
place = (670, 183);
type = Stem;
},
{
horizontal = 1;
place = (752, 30);
place = (752, 30);
type = Stem;
}
);
layerId = m01;
shapes = (
{
closed = 1;
nodes = (
(24,0,l),
(543,0,l),
(543,46,l),
(84,46,l),
(84,49,l),
(527,667,l),
(527,715,l),
(52,715,l),
(52,670,l),
(466,670,l),
(466,667,l),
(24,51,l)
);
},
{
closed = 1;
nodes = (
(419,853,l),
(363,853,l),
(296,782,l),
(294,782,l),
(228,853,l),
(169,853,l),
(263,752,l),
(325,752,l)
);
}
);
width = 573;
}
);
note = Zcaron;
unicode = 381;
},
{
glyphname = zcaron;
kernLeft = zcaron;
kernRight = zcaron;
layers = (
{
hints = (
{
horizontal = 1;
place = (0, 43);
place = (0, 43);
type = Stem;
},
{
horizontal = 1;
place = (474, 43);
place = (474, 43);
type = Stem;
},
{
horizontal = 1;
place = (592, 106);
place = (592, 106);
type = Stem;
},
{
place = (24, 59);
place = (24, 59);
type = Stem;
},
{
place = (336, 62);
place = (336, 62);
type = Stem;
},
{
horizontal = 1;
place = (592, 30);
place = (592, 30);
type = Stem;
}
);
layerId = m01;
shapes = (
{
closed = 1;
nodes = (
(24,0,l),
(406,0,l),
(406,43,l),
(83,43,l),
(83,46,l),
(398,476,l),
(398,517,l),
(46,517,l),
(46,474,l),
(336,474,l),
(336,471,l),
(24,45,l)
);
},
{
closed = 1;
nodes = (
(338,698,l),
(284,698,l),
(229,622,l),
(227,622,l),
(173,698,l),
(116,698,l),
(196,592,l),
(258,592,l)
);
}
);
width = 431;
}
);
note = zcaron;
unicode = 382;
},
{
glyphname = onehalf;
layers = (
{
hints = (
{
horizontal = 1;
place = (0, 39);
place = (0, 39);
type = Stem;
},
{
horizontal = 1;
place = (367, 39);
place = (367, 39);
type = Stem;
},
{
horizontal = 1;
place = (612, 106);
place = (612, 106);
type = Stem;
},
{
place = (126, 46);
place = (126, 46);
type = Stem;
},
{
place = (436, 56);
place = (436, 56);
type = Stem;
},
{
place = (657, 47);
place = (657, 47);
type = Stem;
},
{
place = (447, 44);
place = (447, 44);
type = Stem;
},
{
horizontal = 1;
place = (715, -20);
target = down;
type = TopGhost;
},
{
horizontal = 1;
place = (612, 32);
place = (612, 32);
type = Stem;
}
);
layerId = m01;
shapes = (
{
closed = 1;
nodes = (
(702,0,l),
(702,39,l),
(492,39,l),
(500,90,o),
(549,119,o),
(591,145,cs),
(647,179,o),
(704,210,o),
(704,288,cs),
(704,354,o),
(656,406,o),
(580,406,cs),
(503,406,o),
(447,359,o),
(447,269,c),
(491,269,l),
(493,334,o),
(526,367,o),
(579,367,cs),
(626,367,o),
(657,339,o),
(657,287,cs),
(657,228,o),
(614,208,o),
(561,174,cs),
(502,136,o),
(439,95,o),
(436,0,c)
);
},
{
closed = 1;
nodes = (
(51,0,l),
(104,0,l),
(616,715,l),
(563,715,l)
);
},
{
closed = 1;
nodes = (
(126,317,l),
(172,317,l),
(172,718,l),
(135,718,l),
(127,664,o),
(97,645,o),
(38,644,c),
(38,612,l),
(126,612,l)
);
}
);
width = 743;
}
);
note = onehalf;
unicode = 189;
},
{
glyphname = onequarter;
layers = (
{
hints = (
{
horizontal = 1;
place = (99, 37);
place = (99, 37);
type = Stem;
},
{
horizontal = 1;
place = (612, 106);
place = (612, 106);
type = Stem;
},
{
place = (126, 46);
place = (126, 46);
type = Stem;
},
{
place = (568, 45);
place = (568, 45);
type = Stem;
},
{
horizontal = 1;
place = (612, 32);
place = (612, 32);
type = Stem;
},
{
horizontal = 1;
place = (0, 136);
place = (0, 136);
type = Stem;
},
{
horizontal = 1;
place = (715, -20);
target = down;
type = TopGhost;
},
{
place = (383, 41);
place = (383, 41);
type = Stem;
}
);
layerId = m01;
shapes = (
{
closed = 1;
nodes = (
(126,317,l),
(172,317,l),
(172,718,l),
(135,718,l),
(127,664,o),
(97,645,o),
(38,644,c),
(38,612,l),
(126,612,l)
);
},
{
closed = 1;
nodes = (
(60,0,l),
(113,0,l),
(625,715,l),
(572,715,l)
);
},
{
closed = 1;
nodes = (
(568,0,l),
(613,0,l),
(613,99,l),
(673,99,l),
(673,136,l),
(613,136,l),
(613,402,l),
(570,402,l),
(383,144,l),
(383,99,l),
(568,99,l)
);
},
{
closed = 1;
nodes = (
(424,138,l),
(567,334,l),
(568,334,l),
(568,136,l),
(424,136,l)
);
}
);
width = 704;
}
);
note = onequarter;
unicode = 188;
},
{
glyphname = onesuperior;
layers = (
{
hints = (
{
horizontal = 1;
place = (582, 106);
place = (582, 106);
type = Stem;
},
{
place = (120, 46);
place = (120, 46);
type = Stem;
},
{
horizontal = 1;
place = (582, 32);
place = (582, 32);
type = Stem;
}
);
layerId = m01;
shapes = (
{
closed = 1;
nodes = (
(120,287,l),
(166,287,l),
(166,688,l),
(129,688,l),
(121,634,o),
(91,615,o),
(32,614,c),
(32,582,l),
(120,582,l)
);
}
);
width = 232;
}
);
note = onesuperior;
unicode = 185;
},
{
glyphname = threequarters;
layers = (
{
hints = (
{
horizontal = 1;
place = (99, 37);
place = (99, 37);
type = Stem;
},
{
horizontal = 1;
place = (309, 39);
place = (309, 39);
type = Stem;
},
{
horizontal = 1;
place = (509, 20);
place = (509, 20);
type = Stem;
},
{
horizontal = 1;
place = (687, 36);
place = (687, 36);
type = Stem;
},
{
place = (46, 44);
place = (46, 44);
type = Stem;
},
{
place = (264, 48);
place = (264, 48);
type = Stem;
},
{
place = (449, 41);
place = (449, 41);
type = Stem;
},
{
place = (634, 45);
place = (634, 45);
type = Stem;
},
{
horizontal = 1;
place = (509, 37);
place = (509, 37);
type = Stem;
},
{
place = (251, 46);
place = (251, 46);
type = Stem;
},
{
place = (146, 91);
place = (146, 91);
type = Stem;
},
{
horizontal = 1;
place = (0, 136);
place = (0, 136);
type = Stem;
},
{
horizontal = 1;
place = (715, -20);
target = down;
type = TopGhost;
}
);
layerId = m01;
shapes = (
{
closed = 1;
nodes = (
(254,309,o),
(312,352,o),
(312,427,cs),
(312,479,o),
(287,514,o),
(237,529,c),
(237,531,l),
(272,544,o),
(297,572,o),
(297,617,cs),
(297,683,o),
(245,723,o),
(176,723,cs),
(94,723,o),
(47,671,o),
(46,597,c),
(90,597,l),
(91,648,o),
(120,687,o),
(175,687,cs),
(219,687,o),
(251,661,o),
(251,616,cs),
(251,573,o),
(222,546,o),
(173,546,cs),
(146,546,l),
(146,509,l),
(174,509,ls),
(231,509,o),
(264,480,o),
(264,430,cs),
(264,379,o),
(232,348,o),
(174,348,cs),
(117,348,o),
(81,381,o),
(79,441,c),
(33,441,l),
(32,360,o),
(92,309,o),
(176,309,cs)
);
},
{
closed = 1;
nodes = (
(132,0,l),
(185,0,l),
(697,715,l),
(644,715,l)
);
},
{
closed = 1;
nodes = (
(634,0,l),
(679,0,l),
(679,99,l),
(739,99,l),
(739,136,l),
(679,136,l),
(679,402,l),
(636,402,l),
(449,144,l),
(449,99,l),
(634,99,l)
);
},
{
closed = 1;
nodes = (
(490,138,l),
(633,334,l),
(634,334,l),
(634,136,l),
(490,136,l)
);
}
);
width = 770;
}
);
note = threequarters;
unicode = 190;
},
{
glyphname = threesuperior;
layers = (
{
hints = (
{
horizontal = 1;
place = (279, 39);
place = (279, 39);
type = Stem;
},
{
horizontal = 1;
place = (479, 37);
place = (479, 37);
type = Stem;
},
{
horizontal = 1;
place = (657, 36);
place = (657, 36);
type = Stem;
},
{
place = (40, 44);
place = (40, 44);
type = Stem;
},
{
place = (258, 48);
place = (258, 48);
type = Stem;
},
{
place = (245, 46);
place = (245, 46);
type = Stem;
},
{
place = (140, 91);
place = (140, 91);
type = Stem;
}
);
layerId = m01;
shapes = (
{
closed = 1;
nodes = (
(248,279,o),
(306,322,o),
(306,397,cs),
(306,449,o),
(281,484,o),
(231,499,c),
(231,501,l),
(266,514,o),
(291,542,o),
(291,587,cs),
(291,653,o),
(239,693,o),
(170,693,cs),
(88,693,o),
(41,641,o),
(40,567,c),
(84,567,l),
(85,618,o),
(114,657,o),
(169,657,cs),
(213,657,o),
(245,631,o),
(245,586,cs),
(245,543,o),
(216,516,o),
(167,516,cs),
(140,516,l),
(140,479,l),
(168,479,ls),
(225,479,o),
(258,450,o),
(258,400,cs),
(258,349,o),
(226,318,o),
(168,318,cs),
(111,318,o),
(75,351,o),
(73,411,c),
(27,411,l),
(27,330,o),
(86,279,o),
(170,279,cs)
);
}
);
width = 339;
}
);
note = threesuperior;
unicode = 179;
},
{
glyphname = twosuperior;
layers = (
{
hints = (
{
horizontal = 1;
place = (287, 39);
place = (287, 39);
type = Stem;
},
{
horizontal = 1;
place = (654, 39);
place = (654, 39);
type = Stem;
},
{
place = (31, 55);
place = (31, 55);
type = Stem;
},
{
place = (251, 47);
place = (251, 47);
type = Stem;
},
{
place = (41, 44);
place = (41, 44);
type = Stem;
}
);
layerId = m01;
shapes = (
{
closed = 1;
nodes = (
(296,287,l),
(296,326,l),
(86,326,l),
(94,377,o),
(143,406,o),
(185,432,cs),
(241,466,o),
(298,497,o),
(298,575,cs),
(298,641,o),
(250,693,o),
(174,693,cs),
(97,693,o),
(41,646,o),
(41,556,c),
(85,556,l),
(87,621,o),
(120,654,o),
(173,654,cs),
(220,654,o),
(251,626,o),
(251,574,cs),
(251,515,o),
(208,495,o),
(155,461,cs),
(97,423,o),
(33,382,o),
(31,287,c)
);
}
);
width = 332;
}
);
note = twosuperior;
unicode = 178;
},
{
glyphname = brokenbar;
layers = (
{
hints = (
{
horizontal = 1;
place = (-118, 872);
place = (-118, 872);
type = Stem;
},
{
place = (77, 47);
place = (77, 47);
type = Stem;
}
);
layerId = m01;
shapes = (
{
closed = 1;
nodes = (
(124,293,l),
(77,293,l),
(77,-118,l),
(124,-118,l)
);
},
{
closed = 1;
nodes = (
(77,359,l),
(124,359,l),
(124,754,l),
(77,754,l)
);
}
);
width = 201;
}
);
note = brokenbar;
unicode = 166;
},
{
glyphname = minus;
kernLeft = minus;
kernRight = minus;
layers = (
{
hints = (
{
horizontal = 1;
place = (303, 46);
place = (303, 46);
type = Stem;
},
{
place = (56, 398);
place = (56, 398);
type = Stem;
}
);
layerId = m01;
shapes = (
{
closed = 1;
nodes = (
(56,303,l),
(454,303,l),
(454,349,l),
(56,349,l)
);
}
);
width = 510;
}
);
note = minus;
unicode = 8722;
},
{
glyphname = multiply;
layers = (
{
hints = (
{
horizontal = 1;
place = (144, 360);
place = (144, 360);
type = Stem;
},
{
place = (79, 349);
place = (79, 349);
type = Stem;
}
);
layerId = m01;
shapes = (
{
closed = 1;
nodes = (
(79,472,l),
(222,324,l),
(79,176,l),
(111,144,l),
(253,291,l),
(396,144,l),
(428,176,l),
(285,324,l),
(428,472,l),
(396,504,l),
(253,356,l),
(111,504,l)
);
}
);
width = 507;
}
);
note = multiply;
unicode = 215;
},
{
glyphname = exclam;
layers = (
{
hints = (
{
horizontal = 1;
place = (0, 79);
place = (0, 79);
type = Stem;
},
{
horizontal = 1;
place = (715, -20);
target = down;
type = TopGhost;
},
{
place = (71, 55);
place = (71, 55);
type = Stem;
},
{
place = (68, 61);
place = (68, 61);
type = Stem;
}
);
layerId = m01;
shapes = (
{
closed = 1;
nodes = (
(81,173,l),
(116,173,l),
(126,486,l),
(126,715,l),
(71,715,l),
(71,486,l)
);
},
{
closed = 1;
nodes = (
(68,0,l),
(129,0,l),
(129,79,l),
(68,79,l)
);
}
);
width = 197;
}
);
note = exclam;
unicode = 33;
},
{
glyphname = quotedbl;
kernLeft = quotedbl;
kernRight = quotedbl;
layers = (
{
hints = (
{
horizontal = 1;
place = (501, 214);
place = (501, 214);
type = Stem;
},
{
place = (44, 49);
place = (44, 49);
type = Stem;
},
{
place = (169, 49);
place = (169, 49);
type = Stem;
}
);
layerId = m01;
shapes = (
{
closed = 1;
nodes = (
(169,501,l),
(218,501,l),
(218,715,l),
(169,715,l)
);
},
{
closed = 1;
nodes = (
(44,501,l),
(93,501,l),
(93,715,l),
(44,715,l)
);
}
);
width = 262;
}
);
note = quotedbl;
unicode = 34;
},
{
glyphname = numbersign;
layers = (
{
hints = (
{
horizontal = 1;
place = (0, 21);
target = up;
type = BottomGhost;
},
{
horizontal = 1;
place = (213, 44);
place = (213, 44);
type = Stem;
},
{
horizontal = 1;
place = (437, 44);
place = (437, 44);
type = Stem;
},
{
horizontal = 1;
place = (686, -20);
target = down;
type = TopGhost;
},
{
place = (34, 483);
place = (34, 483);
type = Stem;
}
);
layerId = m01;
shapes = (
{
closed = 1;
nodes = (
(66,437,l),
(167,437,l),
(142,257,l),
(41,257,l),
(34,213,l),
(136,213,l),
(107,0,l),
(153,0,l),
(182,213,l),
(332,213,l),
(303,0,l),
(349,0,l),
(378,213,l),
(477,213,l),
(484,257,l),
(384,257,l),
(409,437,l),
(510,437,l),
(517,481,l),
(415,481,l),
(444,686,l),
(398,686,l),
(369,481,l),
(219,481,l),
(248,686,l),
(202,686,l),
(173,481,l),
(73,481,l)
);
},
{
closed = 1;
nodes = (
(213,437,l),
(363,437,l),
(338,257,l),
(188,257,l)
);
}
);
width = 551;
}
);
note = numbersign;
unicode = 35;
},
{
glyphname = dollar;
layers = (
{
hints = (
{
horizontal = 1;
place = (2, 43);
place = (2, 43);
type = Stem;
},
{
horizontal = 1;
place = (655, 44);
place = (655, 44);
type = Stem;
},
{
place = (25, 49);
place = (25, 49);
type = Stem;
},
{
place = (253, 40);
place = (253, 40);
type = Stem;
},
{
place = (456, 51);
place = (456, 51);
type = Stem;
},
{
horizontal = 1;
place = (654, 44);
place = (654, 44);
type = Stem;
},
{
place = (49, 50);
place = (49, 50);
type = Stem;
}
);
layerId = m01;
shapes = (
{
closed = 1;
nodes = (
(253,-85,l),
(293,-85,l),
(293,2,l),
(420,6,o),
(507,88,o),
(507,199,cs),
(507,328,o),
(413,362,o),
(293,386,c),
(293,654,l),
(371,646,o),
(429,597,o),
(438,512,c),
(487,512,l),
(477,614,o),
(408,688,o),
(293,698,c),
(293,757,l),
(253,757,l),
(253,699,l),
(132,694,o),
(49,623,o),
(49,522,cs),
(49,410,o),
(124,373,o),
(253,346,c),
(253,46,l),
(148,56,o),
(78,122,o),
(74,226,c),
(25,226,l),
(31,106,o),
(110,14,o),
(253,3,c)
);
},
{
closed = 1;
nodes = (
(456,104,o),
(385,50,o),
(293,45,c),
(293,338,l),
(413,312,o),
(456,282,o),
(456,195,cs)
);
},
{
closed = 1;
nodes = (
(99,596,o),
(156,650,o),
(253,655,c),
(253,394,l),
(144,417,o),
(99,446,o),
(99,523,cs)
);
}
);
width = 539;
}
);
note = dollar;
unicode = 36;
},
{
glyphname = percent;
kernLeft = percent;
layers = (
{
hints = (
{
horizontal = 1;
place = (-13, 39);
place = (-13, 39);
type = Stem;
},
{
horizontal = 1;
place = (313, 39);
place = (313, 39);
type = Stem;
},
{
horizontal = 1;
place = (660, 39);
place = (660, 39);
type = Stem;
},
{
place = (34, 47);
place = (34, 47);
type = Stem;
},
{
place = (283, 47);
place = (283, 47);
type = Stem;
},
{
place = (460, 47);
place = (460, 47);
type = Stem;
},
{
place = (709, 47);
place = (709, 47);
type = Stem;
},
{
horizontal = 1;
place = (334, 39);
place = (334, 39);
type = Stem;
},
{
horizontal = 1;
place = (0, 21);
target = up;
type = BottomGhost;
},
{
horizontal = 1;
place = (685, -20);
target = down;
type = TopGhost;
}
);
layerId = m01;
shapes = (
{
closed = 1;
nodes = (
(265,313,o),
(330,382,o),
(330,506,cs),
(330,634,o),
(262,699,o),
(182,699,cs),
(102,699,o),
(34,632,o),
(34,506,cs),
(34,382,o),
(99,313,o),
(182,313,cs)
);
},
{
closed = 1;
nodes = (
(691,-13,o),
(756,56,o),
(756,180,cs),
(756,308,o),
(688,373,o),
(608,373,cs),
(528,373,o),
(460,306,o),
(460,180,cs),
(460,56,o),
(525,-13,o),
(608,-13,cs)
);
},
{
closed = 1;
nodes = (
(554,26,o),
(507,74,o),
(507,180,cs),
(507,288,o),
(554,334,o),
(608,334,cs),
(661,334,o),
(709,286,o),
(709,180,cs),
(709,72,o),
(663,26,o),
(608,26,cs)
);
},
{
closed = 1;
nodes = (
(128,352,o),
(81,400,o),
(81,506,cs),
(81,614,o),
(128,660,o),
(182,660,cs),
(235,660,o),
(283,612,o),
(283,506,cs),
(283,398,o),
(237,352,o),
(182,352,cs)
);
},
{
closed = 1;
nodes = (
(174,0,l),
(220,0,l),
(616,685,l),
(570,685,l)
);
}
);
width = 790;
}
);
note = percent;
unicode = 37;
},
{
glyphname = ampersand;
kernLeft = ampersand;
kernRight = ampersand;
layers = (
{
hints = (
{
horizontal = 1;
place = (-13, 45);
place = (-13, 45);
type = Stem;
},
{
horizontal = 1;
place = (661, 44);
place = (661, 44);
type = Stem;
},
{
place = (28, 54);
place = (28, 54);
type = Stem;
},
{
place = (121, 52);
place = (121, 52);
type = Stem;
},
{
place = (359, 51);
place = (359, 51);
type = Stem;
},
{
place = (466, 49);
place = (466, 49);
type = Stem;
},
{
horizontal = 1;
place = (0, 21);
target = up;
type = BottomGhost;
}
);
layerId = m01;
shapes = (
{
closed = 1;
nodes = (
(332,-13,o),
(397,23,o),
(441,80,c),
(503,0,l),
(564,0,l),
(469,123,l),
(499,180,o),
(515,249,o),
(515,321,c),
(466,321,l),
(464,264,o),
(454,210,o),
(436,166,c),
(266,386,l),
(342,427,o),
(410,471,o),
(410,561,cs),
(410,653,o),
(346,705,o),
(268,705,cs),
(184,705,o),
(121,642,o),
(121,564,cs),
(121,511,o),
(138,473,o),
(181,417,cs),
(197,396,l),
(105,346,o),
(28,292,o),
(28,177,cs),
(28,56,o),
(125,-13,o),
(246,-13,cs)
);
},
{
closed = 1;
nodes = (
(147,32,o),
(82,89,o),
(82,177,cs),
(82,273,o),
(149,321,o),
(223,362,c),
(411,119,l),
(375,65,o),
(320,32,o),
(248,32,cs)
);
},
{
closed = 1;
nodes = (
(173,623,o),
(216,661,o),
(268,661,cs),
(320,661,o),
(359,625,o),
(359,563,cs),
(359,501,o),
(320,464,o),
(240,420,c),
(216,452,ls),
(184,494,o),
(173,524,o),
(173,563,cs)
);
}
);
width = 571;
}
);
note = ampersand;
unicode = 38;
},
{
glyphname = quotesingle;
kernLeft = quotedbl;
kernRight = quotedbl;
layers = (
{
hints = (
{
horizontal = 1;
place = (501, 214);
place = (501, 214);
type = Stem;
},
{
place = (44, 49);
place = (44, 49);
type = Stem;
}
);
layerId = m01;
shapes = (
{
closed = 1;
nodes = (
(44,501,l),
(93,501,l),
(93,715,l),
(44,715,l)
);
}
);
width = 137;
}
);
note = quotesingle;
unicode = 39;
},
{
glyphname = parenleft;
kernRight = parenleft;
layers = (
{
hints = (
{
horizontal = 1;
place = (-118, 872);
place = (-118, 872);
type = Stem;
},
{
place = (74, 56);
place = (74, 56);
type = Stem;
}
);
layerId = m01;
shapes = (
{
closed = 1;
nodes = (
(252,-118,l),
(172,14,o),
(130,158,o),
(130,335,cs),
(130,499,o),
(184,646,o),
(252,754,c),
(206,754,l),
(135,652,o),
(74,509,o),
(74,335,cs),
(74,147,o),
(128,2,o),
(206,-118,c)
);
}
);
width = 271;
}
);
note = parenleft;
unicode = 40;
},
{
glyphname = parenright;
kernLeft = parenright;
layers = (
{
hints = (
{
horizontal = 1;
place = (-118, 872);
place = (-118, 872);
type = Stem;
},
{
place = (141, 56);
place = (141, 56);
type = Stem;
}
);
layerId = m01;
shapes = (
{
closed = 1;
nodes = (
(19,754,l),
(99,622,o),
(141,478,o),
(141,301,cs),
(141,137,o),
(87,-10,o),
(19,-118,c),
(65,-118,l),
(136,-16,o),
(197,127,o),
(197,301,cs),
(197,489,o),
(143,634,o),
(65,754,c)
);
}
);
width = 271;
}
);
note = parenright;
unicode = 41;
},
{
glyphname = asterisk;
kernLeft = asterisk;
kernRight = asterisk;
layers = (
{
hints = (
{
horizontal = 1;
place = (715, -20);
target = down;
type = TopGhost;
},
{
place = (156, 42);
place = (156, 42);
type = Stem;
}
);
layerId = m01;
shapes = (
{
closed = 1;
nodes = (
(198,715,l),
(156,715,l),
(156,595,l),
(52,632,l),
(39,598,l),
(142,561,l),
(75,467,l),
(106,445,l),
(177,546,l),
(248,445,l),
(279,467,l),
(212,561,l),
(315,598,l),
(302,632,l),
(198,595,l)
);
}
);
width = 354;
}
);
note = asterisk;
unicode = 42;
},
{
glyphname = plus;
kernLeft = minus;
kernRight = minus;
layers = (
{
hints = (
{
horizontal = 1;
place = (303, 46);
place = (303, 46);
type = Stem;
},
{
place = (230, 50);
place = (230, 50);
type = Stem;
}
);
layerId = m01;
shapes = (
{
closed = 1;
nodes = (
(56,303,l),
(230,303,l),
(230,113,l),
(280,113,l),
(280,303,l),
(454,303,l),
(454,349,l),
(280,349,l),
(280,536,l),
(230,536,l),
(230,349,l),
(56,349,l)
);
}
);
width = 510;
}
);
note = plus;
unicode = 43;
},
{
glyphname = comma;
kernLeft = comma;
kernRight = comma;
layers = (
{
hints = (
{
horizontal = 1;
place = (0, 79);
place = (0, 79);
type = Stem;
},
{
place = (41, 61);
place = (41, 61);
type = Stem;
}
);
layerId = m01;
shapes = (
{
closed = 1;
nodes = (
(40,-94,l),
(79,-87,o),
(102,-65,o),
(102,-3,cs),
(102,79,l),
(41,79,l),
(41,0,l),
(67,0,l),
(67,-6,ls),
(67,-46,o),
(57,-59,o),
(40,-65,c)
);
}
);
width = 143;
}
);
note = comma;
unicode = 44;
},
{
glyphname = hyphen;
kernLeft = hyphen;
kernRight = hyphen;
layers = (
{
hints = (
{
horizontal = 1;
place = (260, 44);
place = (260, 44);
type = Stem;
},
{
place = (33, 248);
place = (33, 248);
type = Stem;
}
);
layerId = m01;
shapes = (
{
closed = 1;
nodes = (
(33,260,l),
(281,260,l),
(281,304,l),
(33,304,l)
);
}
);
width = 314;
}
);
note = hyphen;
unicode = 45;
},
{
glyphname = period;
kernLeft = comma;
kernRight = comma;
layers = (
{
hints = (
{
horizontal = 1;
place = (0, 79);
place = (0, 79);
type = Stem;
},
{
place = (41, 61);
place = (41, 61);
type = Stem;
}
);
layerId = m01;
shapes = (
{
closed = 1;
nodes = (
(41,0,l),
(102,0,l),
(102,79,l),
(41,79,l)
);
}
);
width = 143;
}
);
note = period;
unicode = 46;
},
{
glyphname = slash;
kernLeft = slash;
kernRight = slash;
layers = (
{
hints = (
{
horizontal = 1;
place = (0, 21);
target = up;
type = BottomGhost;
},
{
horizontal = 1;
place = (715, -20);
target = down;
type = TopGhost;
},
{
place = (16, 336);
place = (16, 336);
type = Stem;
}
);
layerId = m01;
shapes = (
{
closed = 1;
nodes = (
(16,0,l),
(68,0,l),
(352,715,l),
(300,715,l)
);
}
);
width = 368;
}
);
note = slash;
unicode = 47;
},
{
glyphname = zero;
kernLeft = zero;
kernRight = zero;
layers = (
{
hints = (
{
horizontal = 1;
place = (-13, 45);
place = (-13, 45);
type = Stem;
},
{
horizontal = 1;
place = (655, 44);
place = (655, 44);
type = Stem;
},
{
place = (34, 53);
place = (34, 53);
type = Stem;
},
{
place = (471, 53);
place = (471, 53);
type = Stem;
}
);
layerId = m01;
shapes = (
{
closed = 1;
nodes = (
(438,-13,o),
(524,125,o),
(524,343,cs),
(524,567,o),
(430,699,o),
(280,699,cs),
(129,699,o),
(34,565,o),
(34,343,cs),
(34,125,o),
(121,-13,o),
(279,-13,cs)
);
},
{
closed = 1;
nodes = (
(157,32,o),
(87,152,o),
(87,343,cs),
(87,538,o),
(157,655,o),
(280,655,cs),
(401,655,o),
(471,534,o),
(471,343,cs),
(471,148,o),
(404,32,o),
(280,32,cs)
);
}
);
width = 558;
}
);
note = zero;
unicode = 48;
},
{
glyphname = one;
kernLeft = one;
kernRight = one;
layers = (
{
hints = (
{
horizontal = 1;
place = (0, 21);
target = up;
type = BottomGhost;
},
{
horizontal = 1;
place = (526, 35);
place = (526, 35);
type = Stem;
},
{
horizontal = 1;
place = (689, -20);
target = down;
type = TopGhost;
},
{
place = (173, 51);
place = (173, 51);
type = Stem;
}
);
layerId = m01;
shapes = (
{
closed = 1;
nodes = (
(173,0,l),
(224,0,l),
(224,689,l),
(187,689,l),
(175,587,o),
(144,568,o),
(33,561,c),
(33,526,l),
(173,526,l)
);
}
);
width = 315;
}
);
note = one;
unicode = 49;
},
{
glyphname = two;
kernLeft = two;
kernRight = two;
layers = (
{
hints = (
{
horizontal = 1;
place = (0, 47);
place = (0, 47);
type = Stem;
},
{
horizontal = 1;
place = (654, 45);
place = (654, 45);
type = Stem;
},
{
place = (32, 56);
place = (32, 56);
type = Stem;
},
{
place = (409, 53);
place = (409, 53);
type = Stem;
},
{
place = (48, 51);
place = (48, 51);
type = Stem;
}
);
layerId = m01;
shapes = (
{
closed = 1;
nodes = (
(456,0,l),
(456,47,l),
(88,47,l),
(99,155,o),
(181,206,o),
(263,257,cs),
(358,316,o),
(462,367,o),
(462,506,cs),
(462,613,o),
(386,699,o),
(264,699,cs),
(145,699,o),
(49,623,o),
(48,475,c),
(99,475,l),
(103,595,o),
(166,654,o),
(263,654,cs),
(351,654,o),
(409,602,o),
(409,504,cs),
(409,392,o),
(340,360,o),
(245,301,cs),
(144,238,o),
(32,171,o),
(32,0,c)
);
}
);
width = 496;
}
);
note = two;
unicode = 50;
},
{
glyphname = three;
kernLeft = three;
kernRight = three;
layers = (
{
hints = (
{
horizontal = 1;
place = (-13, 48);
place = (-13, 48);
type = Stem;
},
{
horizontal = 1;
place = (340, 45);
place = (340, 45);
type = Stem;
},
{
horizontal = 1;
place = (655, 44);
place = (655, 44);
type = Stem;
},
{
place = (28, 53);
place = (28, 53);
type = Stem;
},
{
place = (416, 53);
place = (416, 53);
type = Stem;
},
{
place = (49, 52);
place = (49, 52);
type = Stem;
},
{
place = (392, 52);
place = (392, 52);
type = Stem;
}
);
layerId = m01;
shapes = (
{
closed = 1;
nodes = (
(384,-13,o),
(469,65,o),
(469,186,cs),
(469,273,o),
(429,335,o),
(348,365,c),
(348,368,l),
(405,392,o),
(444,441,o),
(444,520,cs),
(444,630,o),
(362,699,o),
(256,699,cs),
(124,699,o),
(50,608,o),
(49,487,c),
(101,487,l),
(101,580,o),
(155,655,o),
(254,655,cs),
(334,655,o),
(392,606,o),
(392,518,cs),
(392,438,o),
(339,385,o),
(254,385,cs),
(204,385,l),
(204,340,l),
(255,340,ls),
(356,340,o),
(416,283,o),
(416,189,cs),
(416,99,o),
(360,35,o),
(252,35,cs),
(155,35,o),
(86,93,o),
(81,203,c),
(28,203,l),
(28,72,o),
(124,-13,o),
(251,-13,cs)
);
}
);
width = 502;
}
);
note = three;
unicode = 51;
},
{
glyphname = four;
kernLeft = four;
kernRight = four;
layers = (
{
hints = (
{
horizontal = 1;
place = (0, 21);
target = up;
type = BottomGhost;
},
{
horizontal = 1;
place = (180, 45);
place = (180, 45);
type = Stem;
},
{
horizontal = 1;
place = (692, -20);
target = down;
type = TopGhost;
},
{
place = (22, 55);
place = (22, 55);
type = Stem;
},
{
place = (340, 51);
place = (340, 51);
type = Stem;
}
);
layerId = m01;
shapes = (
{
closed = 1;
nodes = (
(340,0,l),
(391,0,l),
(391,180,l),
(492,180,l),
(492,225,l),
(391,225,l),
(391,692,l),
(345,692,l),
(22,230,l),
(22,180,l),
(340,180,l)
);
},
{
closed = 1;
nodes = (
(77,228,l),
(338,601,l),
(340,601,l),
(340,225,l),
(77,225,l)
);
}
);
width = 518;
}
);
note = four;
unicode = 52;
},
{
glyphname = five;
kernLeft = five;
kernRight = five;
layers = (
{
hints = (
{
horizontal = 1;
place = (-13, 48);
place = (-13, 48);
type = Stem;
},
{
horizontal = 1;
place = (393, 46);
place = (393, 46);
type = Stem;
},
{
horizontal = 1;
place = (639, 46);
place = (639, 46);
type = Stem;
},
{
place = (28, 51);
place = (28, 51);
type = Stem;
},
{
place = (398, 53);
place = (398, 53);
type = Stem;
},
{
horizontal = 1;
place = (323, 63);
place = (323, 63);
type = Stem;
}
);
layerId = m01;
shapes = (
{
closed = 1;
nodes = (
(369,-13,o),
(451,84,o),
(451,217,cs),
(451,365,o),
(355,439,o),
(252,439,cs),
(181,439,o),
(141,419,o),
(104,386,c),
(102,386,l),
(136,639,l),
(422,639,l),
(422,685,l),
(96,685,l),
(46,323,l),
(95,323,l),
(120,362,o),
(163,393,o),
(243,393,cs),
(336,393,o),
(398,327,o),
(398,219,cs),
(398,111,o),
(341,35,o),
(236,35,cs),
(136,35,o),
(90,90,o),
(79,176,c),
(28,176,l),
(29,66,o),
(116,-13,o),
(237,-13,cs)
);
}
);
width = 484;
}
);
note = five;
unicode = 53;
},
{
glyphname = six;
kernLeft = six;
kernRight = six;
layers = (
{
hints = (
{
horizontal = 1;
place = (-13, 44);
place = (-13, 44);
type = Stem;
},
{
horizontal = 1;
place = (392, 44);
place = (392, 44);
type = Stem;
},
{
horizontal = 1;
place = (654, 45);
place = (654, 45);
type = Stem;
},
{
place = (34, 52);
place = (34, 52);
type = Stem;
},
{
place = (433, 53);
place = (433, 53);
type = Stem;
}
);
layerId = m01;
shapes = (
{
closed = 1;
nodes = (
(403,-13,o),
(486,86,o),
(486,217,cs),
(486,347,o),
(400,436,o),
(274,436,cs),
(192,436,o),
(127,392,o),
(88,314,c),
(86,314,l),
(83,517,o),
(148,654,o),
(283,654,cs),
(359,654,o),
(407,602,o),
(414,530,c),
(466,530,l),
(456,629,o),
(391,699,o),
(282,699,cs),
(119,699,o),
(34,545,o),
(34,347,cs),
(34,204,o),
(58,101,o),
(123,43,cs),
(162,8,o),
(207,-13,o),
(273,-13,cs)
);
},
{
closed = 1;
nodes = (
(171,31,o),
(104,103,o),
(104,212,cs),
(104,317,o),
(177,392,o),
(273,392,cs),
(370,392,o),
(433,322,o),
(433,216,cs),
(433,110,o),
(369,31,o),
(271,31,cs)
);
}
);
width = 519;
}
);
note = six;
unicode = 54;
},
{
glyphname = seven;
kernLeft = seven;
kernRight = seven;
layers = (
{
hints = (
{
horizontal = 1;
place = (0, 21);
target = up;
type = BottomGhost;
},
{
horizontal = 1;
place = (639, 46);
place = (639, 46);
type = Stem;
},
{
place = (397, 54);
place = (397, 54);
type = Stem;
}
);
layerId = m01;
shapes = (
{
closed = 1;
nodes = (
(190,0,l),
(215,267,o),
(317,498,o),
(451,638,c),
(451,685,l),
(23,685,l),
(23,639,l),
(397,639,l),
(397,637,l),
(261,489,o),
(155,239,o),
(134,0,c)
);
}
);
width = 473;
}
);
note = seven;
unicode = 55;
},
{
glyphname = eight;
kernLeft = eight;
kernRight = eight;
layers = (
{
hints = (
{
horizontal = 1;
place = (-13, 45);
place = (-13, 45);
type = Stem;
},
{
horizontal = 1;
place = (347, 44);
place = (347, 44);
type = Stem;
},
{
horizontal = 1;
place = (655, 44);
place = (655, 44);
type = Stem;
},
{
place = (32, 53);
place = (32, 53);
type = Stem;
},
{
place = (437, 53);
place = (437, 53);
type = Stem;
},
{
place = (63, 52);
place = (63, 52);
type = Stem;
},
{
place = (405, 52);
place = (405, 52);
type = Stem;
}
);
layerId = m01;
shapes = (
{
closed = 1;
nodes = (
(387,-13,o),
(490,61,o),
(490,190,cs),
(490,277,o),
(431,348,o),
(355,372,c),
(355,375,l),
(417,401,o),
(457,454,o),
(457,524,cs),
(457,619,o),
(383,699,o),
(260,699,cs),
(147,699,o),
(63,625,o),
(63,524,cs),
(63,454,o),
(100,400,o),
(162,373,c),
(162,370,l),
(86,342,o),
(32,283,o),
(32,190,cs),
(32,65,o),
(135,-13,o),
(261,-13,cs)
);
},
{
closed = 1;
nodes = (
(149,32,o),
(85,101,o),
(85,190,cs),
(85,280,o),
(148,347,o),
(258,347,cs),
(370,347,o),
(437,280,o),
(437,190,cs),
(437,102,o),
(370,32,o),
(261,32,cs)
);
},
{
closed = 1;
nodes = (
(164,391,o),
(115,453,o),
(115,522,cs),
(115,593,o),
(168,655,o),
(260,655,cs),
(354,655,o),
(405,593,o),
(405,522,cs),
(405,453,o),
(350,391,o),
(258,391,cs)
);
}
);
width = 522;
}
);
note = eight;
unicode = 56;
},
{
glyphname = nine;
kernLeft = nine;
kernRight = nine;
layers = (
{
hints = (
{
horizontal = 1;
place = (-13, 45);
place = (-13, 45);
type = Stem;
},
{
horizontal = 1;
place = (250, 44);
place = (250, 44);
type = Stem;
},
{
horizontal = 1;
place = (655, 44);
place = (655, 44);
type = Stem;
},
{
place = (33, 53);
place = (33, 53);
type = Stem;
},
{
place = (432, 51);
place = (432, 51);
type = Stem;
}
);
layerId = m01;
shapes = (
{
closed = 1;
nodes = (
(303,-13,o),
(357,9,o),
(396,50,cs),
(458,115,o),
(483,219,o),
(483,339,cs),
(483,482,o),
(463,586,o),
(396,644,cs),
(357,678,o),
(312,699,o),
(246,699,cs),
(121,699,o),
(33,600,o),
(33,469,cs),
(33,339,o),
(119,250,o),
(245,250,cs),
(327,250,o),
(394,294,o),
(430,371,c),
(432,371,l),
(434,230,o),
(410,133,o),
(355,78,cs),
(326,48,o),
(286,32,o),
(236,32,cs),
(160,32,o),
(107,80,o),
(100,156,c),
(47,156,l),
(54,54,o),
(128,-13,o),
(237,-13,cs)
);
},
{
closed = 1;
nodes = (
(147,294,o),
(86,364,o),
(86,470,cs),
(86,576,o),
(151,655,o),
(248,655,cs),
(348,655,o),
(414,582,o),
(414,472,cs),
(414,368,o),
(342,294,o),
(246,294,cs)
);
}
);
width = 517;
}
);
note = nine;
unicode = 57;
},
{
glyphname = colon;
kernLeft = colon;
kernRight = colon;
layers = (
{
hints = (
{
horizontal = 1;
place = (0, 79);
place = (0, 79);
type = Stem;
},
{
horizontal = 1;
place = (309, 79);
place = (309, 79);
type = Stem;
},
{
place = (46, 61);
place = (46, 61);
type = Stem;
}
);
layerId = m01;
shapes = (
{
closed = 1;
nodes = (
(46,309,l),
(107,309,l),
(107,388,l),
(46,388,l)
);
},
{
closed = 1;
nodes = (
(46,0,l),
(107,0,l),
(107,79,l),
(46,79,l)
);
}
);
width = 153;
}
);
note = colon;
unicode = 58;
},
{
glyphname = semicolon;
kernLeft = colon;
kernRight = colon;
layers = (
{
hints = (
{
horizontal = 1;
place = (0, 79);
place = (0, 79);
type = Stem;
},
{
horizontal = 1;
place = (309, 79);
place = (309, 79);
type = Stem;
},
{
place = (46, 61);
place = (46, 61);
type = Stem;
}
);
layerId = m01;
shapes = (
{
closed = 1;
nodes = (
(45,-94,l),
(84,-87,o),
(107,-65,o),
(107,-3,cs),
(107,79,l),
(46,79,l),
(46,0,l),
(72,0,l),
(72,-6,ls),
(72,-46,o),
(62,-59,o),
(45,-65,c)
);
},
{
closed = 1;
nodes = (
(46,309,l),
(107,309,l),
(107,388,l),
(46,388,l)
);
}
);
width = 153;
}
);
note = semicolon;
unicode = 59;
},
{
glyphname = less;
layers = (
{
hints = (
{
horizontal = 1;
place = (117, 389);
place = (117, 389);
type = Stem;
},
{
place = (50, 44);
place = (50, 44);
type = Stem;
}
);
layerId = m01;
shapes = (
{
closed = 1;
nodes = (
(437,117,l),
(437,166,l),
(94,310,l),
(94,312,l),
(437,457,l),
(437,506,l),
(50,340,l),
(50,283,l)
);
}
);
width = 491;
}
);
note = less;
unicode = 60;
},
{
glyphname = equal;
layers = (
{
hints = (
{
horizontal = 1;
place = (211, 46);
place = (211, 46);
type = Stem;
},
{
horizontal = 1;
place = (361, 46);
place = (361, 46);
type = Stem;
},
{
place = (56, 398);
place = (56, 398);
type = Stem;
}
);
layerId = m01;
shapes = (
{
closed = 1;
nodes = (
(56,361,l),
(454,361,l),
(454,407,l),
(56,407,l)
);
},
{
closed = 1;
nodes = (
(56,211,l),
(454,211,l),
(454,257,l),
(56,257,l)
);
}
);
width = 510;
}
);
note = equal;
unicode = 61;
},
{
glyphname = greater;
layers = (
{
hints = (
{
horizontal = 1;
place = (117, 389);
place = (117, 389);
type = Stem;
},
{
place = (397, 44);
place = (397, 44);
type = Stem;
}
);
layerId = m01;
shapes = (
{
closed = 1;
nodes = (
(54,506,l),
(54,457,l),
(397,313,l),
(397,311,l),
(54,166,l),
(54,117,l),
(441,283,l),
(441,340,l)
);
}
);
width = 491;
}
);
note = greater;
unicode = 62;
},
{
glyphname = question;
kernLeft = question;
layers = (
{
hints = (
{
horizontal = 1;
place = (0, 79);
place = (0, 79);
type = Stem;
},
{
horizontal = 1;
place = (682, 46);
place = (682, 46);
type = Stem;
},
{
place = (34, 51);
place = (34, 51);
type = Stem;
},
{
place = (198, 49);
place = (198, 49);
type = Stem;
},
{
place = (392, 53);
place = (392, 53);
type = Stem;
},
{
place = (192, 61);
place = (192, 61);
type = Stem;
}
);
layerId = m01;
shapes = (
{
closed = 1;
nodes = (
(247,173,l),
(247,272,o),
(267,301,o),
(333,357,cs),
(385,401,o),
(445,441,o),
(445,550,cs),
(445,652,o),
(369,728,o),
(254,728,cs),
(102,728,o),
(35,620,o),
(34,517,c),
(85,517,l),
(87,610,o),
(148,682,o),
(251,682,cs),
(333,682,o),
(392,634,o),
(392,549,cs),
(392,466,o),
(344,428,o),
(299,391,cs),
(225,330,o),
(198,289,o),
(198,173,c)
);
},
{
closed = 1;
nodes = (
(192,0,l),
(253,0,l),
(253,79,l),
(192,79,l)
);
}
);
width = 493;
}
);
note = question;
unicode = 63;
},
{
glyphname = at;
kernLeft = at;
kernRight = at;
layers = (
{
hints = (
{
horizontal = 1;
place = (-100, 42);
place = (-100, 42);
type = Stem;
},
{
horizontal = 1;
place = (82, 41);
place = (82, 41);
type = Stem;
},
{
horizontal = 1;
place = (484, 40);
place = (484, 40);
type = Stem;
},
{
horizontal = 1;
place = (669, 42);
place = (669, 42);
type = Stem;
},
{
place = (41, 46);
place = (41, 46);
type = Stem;
},
{
place = (235, 49);
place = (235, 49);
type = Stem;
},
{
place = (549, 36);
place = (549, 36);
type = Stem;
},
{
place = (776, 46);
place = (776, 46);
type = Stem;
},
{
horizontal = 1;
place = (92, 39);
place = (92, 39);
type = Stem;
}
);
layerId = m01;
shapes = (
{
closed = 1;
nodes = (
(461,82,o),
(520,121,o),
(545,172,c),
(546,172,l),
(551,134,o),
(582,92,o),
(647,92,cs),
(756,92,o),
(822,197,o),
(822,342,cs),
(822,583,o),
(644,711,o),
(450,711,cs),
(245,711,o),
(41,557,o),
(41,292,cs),
(41,55,o),
(187,-100,o),
(428,-100,cs),
(507,-100,o),
(576,-83,o),
(639,-55,c),
(624,-17,l),
(563,-41,o),
(499,-58,o),
(429,-58,cs),
(206,-58,o),
(87,83,o),
(87,293,cs),
(87,525,o),
(255,669,o),
(449,669,cs),
(635,669,o),
(776,558,o),
(776,342,cs),
(776,216,o),
(733,131,o),
(647,131,cs),
(596,131,o),
(577,175,o),
(585,234,cs),
(619,516,l),
(577,516,l),
(566,444,l),
(563,444,l),
(541,490,o),
(497,524,o),
(432,524,cs),
(321,524,o),
(235,426,o),
(235,271,cs),
(235,158,o),
(295,82,o),
(396,82,cs)
);
},
{
closed = 1;
nodes = (
(316,123,o),
(284,187,o),
(284,271,cs),
(284,391,o),
(338,484,o),
(431,484,cs),
(515,484,o),
(549,424,o),
(549,339,cs),
(549,221,o),
(503,123,o),
(395,123,cs)
);
}
);
width = 863;
}
);
note = at;
unicode = 64;
},
{
glyphname = A;
kernLeft = A;
kernRight = A;
layers = (
{
hints = (
{
horizontal = 1;
place = (0, 21);
target = up;
type = BottomGhost;
},
{
horizontal = 1;
place = (229, 44);
place = (229, 44);
type = Stem;
},
{
horizontal = 1;
place = (715, -20);
target = down;
type = TopGhost;
},
{
place = (6, 612);
place = (6, 612);
type = Stem;
},
{
horizontal = 1;
place = (663, 52);
place = (663, 52);
type = Stem;
}
);
layerId = m01;
shapes = (
{
closed = 1;
nodes = (
(6,0,l),
(59,0,l),
(147,229,l),
(476,229,l),
(564,0,l),
(618,0,l),
(341,715,l),
(282,715,l)
);
},
{
closed = 1;
nodes = (
(273,557,ls),
(290,602,o),
(310,663,o),
(310,663,c),
(312,663,l),
(312,663,o),
(335,598,o),
(351,557,cs),
(459,273,l),
(164,273,l)
);
}
);
width = 624;
}
);
note = A;
unicode = 65;
},
{
glyphname = B;
layers = (
{
hints = (
{
horizontal = 1;
place = (0, 48);
place = (0, 48);
type = Stem;
},
{
horizontal = 1;
place = (349, 46);
place = (349, 46);
type = Stem;
},
{
horizontal = 1;
place = (668, 47);
place = (668, 47);
type = Stem;
},
{
place = (62, 52);
place = (62, 52);
type = Stem;
},
{
place = (496, 53);
place = (496, 53);
type = Stem;
},
{
place = (527, 53);
place = (527, 53);
type = Stem;
}
);
layerId = m01;
shapes = (
{
closed = 1;
nodes = (
(62,0,l),
(366,0,ls),
(438,0,o),
(493,22,o),
(529,57,cs),
(563,91,o),
(580,138,o),
(580,198,cs),
(580,292,o),
(528,351,o),
(444,377,c),
(444,379,l),
(518,407,o),
(549,456,o),
(549,537,cs),
(549,594,o),
(529,639,o),
(494,669,cs),
(460,699,o),
(412,715,o),
(355,715,cs),
(62,715,l)
);
},
{
closed = 1;
nodes = (
(114,48,l),
(114,349,l),
(366,349,ls),
(464,349,o),
(527,293,o),
(527,200,cs),
(527,152,o),
(514,117,o),
(489,92,cs),
(462,65,o),
(419,48,o),
(362,48,cs)
);
},
{
closed = 1;
nodes = (
(114,395,l),
(114,668,l),
(356,668,ls),
(441,668,o),
(496,621,o),
(496,533,cs),
(496,452,o),
(448,395,o),
(360,395,cs)
);
}
);
width = 609;
}
);
note = B;
unicode = 66;
},
{
glyphname = C;
kernLeft = C;
kernRight = C;
layers = (
{
hints = (
{
horizontal = 1;
place = (-13, 46);
place = (-13, 46);
type = Stem;
},
{
horizontal = 1;
place = (684, 45);
place = (684, 45);
type = Stem;
},
{
place = (34, 54);
place = (34, 54);
type = Stem;
},
{
place = (581, 49);
place = (581, 49);
type = Stem;
}
);
layerId = m01;
shapes = (
{
closed = 1;
nodes = (
(437,-13,o),
(514,21,o),
(564,81,cs),
(602,126,o),
(624,189,o),
(630,259,c),
(581,259,l),
(568,132,o),
(487,33,o),
(346,33,cs),
(172,33,o),
(88,175,o),
(88,356,cs),
(88,537,o),
(173,684,o),
(349,684,cs),
(468,684,o),
(544,616,o),
(564,519,c),
(616,519,l),
(588,653,o),
(490,729,o),
(349,729,cs),
(154,729,o),
(34,576,o),
(34,356,cs),
(34,136,o),
(151,-13,o),
(346,-13,cs)
);
}
);
width = 656;
}
);
note = C;
unicode = 67;
},
{
glyphname = D;
kernRight = Eth;
layers = (
{
hints = (
{
horizontal = 1;
place = (0, 46);
place = (0, 46);
type = Stem;
},
{
horizontal = 1;
place = (668, 47);
place = (668, 47);
type = Stem;
},
{
place = (62, 52);
place = (62, 52);
type = Stem;
},
{
place = (556, 54);
place = (556, 54);
type = Stem;
}
);
layerId = m01;
shapes = (
{
closed = 1;
nodes = (
(62,0,l),
(305,0,ls),
(513,0,o),
(610,145,o),
(610,355,cs),
(610,565,o),
(520,715,o),
(312,715,cs),
(62,715,l)
);
},
{
closed = 1;
nodes = (
(114,46,l),
(114,668,l),
(310,668,ls),
(483,668,o),
(556,544,o),
(556,355,cs),
(556,166,o),
(476,46,o),
(303,46,cs)
);
}
);
width = 644;
}
);
note = D;
unicode = 68;
},
{
glyphname = E;
kernRight = E;
layers = (
{
hints = (
{
horizontal = 1;
place = (0, 48);
place = (0, 48);
type = Stem;
},
{
horizontal = 1;
place = (346, 45);
place = (346, 45);
type = Stem;
},
{
horizontal = 1;
place = (669, 46);
place = (669, 46);
type = Stem;
},
{
place = (62, 52);
place = (62, 52);
type = Stem;
}
);
layerId = m01;
shapes = (
{
closed = 1;
nodes = (
(62,0,l),
(546,0,l),
(546,48,l),
(114,48,l),
(114,346,l),
(502,346,l),
(502,391,l),
(114,391,l),
(114,669,l),
(536,669,l),
(536,715,l),
(62,715,l)
);
}
);
width = 582;
}
);
note = E;
unicode = 69;
},
{
glyphname = F;
kernRight = F;
layers = (
{
hints = (
{
horizontal = 1;
place = (0, 21);
target = up;
type = BottomGhost;
},
{
horizontal = 1;
place = (349, 45);
place = (349, 45);
type = Stem;
},
{
horizontal = 1;
place = (669, 46);
place = (669, 46);
type = Stem;
},
{
place = (62, 52);
place = (62, 52);
type = Stem;
}
);
layerId = m01;
shapes = (
{
closed = 1;
nodes = (
(62,0,l),
(114,0,l),
(114,349,l),
(461,349,l),
(461,394,l),
(114,394,l),
(114,669,l),
(516,669,l),
(516,715,l),
(62,715,l)
);
}
);
width = 542;
}
);
note = F;
unicode = 70;
},
{
glyphname = G;
kernLeft = C;
kernRight = G;
layers = (
{
hints = (
{
horizontal = 1;
place = (0, 21);
target = up;
type = BottomGhost;
},
{
horizontal = 1;
place = (314, 46);
place = (314, 46);
type = Stem;
},
{
horizontal = 1;
place = (684, 45);
place = (684, 45);
type = Stem;
},
{
place = (34, 54);
place = (34, 54);
type = Stem;
},
{
place = (612, 43);
place = (612, 43);
type = Stem;
},
{
horizontal = 1;
place = (-13, 46);
place = (-13, 46);
type = Stem;
}
);
layerId = m01;
shapes = (
{
closed = 1;
nodes = (
(615,0,l),
(655,0,l),
(655,360,l),
(365,360,l),
(365,314,l),
(605,314,l),
(605,283,ls),
(605,156,o),
(533,33,o),
(356,33,cs),
(169,33,o),
(88,181,o),
(88,358,cs),
(88,535,o),
(176,684,o),
(368,684,cs),
(475,684,o),
(567,629,o),
(591,513,c),
(643,513,l),
(615,661,o),
(502,729,o),
(368,729,cs),
(155,729,o),
(34,570,o),
(34,358,cs),
(34,146,o),
(142,-13,o),
(356,-13,cs),
(513,-13,o),
(579,79,o),
(605,128,c),
(609,128,l)
);
}
);
width = 709;
}
);
note = G;
unicode = 71;
},
{
glyphname = H;
layers = (
{
hints = (
{
horizontal = 1;
place = (0, 21);
target = up;
type = BottomGhost;
},
{
horizontal = 1;
place = (358, 44);
place = (358, 44);
type = Stem;
},
{
horizontal = 1;
place = (715, -20);
target = down;
type = TopGhost;
},
{
place = (62, 52);
place = (62, 52);
type = Stem;
},
{
place = (534, 52);
place = (534, 52);
type = Stem;
}
);
layerId = m01;
shapes = (
{
closed = 1;
nodes = (
(62,0,l),
(114,0,l),
(114,358,l),
(534,358,l),
(534,0,l),
(586,0,l),
(586,715,l),
(534,715,l),
(534,402,l),
(114,402,l),
(114,715,l),
(62,715,l)
);
}
);
width = 648;
}
);
note = H;
unicode = 72;
},
{
glyphname = I;
layers = (
{
hints = (
{
horizontal = 1;
place = (0, 21);
target = up;
type = BottomGhost;
},
{
horizontal = 1;
place = (715, -20);
target = down;
type = TopGhost;
},
{
place = (66, 52);
place = (66, 52);
type = Stem;
}
);
layerId = m01;
shapes = (
{
closed = 1;
nodes = (
(66,0,l),
(118,0,l),
(118,715,l),
(66,715,l)
);
}
);
width = 184;
}
);
note = I;
unicode = 73;
},
{
glyphname = J;
kernLeft = J;
kernRight = J;
layers = (
{
hints = (
{
horizontal = 1;
place = (-13, 47);
place = (-13, 47);
type = Stem;
},
{
horizontal = 1;
place = (715, -20);
target = down;
type = TopGhost;
},
{
place = (22, 51);
place = (22, 51);
type = Stem;
},
{
place = (349, 52);
place = (349, 52);
type = Stem;
}
);
layerId = m01;
shapes = (
{
closed = 1;
nodes = (
(343,-13,o),
(401,65,o),
(401,164,cs),
(401,715,l),
(349,715,l),
(349,168,ls),
(349,76,o),
(300,34,o),
(220,34,cs),
(124,34,o),
(73,76,o),
(73,186,cs),
(73,222,l),
(22,222,l),
(22,184,ls),
(22,50,o),
(95,-13,o),
(219,-13,cs)
);
}
);
width = 460;
}
);
note = J;
unicode = 74;
},
{
glyphname = K;
kernRight = K;
layers = (
{
hints = (
{
horizontal = 1;
place = (0, 21);
target = up;
type = BottomGhost;
},
{
horizontal = 1;
place = (716, -20);
target = down;
type = TopGhost;
},
{
place = (62, 52);
place = (62, 52);
type = Stem;
},
{
horizontal = 1;
place = (715, -20);
target = down;
type = TopGhost;
}
);
layerId = m01;
shapes = (
{
closed = 1;
nodes = (
(62,0,l),
(114,0,l),
(114,252,l),
(250,385,l),
(543,0,l),
(606,0,l),
(287,421,l),
(592,716,l),
(523,716,l),
(114,316,l),
(114,715,l),
(62,715,l)
);
}
);
width = 613;
}
);
note = K;
unicode = 75;
},
{
glyphname = L;
kernRight = L;
layers = (
{
hints = (
{
horizontal = 1;
place = (0, 48);
place = (0, 48);
type = Stem;
},
{
horizontal = 1;
place = (715, -20);
target = down;
type = TopGhost;
},
{
place = (62, 52);
place = (62, 52);
type = Stem;
}
);
layerId = m01;
shapes = (
{
closed = 1;
nodes = (
(62,0,l),
(499,0,l),
(499,48,l),
(114,48,l),
(114,715,l),
(62,715,l)
);
}
);
width = 524;
}
);
note = L;
unicode = 76;
},
{
glyphname = M;
layers = (
{
hints = (
{
horizontal = 1;
place = (0, 21);
target = up;
type = BottomGhost;
},
{
horizontal = 1;
place = (646, 69);
place = (646, 69);
type = Stem;
},
{
place = (62, 50);
place = (62, 50);
type = Stem;
},
{
place = (672, 51);
place = (672, 51);
type = Stem;
},
{
horizontal = 1;
place = (0, 71);
place = (0, 71);
type = Stem;
}
);
layerId = m01;
shapes = (
{
closed = 1;
nodes = (
(62,0,l),
(112,0,l),
(112,646,l),
(114,646,l),
(114,646,o),
(135,583,o),
(150,545,cs),
(368,0,l),
(420,0,l),
(634,545,ls),
(651,589,o),
(670,646,o),
(670,646,c),
(672,646,l),
(672,0,l),
(723,0,l),
(723,715,l),
(645,715,l),
(396,71,l),
(394,71,l),
(137,715,l),
(62,715,l)
);
}
);
width = 785;
}
);
note = M;
unicode = 77;
},
{
glyphname = N;
layers = (
{
hints = (
{
horizontal = 1;
place = (0, 21);
target = up;
type = BottomGhost;
},
{
horizontal = 1;
place = (715, -20);
target = down;
type = TopGhost;
},
{
place = (62, 50);
place = (62, 50);
type = Stem;
},
{
place = (537, 50);
place = (537, 50);
type = Stem;
},
{
horizontal = 1;
place = (637, 78);
place = (637, 78);
type = Stem;
},
{
horizontal = 1;
place = (0, 75);
place = (0, 75);
type = Stem;
}
);
layerId = m01;
shapes = (
{
closed = 1;
nodes = (
(62,0,l),
(112,0,l),
(112,637,l),
(114,637,l),
(114,637,o),
(164,554,o),
(204,494,cs),
(532,0,l),
(587,0,l),
(587,715,l),
(537,715,l),
(537,75,l),
(535,75,l),
(535,75,o),
(495,145,o),
(452,210,cs),
(120,715,l),
(62,715,l)
);
}
);
width = 649;
}
);
note = N;
unicode = 78;
},
{
glyphname = O;
kernLeft = C;
kernRight = O;
layers = (
{
hints = (
{
horizontal = 1;
place = (-13, 47);
place = (-13, 47);
type = Stem;
},
{
horizontal = 1;
place = (682, 47);
place = (682, 47);
type = Stem;
},
{
place = (34, 54);
place = (34, 54);
type = Stem;
},
{
place = (622, 54);
place = (622, 54);
type = Stem;
}
);
layerId = m01;
shapes = (
{
closed = 1;
nodes = (
(548,-13,o),
(676,146,o),
(676,358,cs),
(676,570,o),
(548,729,o),
(354,729,cs),
(160,729,o),
(34,570,o),
(34,358,cs),
(34,146,o),
(160,-13,o),
(354,-13,cs)
);
},
{
closed = 1;
nodes = (
(180,34,o),
(88,181,o),
(88,358,cs),
(88,535,o),
(180,682,o),
(354,682,cs),
(528,682,o),
(622,535,o),
(622,358,cs),
(622,181,o),
(528,34,o),
(354,34,cs)
);
}
);
width = 710;
}
);
note = O;
unicode = 79;
},
{
glyphname = P;
kernRight = P;
layers = (
{
hints = (
{
horizontal = 1;
place = (0, 21);
target = up;
type = BottomGhost;
},
{
horizontal = 1;
place = (319, 46);
place = (319, 46);
type = Stem;
},
{
horizontal = 1;
place = (668, 47);
place = (668, 47);
type = Stem;
},
{
place = (62, 52);
place = (62, 52);
type = Stem;
},
{
place = (496, 53);
place = (496, 53);
type = Stem;
}
);
layerId = m01;
shapes = (
{
closed = 1;
nodes = (
(62,0,l),
(114,0,l),
(114,319,l),
(325,319,ls),
(472,319,o),
(549,385,o),
(549,519,cs),
(549,580,o),
(532,625,o),
(498,658,cs),
(460,695,o),
(411,715,o),
(332,715,cs),
(62,715,l)
);
},
{
closed = 1;
nodes = (
(114,668,l),
(328,668,ls),
(439,668,o),
(496,613,o),
(496,518,cs),
(496,423,o),
(448,365,o),
(321,365,cs),
(114,365,l)
);
}
);
width = 575;
}
);
note = P;
unicode = 80;
},
{
glyphname = Q;
kernLeft = C;
kernRight = Q;
layers = (
{
hints = (
{
horizontal = 1;
place = (-3, 21);
target = up;
type = BottomGhost;
},
{
horizontal = 1;
place = (682, 47);
place = (682, 47);
type = Stem;
},
{
place = (34, 54);
place = (34, 54);
type = Stem;
},
{
place = (622, 54);
place = (622, 54);
type = Stem;
},
{
horizontal = 1;
place = (-13, 47);
place = (-13, 47);
type = Stem;
}
);
layerId = m01;
shapes = (
{
closed = 1;
nodes = (
(630,-41,l),
(660,-3,l),
(568,72,l),
(636,139,o),
(676,240,o),
(676,358,cs),
(676,570,o),
(548,729,o),
(354,729,cs),
(160,729,o),
(34,570,o),
(34,358,cs),
(34,146,o),
(160,-13,o),
(354,-13,cs),
(422,-13,o),
(482,6,o),
(531,41,c)
);
},
{
closed = 1;
nodes = (
(180,34,o),
(88,181,o),
(88,358,cs),
(88,535,o),
(180,682,o),
(354,682,cs),
(528,682,o),
(622,535,o),
(622,358,cs),
(622,254,o),
(591,162,o),
(531,103,c),
(441,177,l),
(411,140,l),
(492,72,l),
(454,48,o),
(408,34,o),
(354,34,cs)
);
}
);
width = 710;
}
);
note = Q;
unicode = 81;
},
{
glyphname = R;
kernRight = R;
layers = (
{
hints = (
{
horizontal = 1;
place = (0, 21);
target = up;
type = BottomGhost;
},
{
horizontal = 1;
place = (331, 46);
place = (331, 46);
type = Stem;
},
{
horizontal = 1;
place = (669, 46);
place = (669, 46);
type = Stem;
},
{
place = (62, 52);
place = (62, 52);
type = Stem;
},
{
place = (516, 53);
place = (516, 53);
type = Stem;
}
);
layerId = m01;
shapes = (
{
closed = 1;
nodes = (
(62,0,l),
(114,0,l),
(114,331,l),
(344,331,ls),
(454,331,o),
(497,296,o),
(502,160,cs),
(507,36,o),
(512,9,o),
(528,0,c),
(584,0,l),
(584,4,l),
(571,13,o),
(558,42,o),
(554,157,cs),
(550,272,o),
(526,328,o),
(452,352,c),
(452,355,l),
(531,380,o),
(569,435,o),
(569,524,cs),
(569,645,o),
(502,715,o),
(371,715,cs),
(62,715,l)
);
},
{
closed = 1;
nodes = (
(114,669,l),
(365,669,ls),
(475,669,o),
(516,613,o),
(516,522,cs),
(516,429,o),
(460,377,o),
(354,377,cs),
(114,377,l)
);
}
);
width = 615;
}
);
note = R;
unicode = 82;
},
{
glyphname = S;
kernLeft = Scaron;
kernRight = Scaron;
layers = (
{
hints = (
{
horizontal = 1;
place = (-13, 46);
place = (-13, 46);
type = Stem;
},
{
horizontal = 1;
place = (683, 46);
place = (683, 46);
type = Stem;
},
{
place = (23, 53);
place = (23, 53);
type = Stem;
},
{
place = (493, 54);
place = (493, 54);
type = Stem;
},
{
place = (49, 53);
place = (49, 53);
type = Stem;
},
{
place = (473, 52);
place = (473, 52);
type = Stem;
}
);
layerId = m01;
shapes = (
{
closed = 1;
nodes = (
(450,-13,o),
(547,75,o),
(547,197,cs),
(547,340,o),
(439,373,o),
(300,399,cs),
(159,425,o),
(102,453,o),
(102,541,cs),
(102,623,o),
(170,683,o),
(287,683,cs),
(387,683,o),
(463,630,o),
(473,530,c),
(525,530,l),
(515,647,o),
(431,729,o),
(286,729,cs),
(145,729,o),
(49,652,o),
(49,540,cs),
(49,421,o),
(132,379,o),
(268,354,cs),
(438,322,o),
(493,296,o),
(493,193,cs),
(493,92,o),
(410,33,o),
(301,33,cs),
(168,33,o),
(81,105,o),
(76,226,c),
(23,226,l),
(31,89,o),
(123,-13,o),
(302,-13,cs)
);
}
);
width = 581;
}
);
note = S;
unicode = 83;
},
{
glyphname = T;
kernLeft = T;
kernRight = T;
layers = (
{
hints = (
{
horizontal = 1;
place = (0, 21);
target = up;
type = BottomGhost;
},
{
horizontal = 1;
place = (668, 47);
place = (668, 47);
type = Stem;
},
{
place = (261, 52);
place = (261, 52);
type = Stem;
}
);
layerId = m01;
shapes = (
{
closed = 1;
nodes = (
(17,668,l),
(261,668,l),
(261,0,l),
(313,0,l),
(313,668,l),
(557,668,l),
(557,715,l),
(17,715,l)
);
}
);
width = 574;
}
);
note = T;
unicode = 84;
},
{
glyphname = U;
kernLeft = U;
kernRight = U;
layers = (
{
hints = (
{
horizontal = 1;
place = (-11, 46);
place = (-11, 46);
type = Stem;
},
{
horizontal = 1;
place = (715, -20);
target = down;
type = TopGhost;
},
{
place = (56, 52);
place = (56, 52);
type = Stem;
},
{
place = (514, 52);
place = (514, 52);
type = Stem;
}
);
layerId = m01;
shapes = (
{
closed = 1;
nodes = (
(463,-11,o),
(566,63,o),
(566,225,cs),
(566,715,l),
(514,715,l),
(514,229,ls),
(514,89,o),
(434,35,o),
(311,35,cs),
(181,35,o),
(108,89,o),
(108,229,cs),
(108,715,l),
(56,715,l),
(56,225,ls),
(56,67,o),
(152,-11,o),
(308,-11,cs)
);
}
);
width = 622;
}
);
note = U;
unicode = 85;
},
{
glyphname = V;
kernLeft = V;
kernRight = V;
layers = (
{
hints = (
{
horizontal = 1;
place = (0, 21);
target = up;
type = BottomGhost;
},
{
horizontal = 1;
place = (715, -20);
target = down;
type = TopGhost;
},
{
place = (6, 582);
place = (6, 582);
type = Stem;
},
{
horizontal = 1;
place = (0, 57);
place = (0, 57);
type = Stem;
}
);
layerId = m01;
shapes = (
{
closed = 1;
nodes = (
(268,0,l),
(323,0,l),
(588,715,l),
(536,715,l),
(343,195,ls),
(323,142,o),
(296,57,o),
(296,57,c),
(294,57,l),
(294,57,o),
(269,138,o),
(250,190,cs),
(59,715,l),
(6,715,l)
);
}
);
width = 594;
}
);
note = V;
unicode = 86;
},
{
glyphname = W;
kernLeft = W;
kernRight = W;
layers = (
{
hints = (
{
horizontal = 1;
place = (0, 67);
place = (0, 67);
type = Stem;
},
{
horizontal = 1;
place = (715, -20);
target = down;
type = TopGhost;
},
{
place = (11, 835);
place = (11, 835);
type = Stem;
},
{
horizontal = 1;
place = (653, 62);
place = (653, 62);
type = Stem;
}
);
layerId = m01;
shapes = (
{
closed = 1;
nodes = (
(204,0,l),
(262,0,l),
(402,532,ls),
(415,581,o),
(430,653,o),
(430,653,c),
(432,653,l),
(432,653,o),
(447,580,o),
(460,532,cs),
(600,0,l),
(656,0,l),
(846,715,l),
(796,715,l),
(667,221,ls),
(652,163,o),
(631,67,o),
(631,67,c),
(629,67,l),
(629,67,o),
(606,162,o),
(592,215,cs),
(458,715,l),
(403,715,l),
(270,213,ls),
(256,160,o),
(234,67,o),
(234,67,c),
(232,67,l),
(232,67,o),
(210,166,o),
(195,221,cs),
(63,715,l),
(11,715,l)
);
}
);
width = 857;
}
);
note = W;
unicode = 87;
},
{
glyphname = X;
kernLeft = X;
kernRight = X;
layers = (
{
hints = (
{
horizontal = 1;
place = (0, 21);
target = up;
type = BottomGhost;
},
{
horizontal = 1;
place = (715, -20);
target = down;
type = TopGhost;
},
{
place = (11, 551);
place = (11, 551);
type = Stem;
}
);
layerId = m01;
shapes = (
{
closed = 1;
nodes = (
(11,0,l),
(69,0,l),
(285,326,l),
(287,326,l),
(503,0,l),
(562,0,l),
(319,364,l),
(549,715,l),
(491,715,l),
(290,403,l),
(288,403,l),
(81,715,l),
(22,715,l),
(256,365,l)
);
}
);
width = 573;
}
);
note = X;
unicode = 88;
},
{
glyphname = Y;
kernLeft = Yacute;
kernRight = Yacute;
layers = (
{
hints = (
{
horizontal = 1;
place = (0, 21);
target = up;
type = BottomGhost;
},
{
horizontal = 1;
place = (715, -20);
target = down;
type = TopGhost;
},
{
place = (263, 52);
place = (263, 52);
type = Stem;
}
);
layerId = m01;
shapes = (
{
closed = 1;
nodes = (
(263,0,l),
(315,0,l),
(315,316,l),
(574,715,l),
(518,715,l),
(291,365,l),
(289,365,l),
(62,715,l),
(5,715,l),
(263,318,l)
);
}
);
width = 579;
}
);
note = Y;
unicode = 89;
},
{
glyphname = Z;
kernLeft = Zcaron;
kernRight = Zcaron;
layers = (
{
hints = (
{
horizontal = 1;
place = (0, 46);
place = (0, 46);
type = Stem;
},
{
horizontal = 1;
place = (670, 45);
place = (670, 45);
type = Stem;
},
{
place = (24, 60);
place = (24, 60);
type = Stem;
},
{
place = (466, 61);
place = (466, 61);
type = Stem;
}
);
layerId = m01;
shapes = (
{
closed = 1;
nodes = (
(24,0,l),
(543,0,l),
(543,46,l),
(84,46,l),
(84,49,l),
(527,667,l),
(527,715,l),
(52,715,l),
(52,670,l),
(466,670,l),
(466,667,l),
(24,51,l)
);
}
);
width = 573;
}
);
note = Z;
unicode = 90;
},
{
glyphname = bracketleft;
kernRight = bracketleft;
layers = (
{
hints = (
{
horizontal = 1;
place = (-118, 46);
place = (-118, 46);
type = Stem;
},
{
horizontal = 1;
place = (709, 45);
place = (709, 45);
type = Stem;
},
{
place = (82, 50);
place = (82, 50);
type = Stem;
}
);
layerId = m01;
shapes = (
{
closed = 1;
nodes = (
(82,-118,l),
(247,-118,l),
(247,-72,l),
(132,-72,l),
(132,709,l),
(247,709,l),
(247,754,l),
(82,754,l)
);
}
);
width = 282;
}
);
note = bracketleft;
unicode = 91;
},
{
glyphname = backslash;
kernLeft = backslash;
kernRight = backslash;
layers = (
{
hints = (
{
horizontal = 1;
place = (0, 21);
target = up;
type = BottomGhost;
},
{
horizontal = 1;
place = (715, -20);
target = down;
type = TopGhost;
},
{
place = (16, 336);
place = (16, 336);
type = Stem;
}
);
layerId = m01;
shapes = (
{
closed = 1;
nodes = (
(300,0,l),
(352,0,l),
(68,715,l),
(16,715,l)
);
}
);
width = 368;
}
);
note = backslash;
unicode = 92;
},
{
glyphname = bracketright;
kernLeft = bracketright;
layers = (
{
hints = (
{
horizontal = 1;
place = (-118, 46);
place = (-118, 46);
type = Stem;
},
{
horizontal = 1;
place = (709, 45);
place = (709, 45);
type = Stem;
},
{
place = (150, 50);
place = (150, 50);
type = Stem;
}
);
layerId = m01;
shapes = (
{
closed = 1;
nodes = (
(200,754,l),
(35,754,l),
(35,709,l),
(150,709,l),
(150,-72,l),
(35,-72,l),
(35,-118,l),
(200,-118,l)
);
}
);
width = 282;
}
);
note = bracketright;
unicode = 93;
},
{
glyphname = asciicircum;
layers = (
{
hints = (
{
horizontal = 1;
place = (675, 40);
place = (675, 40);
type = Stem;
},
{
place = (12, 357);
place = (12, 357);
type = Stem;
}
);
layerId = m01;
shapes = (
{
closed = 1;
nodes = (
(65,458,l),
(189,675,l),
(191,675,l),
(316,458,l),
(369,458,l),
(219,715,l),
(162,715,l),
(12,458,l)
);
}
);
width = 381;
}
);
note = asciicircum;
unicode = 94;
},
{
glyphname = underscore;
layers = (
{
hints = (
{
horizontal = 1;
place = (-166, 41);
place = (-166, 41);
type = Stem;
},
{
place = (-2, 372);
place = (-2, 372);
type = Stem;
}
);
layerId = m01;
shapes = (
{
closed = 1;
nodes = (
(-2,-166,l),
(370,-166,l),
(370,-125,l),
(-2,-125,l)
);
}
);
width = 368;
}
);
note = underscore;
unicode = 95;
},
{
glyphname = grave;
layers = (
{
hints = (
{
horizontal = 1;
place = (588, 127);
place = (588, 127);
type = Stem;
},
{
place = (146, 145);
place = (146, 145);
type = Stem;
}
);
layerId = m01;
shapes = (
{
closed = 1;
nodes = (
(291,588,l),
(215,715,l),
(146,715,l),
(247,588,l)
);
}
);
width = 500;
}
);
note = grave;
unicode = 96;
},
{
glyphname = a;
kernLeft = a;
kernRight = a;
layers = (
{
hints = (
{
horizontal = 1;
place = (-8, 39);
place = (-8, 39);
type = Stem;
},
{
horizontal = 1;
place = (486, 42);
place = (486, 42);
type = Stem;
},
{
place = (23, 50);
place = (23, 50);
type = Stem;
},
{
place = (377, 49);
place = (377, 49);
type = Stem;
},
{
horizontal = 1;
place = (-13, 41);
place = (-13, 41);
type = Stem;
}
);
layerId = m01;
shapes = (
{
closed = 1;
nodes = (
(466,-8,o),
(478,-4,o),
(486,0,c),
(486,36,l),
(483,36,l),
(474,33,o),
(466,31,o),
(459,31,cs),
(441,31,o),
(426,39,o),
(426,67,cs),
(426,371,ls),
(426,477,o),
(362,528,o),
(247,528,cs),
(118,528,o),
(51,470,o),
(41,370,c),
(91,370,l),
(98,446,o),
(150,486,o),
(247,486,cs),
(331,486,o),
(377,452,o),
(377,374,cs),
(377,356,ls),
(377,308,o),
(349,302,o),
(227,290,cs),
(119,279,o),
(23,254,o),
(23,131,cs),
(23,36,o),
(93,-13,o),
(188,-13,cs),
(294,-13,o),
(346,39,o),
(375,80,c),
(378,80,l),
(378,62,ls),
(378,14,o),
(406,-8,o),
(446,-8,cs)
);
},
{
closed = 1;
nodes = (
(127,28,o),
(73,56,o),
(73,129,cs),
(73,227,o),
(142,239,o),
(233,249,cs),
(286,255,o),
(341,262,o),
(377,280,c),
(377,184,ls),
(377,106,o),
(310,28,o),
(193,28,cs)
);
}
);
width = 492;
}
);
note = a;
unicode = 97;
},
{
glyphname = b;
kernLeft = b;
kernRight = thorn;
layers = (
{
hints = (
{
horizontal = 1;
place = (-13, 41);
place = (-13, 41);
type = Stem;
},
{
horizontal = 1;
place = (486, 42);
place = (486, 42);
type = Stem;
},
{
horizontal = 1;
place = (715, -20);
target = down;
type = TopGhost;
},
{
place = (50, 49);
place = (50, 49);
type = Stem;
},
{
place = (441, 50);
place = (441, 50);
type = Stem;
},
{
horizontal = 1;
place = (0, 21);
target = up;
type = BottomGhost;
}
);
layerId = m01;
shapes = (
{
closed = 1;
nodes = (
(411,-13,o),
(491,103,o),
(491,257,cs),
(491,429,o),
(402,528,o),
(282,528,cs),
(195,528,o),
(136,483,o),
(101,418,c),
(99,418,l),
(99,715,l),
(50,715,l),
(50,0,l),
(99,0,l),
(99,85,l),
(101,85,l),
(140,22,o),
(192,-13,o),
(278,-13,cs)
);
},
{
closed = 1;
nodes = (
(159,28,o),
(94,119,o),
(94,256,cs),
(94,387,o),
(160,486,o),
(275,486,cs),
(381,486,o),
(441,394,o),
(441,256,cs),
(441,133,o),
(387,28,o),
(276,28,cs)
);
}
);
width = 516;
}
);
note = b;
unicode = 98;
},
{
glyphname = c;
kernLeft = c;
kernRight = c;
layers = (
{
hints = (
{
horizontal = 1;
place = (-13, 43);
place = (-13, 43);
type = Stem;
},
{
horizontal = 1;
place = (486, 42);
place = (486, 42);
type = Stem;
},
{
place = (25, 50);
place = (25, 50);
type = Stem;
}
);
layerId = m01;
shapes = (
{
closed = 1;
nodes = (
(369,-13,o),
(443,63,o),
(456,175,c),
(410,175,l),
(399,90,o),
(340,30,o),
(250,30,cs),
(127,30,o),
(75,134,o),
(75,258,cs),
(75,382,o),
(126,486,o),
(251,486,cs),
(332,486,o),
(385,450,o),
(402,368,c),
(450,368,l),
(434,472,o),
(359,528,o),
(251,528,cs),
(103,528,o),
(25,414,o),
(25,258,cs),
(25,102,o),
(101,-13,o),
(250,-13,cs)
);
}
);
width = 472;
}
);
note = c;
unicode = 99;
},
{
glyphname = d;
kernLeft = d;
layers = (
{
hints = (
{
horizontal = 1;
place = (-13, 41);
place = (-13, 41);
type = Stem;
},
{
horizontal = 1;
place = (486, 42);
place = (486, 42);
type = Stem;
},
{
horizontal = 1;
place = (715, -20);
target = down;
type = TopGhost;
},
{
place = (25, 50);
place = (25, 50);
type = Stem;
},
{
place = (419, 49);
place = (419, 49);
type = Stem;
},
{
horizontal = 1;
place = (0, 21);
target = up;
type = BottomGhost;
}
);
layerId = m01;
shapes = (
{
closed = 1;
nodes = (
(324,-13,o),
(379,22,o),
(417,86,c),
(419,86,l),
(419,0,l),
(468,0,l),
(468,715,l),
(419,715,l),
(419,423,l),
(417,423,l),
(384,489,o),
(325,528,o),
(242,528,cs),
(122,528,o),
(25,429,o),
(25,257,cs),
(25,103,o),
(105,-13,o),
(243,-13,cs)
);
},
{
closed = 1;
nodes = (
(129,28,o),
(75,132,o),
(75,256,cs),
(75,394,o),
(140,486,o),
(246,486,cs),
(361,486,o),
(424,387,o),
(424,256,cs),
(424,119,o),
(357,28,o),
(245,28,cs)
);
}
);
width = 518;
}
);
note = d;
unicode = 100;
},
{
glyphname = e;
kernLeft = c;
kernRight = e;
layers = (
{
hints = (
{
horizontal = 1;
place = (-13, 43);
place = (-13, 43);
type = Stem;
},
{
horizontal = 1;
place = (253, 40);
place = (253, 40);
type = Stem;
},
{
horizontal = 1;
place = (486, 42);
place = (486, 42);
type = Stem;
},
{
place = (25, 50);
place = (25, 50);
type = Stem;
},
{
place = (416, 50);
place = (416, 50);
type = Stem;
}
);
layerId = m01;
shapes = (
{
closed = 1;
nodes = (
(466,253,l),
(467,351,o),
(448,425,o),
(391,478,cs),
(357,510,o),
(311,528,o),
(255,528,cs),
(114,528,o),
(25,417,o),
(25,258,cs),
(25,99,o),
(107,-13,o),
(259,-13,cs),
(374,-13,o),
(442,58,o),
(463,154,c),
(416,154,l),
(395,84,o),
(352,30,o),
(259,30,cs),
(132,30,o),
(76,129,o),
(75,253,c)
);
},
{
closed = 1;
nodes = (
(76,293,l),
(86,402,o),
(143,486,o),
(255,486,cs),
(369,486,o),
(413,395,o),
(416,293,c)
);
}
);
width = 491;
}
);
note = e;
unicode = 101;
},
{
glyphname = f;
kernLeft = f;
kernRight = f;
layers = (
{
hints = (
{
horizontal = 1;
place = (0, 21);
target = up;
type = BottomGhost;
},
{
horizontal = 1;
place = (476, 41);
place = (476, 41);
type = Stem;
},
{
horizontal = 1;
place = (676, 43);
place = (676, 43);
type = Stem;
},
{
place = (89, 49);
place = (89, 49);
type = Stem;
}
);
layerId = m01;
shapes = (
{
closed = 1;
nodes = (
(12,476,l),
(89,476,l),
(89,0,l),
(138,0,l),
(138,476,l),
(234,476,l),
(234,517,l),
(138,517,l),
(138,614,ls),
(138,652,o),
(152,676,o),
(203,676,cs),
(231,676,l),
(231,719,l),
(200,719,ls),
(126,719,o),
(89,684,o),
(89,615,cs),
(89,517,l),
(12,517,l)
);
}
);
width = 252;
}
);
note = f;
unicode = 102;
},
{
glyphname = g;
kernLeft = g;
kernRight = g;
layers = (
{
hints = (
{
horizontal = 1;
place = (-187, 42);
place = (-187, 42);
type = Stem;
},
{
horizontal = 1;
place = (5, 41);
place = (5, 41);
type = Stem;
},
{
horizontal = 1;
place = (517, -20);
target = down;
type = TopGhost;
},
{
place = (51, 49);
place = (51, 49);
type = Stem;
},
{
place = (418, 49);
place = (418, 49);
type = Stem;
},
{
horizontal = 1;
place = (486, 42);
place = (486, 42);
type = Stem;
},
{
place = (25, 50);
place = (25, 50);
type = Stem;
}
);
layerId = m01;
shapes = (
{
closed = 1;
nodes = (
(324,-187,o),
(377,-166,o),
(416,-127,cs),
(449,-92,o),
(467,-44,o),
(467,15,cs),
(467,517,l),
(418,517,l),
(418,428,l),
(415,428,l),
(381,488,o),
(330,528,o),
(247,528,cs),
(127,528,o),
(25,436,o),
(25,264,cs),
(25,110,o),
(106,5,o),
(244,5,cs),
(325,5,o),
(377,38,o),
(415,102,c),
(418,102,l),
(418,14,ls),
(418,-78,o),
(368,-145,o),
(248,-145,cs),
(175,-145,o),
(114,-119,o),
(100,-57,c),
(51,-57,l),
(59,-127,o),
(127,-187,o),
(250,-187,cs)
);
},
{
closed = 1;
nodes = (
(129,46,o),
(75,141,o),
(75,263,cs),
(75,398,o),
(143,486,o),
(249,486,cs),
(364,486,o),
(422,391,o),
(422,263,cs),
(422,129,o),
(358,46,o),
(246,46,cs)
);
}
);
width = 517;
}
);
note = g;
unicode = 103;
},
{
glyphname = h;
kernLeft = b;
kernRight = h;
layers = (
{
hints = (
{
horizontal = 1;
place = (0, 21);
target = up;
type = BottomGhost;
},
{
horizontal = 1;
place = (485, 42);
place = (485, 42);
type = Stem;
},
{
horizontal = 1;
place = (715, -20);
target = down;
type = TopGhost;
},
{
place = (55, 49);
place = (55, 49);
type = Stem;
},
{
place = (395, 49);
place = (395, 49);
type = Stem;
}
);
layerId = m01;
shapes = (
{
closed = 1;
nodes = (
(104,715,l),
(55,715,l),
(55,0,l),
(104,0,l),
(104,334,ls),
(104,420,o),
(185,485,o),
(277,485,cs),
(349,485,o),
(395,449,o),
(395,364,cs),
(395,0,l),
(444,0,l),
(444,369,ls),
(444,472,o),
(374,527,o),
(286,527,cs),
(198,527,o),
(140,485,o),
(106,430,c),
(104,430,l)
);
}
);
width = 490;
}
);
note = h;
unicode = 104;
},
{
glyphname = i;
kernLeft = b;
layers = (
{
hints = (
{
horizontal = 1;
place = (0, 21);
target = up;
type = BottomGhost;
},
{
horizontal = 1;
place = (517, -20);
target = down;
type = TopGhost;
},
{
horizontal = 1;
place = (635, 80);
place = (635, 80);
type = Stem;
},
{
place = (53, 49);
place = (53, 49);
type = Stem;
}
);
layerId = m01;
shapes = (
{
closed = 1;
nodes = (
(53,0,l),
(102,0,l),
(102,517,l),
(53,517,l)
);
},
{
closed = 1;
nodes = (
(53,635,l),
(102,635,l),
(102,715,l),
(53,715,l)
);
}
);
width = 155;
}
);
note = i;
unicode = 105;
},
{
glyphname = j;
kernLeft = j;
kernRight = j;
layers = (
{
hints = (
{
horizontal = 1;
place = (-166, 42);
place = (-166, 42);
type = Stem;
},
{
horizontal = 1;
place = (517, -20);
target = down;
type = TopGhost;
},
{
horizontal = 1;
place = (635, 80);
place = (635, 80);
type = Stem;
},
{
place = (53, 49);
place = (53, 49);
type = Stem;
}
);
layerId = m01;
shapes = (
{
closed = 1;
nodes = (
(-15,-166,l),
(-2,-166,ls),
(67,-166,o),
(102,-136,o),
(102,-60,cs),
(102,517,l),
(53,517,l),
(53,-59,ls),
(53,-105,o),
(35,-124,o),
(-5,-124,cs),
(-15,-124,l)
);
},
{
closed = 1;
nodes = (
(53,635,l),
(102,635,l),
(102,715,l),
(53,715,l)
);
}
);
width = 155;
}
);
note = j;
unicode = 106;
},
{
glyphname = k;
kernLeft = b;
kernRight = k;
layers = (
{
hints = (
{
horizontal = 1;
place = (0, 21);
target = up;
type = BottomGhost;
},
{
horizontal = 1;
place = (517, -20);
target = down;
type = TopGhost;
},
{
horizontal = 1;
place = (715, -20);
target = down;
type = TopGhost;
},
{
place = (50, 49);
place = (50, 49);
type = Stem;
}
);
layerId = m01;
shapes = (
{
closed = 1;
nodes = (
(407,0,l),
(463,0,l),
(242,330,l),
(439,517,l),
(377,517,l),
(99,250,l),
(99,715,l),
(50,715,l),
(50,0,l),
(99,0,l),
(99,193,l),
(207,297,l)
);
}
);
width = 467;
}
);
note = k;
unicode = 107;
},
{
glyphname = l;
kernLeft = b;
layers = (
{
hints = (
{
horizontal = 1;
place = (0, 21);
target = up;
type = BottomGhost;
},
{
horizontal = 1;
place = (715, -20);
target = down;
type = TopGhost;
},
{
place = (53, 49);
place = (53, 49);
type = Stem;
}
);
layerId = m01;
shapes = (
{
closed = 1;
nodes = (
(53,0,l),
(102,0,l),
(102,715,l),
(53,715,l)
);
}
);
width = 155;
}
);
note = l;
unicode = 108;
},
{
glyphname = m;
kernLeft = m;
kernRight = h;
layers = (
{
hints = (
{
horizontal = 1;
place = (0, 21);
target = up;
type = BottomGhost;
},
{
horizontal = 1;
place = (485, 42);
place = (485, 42);
type = Stem;
},
{
place = (50, 49);
place = (50, 49);
type = Stem;
},
{
place = (366, 49);
place = (366, 49);
type = Stem;
},
{
place = (682, 49);
place = (682, 49);
type = Stem;
},
{
horizontal = 1;
place = (517, -20);
target = down;
type = TopGhost;
}
);
layerId = m01;
shapes = (
{
closed = 1;
nodes = (
(50,0,l),
(99,0,l),
(99,334,ls),
(99,420,o),
(171,485,o),
(252,485,cs),
(317,485,o),
(366,449,o),
(366,364,cs),
(366,0,l),
(415,0,l),
(415,334,ls),
(415,433,o),
(483,485,o),
(564,485,cs),
(635,485,o),
(682,449,o),
(682,364,cs),
(682,0,l),
(731,0,l),
(731,369,ls),
(731,472,o),
(661,527,o),
(575,527,cs),
(495,527,o),
(438,491,o),
(404,432,c),
(401,432,l),
(381,495,o),
(325,527,o),
(261,527,cs),
(181,527,o),
(135,489,o),
(101,436,c),
(99,436,l),
(99,517,l),
(50,517,l)
);
}
);
width = 777;
}
);
note = m;
unicode = 109;
},
{
glyphname = n;
kernLeft = m;
kernRight = h;
layers = (
{
hints = (
{
horizontal = 1;
place = (0, 21);
target = up;
type = BottomGhost;
},
{
horizontal = 1;
place = (517, -20);
target = down;
type = TopGhost;
},
{
place = (50, 49);
place = (50, 49);
type = Stem;
},
{
place = (390, 49);
place = (390, 49);
type = Stem;
},
{
horizontal = 1;
place = (485, 42);
place = (485, 42);
type = Stem;
}
);
layerId = m01;
shapes = (
{
closed = 1;
nodes = (
(99,517,l),
(50,517,l),
(50,0,l),
(99,0,l),
(99,334,ls),
(99,420,o),
(180,485,o),
(272,485,cs),
(344,485,o),
(390,449,o),
(390,364,cs),
(390,0,l),
(439,0,l),
(439,369,ls),
(439,472,o),
(369,527,o),
(281,527,cs),
(193,527,o),
(135,485,o),
(101,430,c),
(99,430,l)
);
}
);
width = 485;
}
);
note = n;
unicode = 110;
},
{
glyphname = o;
kernLeft = c;
kernRight = o;
layers = (
{
hints = (
{
horizontal = 1;
place = (-13, 42);
place = (-13, 42);
type = Stem;
},
{
horizontal = 1;
place = (487, 41);
place = (487, 41);
type = Stem;
},
{
place = (25, 50);
place = (25, 50);
type = Stem;
},
{
place = (439, 50);
place = (439, 50);
type = Stem;
}
);
layerId = m01;
shapes = (
{
closed = 1;
nodes = (
(403,-13,o),
(489,102,o),
(489,258,cs),
(489,414,o),
(403,528,o),
(257,528,cs),
(112,528,o),
(25,414,o),
(25,258,cs),
(25,102,o),
(112,-13,o),
(257,-13,cs)
);
},
{
closed = 1;
nodes = (
(138,29,o),
(75,132,o),
(75,258,cs),
(75,384,o),
(138,487,o),
(257,487,cs),
(376,487,o),
(439,384,o),
(439,258,cs),
(439,132,o),
(376,29,o),
(257,29,cs)
);
}
);
width = 514;
}
);
note = o;
unicode = 111;
},
{
glyphname = p;
kernLeft = p;
kernRight = thorn;
layers = (
{
hints = (
{
horizontal = 1;
place = (-166, 21);
target = up;
type = BottomGhost;
},
{
horizontal = 1;
place = (-11, 41);
place = (-11, 41);
type = Stem;
},
{
horizontal = 1;
place = (486, 42);
place = (486, 42);
type = Stem;
},
{
place = (50, 49);
place = (50, 49);
type = Stem;
},
{
place = (441, 50);
place = (441, 50);
type = Stem;
},
{
horizontal = 1;
place = (517, -20);
target = down;
type = TopGhost;
}
);
layerId = m01;
shapes = (
{
closed = 1;
nodes = (
(50,-166,l),
(99,-166,l),
(99,85,l),
(101,85,l),
(138,26,o),
(192,-11,o),
(278,-11,cs),
(411,-11,o),
(491,105,o),
(491,259,cs),
(491,431,o),
(402,528,o),
(282,528,cs),
(195,528,o),
(136,484,o),
(101,418,c),
(99,418,l),
(99,517,l),
(50,517,l)
);
},
{
closed = 1;
nodes = (
(159,30,o),
(94,119,o),
(94,256,cs),
(94,387,o),
(160,486,o),
(275,486,cs),
(381,486,o),
(441,396,o),
(441,258,cs),
(441,135,o),
(387,30,o),
(276,30,cs)
);
}
);
width = 516;
}
);
note = p;
unicode = 112;
},
{
glyphname = q;
kernLeft = d;
kernRight = q;
layers = (
{
hints = (
{
horizontal = 1;
place = (-166, 21);
target = up;
type = BottomGhost;
},
{
horizontal = 1;
place = (-11, 41);
place = (-11, 41);
type = Stem;
},
{
horizontal = 1;
place = (486, 42);
place = (486, 42);
type = Stem;
},
{
place = (25, 50);
place = (25, 50);
type = Stem;
},
{
place = (419, 49);
place = (419, 49);
type = Stem;
},
{
horizontal = 1;
place = (517, -20);
target = down;
type = TopGhost;
}
);
layerId = m01;
shapes = (
{
closed = 1;
nodes = (
(419,-166,l),
(468,-166,l),
(468,517,l),
(419,517,l),
(419,427,l),
(417,427,l),
(383,488,o),
(328,528,o),
(245,528,cs),
(125,528,o),
(25,429,o),
(25,257,cs),
(25,103,o),
(104,-11,o),
(242,-11,cs),
(323,-11,o),
(379,23,o),
(417,86,c),
(419,86,l)
);
},
{
closed = 1;
nodes = (
(127,30,o),
(75,132,o),
(75,256,cs),
(75,394,o),
(141,486,o),
(247,486,cs),
(362,486,o),
(424,387,o),
(424,256,cs),
(424,119,o),
(356,30,o),
(244,30,cs)
);
}
);
width = 518;
}
);
note = q;
unicode = 113;
},
{
glyphname = r;
kernLeft = m;
kernRight = r;
layers = (
{
hints = (
{
horizontal = 1;
place = (0, 21);
target = up;
type = BottomGhost;
},
{
horizontal = 1;
place = (517, -20);
target = down;
type = TopGhost;
},
{
place = (50, 49);
place = (50, 49);
type = Stem;
},
{
horizontal = 1;
place = (471, 49);
place = (471, 49);
type = Stem;
}
);
layerId = m01;
shapes = (
{
closed = 1;
nodes = (
(99,517,l),
(50,517,l),
(50,0,l),
(99,0,l),
(99,299,ls),
(99,375,o),
(141,434,o),
(196,459,cs),
(217,468,o),
(240,472,o),
(269,471,c),
(269,520,l),
(231,520,o),
(205,515,o),
(174,497,cs),
(143,479,o),
(119,451,o),
(101,415,c),
(99,415,l)
);
}
);
width = 285;
}
);
note = r;
unicode = 114;
},
{
glyphname = s;
kernLeft = scaron;
kernRight = scaron;
layers = (
{
hints = (
{
horizontal = 1;
place = (-13, 42);
place = (-13, 42);
type = Stem;
},
{
horizontal = 1;
place = (485, 43);
place = (485, 43);
type = Stem;
},
{
place = (34, 49);
place = (34, 49);
type = Stem;
},
{
place = (360, 49);
place = (360, 49);
type = Stem;
}
);
layerId = m01;
shapes = (
{
closed = 1;
nodes = (
(342,-13,o),
(409,55,o),
(409,139,cs),
(409,237,o),
(341,265,o),
(237,289,cs),
(131,314,o),
(83,331,o),
(83,391,cs),
(83,445,o),
(126,485,o),
(210,485,cs),
(288,485,o),
(339,447,o),
(346,381,c),
(394,381,l),
(382,465,o),
(329,528,o),
(210,528,cs),
(112,528,o),
(34,476,o),
(34,390,cs),
(34,298,o),
(113,270,o),
(219,245,cs),
(333,218,o),
(360,196,o),
(360,140,cs),
(360,72,o),
(308,29,o),
(221,29,cs),
(135,29,o),
(74,71,o),
(67,156,c),
(17,156,l),
(22,67,o),
(86,-13,o),
(221,-13,cs)
);
}
);
width = 433;
}
);
note = s;
unicode = 115;
},
{
glyphname = t;
kernLeft = t;
kernRight = t;
layers = (
{
hints = (
{
horizontal = 1;
place = (-4, 42);
place = (-4, 42);
type = Stem;
},
{
horizontal = 1;
place = (476, 41);
place = (476, 41);
type = Stem;
},
{
place = (94, 49);
place = (94, 49);
type = Stem;
}
);
layerId = m01;
shapes = (
{
closed = 1;
nodes = (
(14,476,l),
(94,476,l),
(94,84,ls),
(94,23,o),
(129,-4,o),
(182,-4,cs),
(203,-4,o),
(218,-1,o),
(234,5,c),
(234,47,l),
(231,47,l),
(222,42,o),
(205,38,o),
(192,38,cs),
(158,38,o),
(143,50,o),
(143,88,cs),
(143,476,l),
(237,476,l),
(237,517,l),
(143,517,l),
(143,673,l),
(94,673,l),
(94,517,l),
(14,517,l)
);
}
);
width = 266;
}
);
note = t;
unicode = 116;
},
{
glyphname = u;
kernLeft = u;
kernRight = u;
layers = (
{
hints = (
{
horizontal = 1;
place = (0, 21);
target = up;
type = BottomGhost;
},
{
horizontal = 1;
place = (517, -20);
target = down;
type = TopGhost;
},
{
place = (46, 49);
place = (46, 49);
type = Stem;
},
{
place = (380, 49);
place = (380, 49);
type = Stem;
},
{
horizontal = 1;
place = (-12, 42);
place = (-12, 42);
type = Stem;
}
);
layerId = m01;
shapes = (
{
closed = 1;
nodes = (
(429,0,l),
(429,517,l),
(380,517,l),
(380,190,ls),
(380,99,o),
(312,30,o),
(221,30,cs),
(144,30,o),
(95,68,o),
(95,153,cs),
(95,517,l),
(46,517,l),
(46,148,ls),
(46,45,o),
(117,-12,o),
(212,-12,cs),
(299,-12,o),
(344,29,o),
(378,79,c),
(380,79,l),
(380,0,l)
);
}
);
width = 479;
}
);
note = u;
unicode = 117;
},
{
glyphname = v;
kernLeft = v;
kernRight = v;
layers = (
{
hints = (
{
horizontal = 1;
place = (0, 44);
place = (0, 44);
type = Stem;
},
{
horizontal = 1;
place = (517, -20);
target = down;
type = TopGhost;
},
{
place = (9, 434);
place = (9, 434);
type = Stem;
}
);
layerId = m01;
shapes = (
{
closed = 1;
nodes = (
(193,0,l),
(254,0,l),
(443,517,l),
(393,517,l),
(273,189,ls),
(254,136,o),
(224,44,o),
(224,44,c),
(222,44,l),
(222,44,o),
(193,136,o),
(175,189,cs),
(61,517,l),
(9,517,l)
);
}
);
width = 452;
}
);
note = v;
unicode = 118;
},
{
glyphname = w;
kernLeft = w;
kernRight = w;
layers = (
{
hints = (
{
horizontal = 1;
place = (0, 45);
place = (0, 45);
type = Stem;
},
{
horizontal = 1;
place = (517, -20);
target = down;
type = TopGhost;
},
{
place = (14, 667);
place = (14, 667);
type = Stem;
},
{
horizontal = 1;
place = (465, 52);
place = (465, 52);
type = Stem;
}
);
layerId = m01;
shapes = (
{
closed = 1;
nodes = (
(161,0,l),
(222,0,l),
(315,342,ls),
(329,395,o),
(344,465,o),
(344,465,c),
(346,465,l),
(346,465,o),
(360,395,o),
(374,342,cs),
(464,0,l),
(523,0,l),
(681,517,l),
(632,517,l),
(537,197,ls),
(521,141,o),
(496,45,o),
(496,45,c),
(494,45,l),
(494,45,o),
(472,139,o),
(459,190,cs),
(373,517,l),
(318,517,l),
(229,190,ls),
(215,138,o),
(192,45,o),
(192,45,c),
(190,45,l),
(190,45,o),
(169,140,o),
(153,197,cs),
(65,517,l),
(14,517,l)
);
}
);
width = 695;
}
);
note = w;
unicode = 119;
},
{
glyphname = x;
kernLeft = x;
kernRight = x;
layers = (
{
hints = (
{
horizontal = 1;
place = (0, 21);
target = up;
type = BottomGhost;
},
{
horizontal = 1;
place = (517, -20);
target = down;
type = TopGhost;
},
{
place = (9, 448);
place = (9, 448);
type = Stem;
}
);
layerId = m01;
shapes = (
{
closed = 1;
nodes = (
(9,0,l),
(66,0,l),
(231,241,l),
(233,241,l),
(399,0,l),
(457,0,l),
(262,276,l),
(428,517,l),
(371,517,l),
(232,310,l),
(230,310,l),
(87,517,l),
(29,517,l),
(202,275,l)
);
}
);
width = 466;
}
);
note = x;
unicode = 120;
},
{
glyphname = y;
kernLeft = yacute;
kernRight = yacute;
layers = (
{
hints = (
{
horizontal = 1;
place = (-171, 45);
place = (-171, 45);
type = Stem;
},
{
horizontal = 1;
place = (517, -20);
target = down;
type = TopGhost;
},
{
place = (10, 436);
place = (10, 436);
type = Stem;
},
{
horizontal = 1;
place = (-165, 21);
target = up;
type = BottomGhost;
}
);
layerId = m01;
shapes = (
{
closed = 1;
nodes = (
(166,-171,o),
(208,-146,o),
(238,-62,cs),
(446,517,l),
(396,517,l),
(276,175,ls),
(258,123,o),
(234,46,o),
(234,46,c),
(232,46,l),
(232,46,o),
(206,124,o),
(187,175,cs),
(61,517,l),
(10,517,l),
(208,-8,l),
(193,-51,ls),
(174,-106,o),
(143,-126,o),
(100,-126,cs),
(78,-126,o),
(67,-123,o),
(59,-121,c),
(57,-121,l),
(57,-165,l),
(68,-168,o),
(78,-171,o),
(96,-171,cs)
);
}
);
width = 455;
}
);
note = y;
unicode = 121;
},
{
glyphname = z;
kernLeft = zcaron;
kernRight = zcaron;
layers = (
{
hints = (
{
horizontal = 1;
place = (0, 43);
place = (0, 43);
type = Stem;
},
{
horizontal = 1;
place = (474, 43);
place = (474, 43);
type = Stem;
},
{
place = (24, 59);
place = (24, 59);
type = Stem;
},
{
place = (336, 62);
place = (336, 62);
type = Stem;
}
);
layerId = m01;
shapes = (
{
closed = 1;
nodes = (
(24,0,l),
(406,0,l),
(406,43,l),
(83,43,l),
(83,46,l),
(398,476,l),
(398,517,l),
(46,517,l),
(46,474,l),
(336,474,l),
(336,471,l),
(24,45,l)
);
}
);
width = 431;
}
);
note = z;
unicode = 122;
},
{
glyphname = braceleft;
kernRight = bracketleft;
layers = (
{
hints = (
{
horizontal = 1;
place = (-118, 46);
place = (-118, 46);
type = Stem;
},
{
horizontal = 1;
place = (709, 45);
place = (709, 45);
type = Stem;
},
{
place = (93, 50);
place = (93, 50);
type = Stem;
},
{
place = (24, 63);
place = (24, 63);
type = Stem;
}
);
layerId = m01;
shapes = (
{
closed = 1;
nodes = (
(232,-118,l),
(232,-72,l),
(216,-72,ls),
(165,-72,o),
(143,-52,o),
(143,7,cs),
(143,232,ls),
(143,284,o),
(126,310,o),
(87,321,c),
(87,323,l),
(126,334,o),
(143,360,o),
(143,412,cs),
(143,629,ls),
(143,688,o),
(165,709,o),
(216,709,cs),
(232,709,l),
(232,754,l),
(214,754,ls),
(136,754,o),
(93,716,o),
(93,630,cs),
(93,416,ls),
(93,370,o),
(77,346,o),
(24,345,c),
(24,299,l),
(77,298,o),
(93,274,o),
(93,228,cs),
(93,6,ls),
(93,-80,o),
(136,-118,o),
(214,-118,cs)
);
}
);
width = 282;
}
);
note = braceleft;
unicode = 123;
},
{
glyphname = bar;
layers = (
{
hints = (
{
horizontal = 1;
place = (-118, 872);
place = (-118, 872);
type = Stem;
},
{
place = (77, 47);
place = (77, 47);
type = Stem;
}
);
layerId = m01;
shapes = (
{
closed = 1;
nodes = (
(77,-118,l),
(124,-118,l),
(124,754,l),
(77,754,l)
);
}
);
width = 201;
}
);
note = bar;
unicode = 124;
},
{
glyphname = braceright;
kernLeft = bracketright;
layers = (
{
hints = (
{
horizontal = 1;
place = (-118, 46);
place = (-118, 46);
type = Stem;
},
{
horizontal = 1;
place = (709, 45);
place = (709, 45);
type = Stem;
},
{
place = (139, 50);
place = (139, 50);
type = Stem;
},
{
place = (195, 63);
place = (195, 63);
type = Stem;
}
);
layerId = m01;
shapes = (
{
closed = 1;
nodes = (
(68,-118,ls),
(146,-118,o),
(189,-80,o),
(189,6,cs),
(189,228,ls),
(189,274,o),
(205,298,o),
(258,299,c),
(258,345,l),
(205,346,o),
(189,370,o),
(189,416,cs),
(189,630,ls),
(189,716,o),
(146,754,o),
(68,754,cs),
(50,754,l),
(50,709,l),
(66,709,ls),
(117,709,o),
(139,688,o),
(139,629,cs),
(139,412,ls),
(139,360,o),
(156,334,o),
(195,323,c),
(195,321,l),
(156,310,o),
(139,284,o),
(139,232,cs),
(139,7,ls),
(139,-52,o),
(117,-72,o),
(66,-72,cs),
(50,-72,l),
(50,-118,l)
);
}
);
width = 282;
}
);
note = braceright;
unicode = 125;
},
{
glyphname = asciitilde;
layers = (
{
hints = (
{
horizontal = 1;
place = (287, 46);
place = (287, 46);
type = Stem;
},
{
place = (38, 45);
place = (38, 45);
type = Stem;
},
{
place = (296, 45);
place = (296, 45);
type = Stem;
},
{
horizontal = 1;
place = (340, 46);
place = (340, 46);
type = Stem;
}
);
layerId = m01;
shapes = (
{
closed = 1;
nodes = (
(301,287,o),
(337,320,o),
(341,384,c),
(296,384,l),
(294,350,o),
(275,333,o),
(254,333,cs),
(238,333,o),
(226,340,o),
(201,356,cs),
(178,371,o),
(152,386,o),
(124,386,cs),
(78,386,o),
(43,354,o),
(38,288,c),
(83,288,l),
(85,322,o),
(102,340,o),
(123,340,cs),
(140,340,o),
(161,326,o),
(184,312,cs),
(206,299,o),
(230,287,o),
(255,287,cs)
);
}
);
width = 379;
}
);
note = asciitilde;
unicode = 126;
},
{
glyphname = Adieresis;
kernLeft = A;
kernRight = A;
layers = (
{
hints = (
{
horizontal = 1;
place = (0, 21);
target = up;
type = BottomGhost;
},
{
horizontal = 1;
place = (229, 44);
place = (229, 44);
type = Stem;
},
{
horizontal = 1;
place = (715, -20);
target = down;
type = TopGhost;
},
{
horizontal = 1;
place = (755, 80);
place = (755, 80);
type = Stem;
},
{
place = (212, 49);
place = (212, 49);
type = Stem;
},
{
place = (363, 49);
place = (363, 49);
type = Stem;
},
{
horizontal = 1;
place = (663, 52);
place = (663, 52);
type = Stem;
}
);
layerId = m01;
shapes = (
{
closed = 1;
nodes = (
(6,0,l),
(59,0,l),
(147,229,l),
(476,229,l),
(564,0,l),
(618,0,l),
(341,715,l),
(282,715,l)
);
},
{
closed = 1;
nodes = (
(273,557,ls),
(290,602,o),
(310,663,o),
(310,663,c),
(312,663,l),
(312,663,o),
(335,598,o),
(351,557,cs),
(459,273,l),
(164,273,l)
);
},
{
closed = 1;
nodes = (
(212,755,l),
(261,755,l),
(261,835,l),
(212,835,l)
);
},
{
closed = 1;
nodes = (
(363,755,l),
(412,755,l),
(412,835,l),
(363,835,l)
);
}
);
width = 624;
}
);
note = Adieresis;
unicode = 196;
},
{
glyphname = Aring;
kernLeft = A;
kernRight = A;
layers = (
{
hints = (
{
horizontal = 1;
place = (0, 21);
target = up;
type = BottomGhost;
},
{
horizontal = 1;
place = (229, 44);
place = (229, 44);
type = Stem;
},
{
horizontal = 1;
place = (715, -20);
target = down;
type = TopGhost;
},
{
horizontal = 1;
place = (879, 33);
place = (879, 33);
type = Stem;
},
{
place = (225, 38);
place = (225, 38);
type = Stem;
},
{
place = (361, 38);
place = (361, 38);
type = Stem;
},
{
horizontal = 1;
place = (663, 52);
place = (663, 52);
type = Stem;
},
{
horizontal = 1;
place = (742, 33);
place = (742, 33);
type = Stem;
}
);
layerId = m01;
shapes = (
{
closed = 1;
nodes = (
(6,0,l),
(59,0,l),
(147,229,l),
(476,229,l),
(564,0,l),
(618,0,l),
(341,715,l),
(282,715,l)
);
},
{
closed = 1;
nodes = (
(273,557,ls),
(290,602,o),
(310,663,o),
(310,663,c),
(312,663,l),
(312,663,o),
(335,598,o),
(351,557,cs),
(459,273,l),
(164,273,l)
);
},
{
closed = 1;
nodes = (
(360,742,o),
(399,780,o),
(399,827,cs),
(399,874,o),
(360,912,o),
(312,912,cs),
(264,912,o),
(225,874,o),
(225,827,cs),
(225,780,o),
(264,742,o),
(312,742,cs)
);
},
{
closed = 1;
nodes = (
(283,775,o),
(263,798,o),
(263,827,cs),
(263,856,o),
(283,879,o),
(312,879,cs),
(341,879,o),
(361,856,o),
(361,827,cs),
(361,798,o),
(341,775,o),
(312,775,cs)
);
}
);
width = 624;
}
);
note = Aring;
unicode = 197;
},
{
glyphname = Ccedilla;
kernLeft = C;
kernRight = C;
layers = (
{
hints = (
{
horizontal = 1;
place = (-184, 34);
place = (-184, 34);
type = Stem;
},
{
horizontal = 1;
place = (-84, 32);
place = (-84, 32);
type = Stem;
},
{
horizontal = 1;
place = (-12, 45);
place = (-12, 45);
type = Stem;
},
{
horizontal = 1;
place = (684, 45);
place = (684, 45);
type = Stem;
},
{
place = (34, 54);
place = (34, 54);
type = Stem;
},
{
place = (363, 48);
place = (363, 48);
type = Stem;
},
{
place = (581, 49);
place = (581, 49);
type = Stem;
},
{
horizontal = 1;
place = (-184, 21);
target = up;
type = BottomGhost;
}
);
layerId = m01;
shapes = (
{
closed = 1;
nodes = (
(371,-184,o),
(411,-159,o),
(411,-113,cs),
(411,-72,o),
(377,-50,o),
(331,-52,c),
(331,-50,l),
(373,-12,l),
(452,-6,o),
(519,27,o),
(564,81,cs),
(602,126,o),
(624,189,o),
(630,259,c),
(581,259,l),
(568,132,o),
(487,33,o),
(346,33,cs),
(172,33,o),
(88,175,o),
(88,356,cs),
(88,537,o),
(173,684,o),
(349,684,cs),
(468,684,o),
(544,616,o),
(564,519,c),
(616,519,l),
(588,653,o),
(490,729,o),
(349,729,cs),
(154,729,o),
(34,576,o),
(34,356,cs),
(34,143,o),
(143,-3,o),
(326,-12,c),
(268,-69,l),
(281,-91,l),
(291,-88,o),
(303,-84,o),
(320,-84,cs),
(346,-84,o),
(363,-91,o),
(363,-113,cs),
(363,-135,o),
(343,-150,o),
(306,-150,cs),
(281,-150,o),
(261,-145,o),
(239,-137,c),
(226,-162,l),
(247,-174,o),
(276,-184,o),
(315,-184,cs)
);
}
);
width = 656;
}
);
note = Ccedilla;
unicode = 199;
},
{
glyphname = Eacute;
kernRight = E;
layers = (
{
hints = (
{
horizontal = 1;
place = (0, 48);
place = (0, 48);
type = Stem;
},
{
horizontal = 1;
place = (346, 45);
place = (346, 45);
type = Stem;
},
{
horizontal = 1;
place = (669, 46);
place = (669, 46);
type = Stem;
},
{
place = (62, 52);
place = (62, 52);
type = Stem;
},
{
horizontal = 1;
place = (669, 194);
place = (669, 194);
type = Stem;
}
);
layerId = m01;
shapes = (
{
closed = 1;
nodes = (
(62,0,l),
(546,0,l),
(546,48,l),
(114,48,l),
(114,346,l),
(502,346,l),
(502,391,l),
(114,391,l),
(114,669,l),
(536,669,l),
(536,715,l),
(62,715,l)
);
},
{
closed = 1;
nodes = (
(279,753,l),
(323,753,l),
(424,863,l),
(355,863,l)
);
}
);
width = 582;
}
);
note = Eacute;
unicode = 201;
},
{
glyphname = Ntilde;
layers = (
{
hints = (
{
horizontal = 1;
place = (0, 21);
target = up;
type = BottomGhost;
},
{
horizontal = 1;
place = (715, -20);
target = down;
type = TopGhost;
},
{
horizontal = 1;
place = (760, 43);
place = (760, 43);
type = Stem;
},
{
place = (62, 50);
place = (62, 50);
type = Stem;
},
{
place = (537, 50);
place = (537, 50);
type = Stem;
},
{
horizontal = 1;
place = (637, 78);
place = (637, 78);
type = Stem;
},
{
horizontal = 1;
place = (0, 75);
place = (0, 75);
type = Stem;
},
{
place = (432, 42);
place = (432, 42);
type = Stem;
},
{
horizontal = 1;
place = (803, 43);
place = (803, 43);
type = Stem;
},
{
place = (211, 42);
place = (211, 42);
type = Stem;
}
);
layerId = m01;
shapes = (
{
closed = 1;
nodes = (
(62,0,l),
(112,0,l),
(112,637,l),
(114,637,l),
(114,637,o),
(164,554,o),
(204,494,cs),
(532,0,l),
(587,0,l),
(587,715,l),
(537,715,l),
(537,75,l),
(535,75,l),
(535,75,o),
(495,145,o),
(452,210,cs),
(120,715,l),
(62,715,l)
);
},
{
closed = 1;
nodes = (
(440,760,o),
(470,789,o),
(474,844,c),
(432,844,l),
(430,818,o),
(416,803,o),
(399,803,cs),
(370,803,o),
(326,846,o),
(284,846,cs),
(245,846,o),
(216,819,o),
(211,762,c),
(253,762,l),
(255,788,o),
(270,803,o),
(284,803,cs),
(313,803,o),
(360,760,o),
(401,760,cs)
);
}
);
width = 649;
}
);
note = Ntilde;
unicode = 209;
},
{
glyphname = Odieresis;
kernLeft = C;
kernRight = O;
layers = (
{
hints = (
{
horizontal = 1;
place = (-13, 47);
place = (-13, 47);
type = Stem;
},
{
horizontal = 1;
place = (682, 47);
place = (682, 47);
type = Stem;
},
{
place = (34, 54);
place = (34, 54);
type = Stem;
},
{
place = (255, 49);
place = (255, 49);
type = Stem;
},
{
place = (406, 49);
place = (406, 49);
type = Stem;
},
{
place = (622, 54);
place = (622, 54);
type = Stem;
},
{
horizontal = 1;
place = (755, 80);
place = (755, 80);
type = Stem;
}
);
layerId = m01;
shapes = (
{
closed = 1;
nodes = (
(548,-13,o),
(676,146,o),
(676,358,cs),
(676,570,o),
(548,729,o),
(354,729,cs),
(160,729,o),
(34,570,o),
(34,358,cs),
(34,146,o),
(160,-13,o),
(354,-13,cs)
);
},
{
closed = 1;
nodes = (
(180,34,o),
(88,181,o),
(88,358,cs),
(88,535,o),
(180,682,o),
(354,682,cs),
(528,682,o),
(622,535,o),
(622,358,cs),
(622,181,o),
(528,34,o),
(354,34,cs)
);
},
{
closed = 1;
nodes = (
(255,755,l),
(304,755,l),
(304,835,l),
(255,835,l)
);
},
{
closed = 1;
nodes = (
(406,755,l),
(455,755,l),
(455,835,l),
(406,835,l)
);
}
);
width = 710;
}
);
note = Odieresis;
unicode = 214;
},
{
glyphname = Udieresis;
kernLeft = U;
kernRight = U;
layers = (
{
hints = (
{
horizontal = 1;
place = (-11, 46);
place = (-11, 46);
type = Stem;
},
{
horizontal = 1;
place = (715, -20);
target = down;
type = TopGhost;
},
{
horizontal = 1;
place = (755, 80);
place = (755, 80);
type = Stem;
},
{
place = (56, 52);
place = (56, 52);
type = Stem;
},
{
place = (211, 49);
place = (211, 49);
type = Stem;
},
{
place = (362, 49);
place = (362, 49);
type = Stem;
},
{
place = (514, 52);
place = (514, 52);
type = Stem;
}
);
layerId = m01;
shapes = (
{
closed = 1;
nodes = (
(463,-11,o),
(566,63,o),
(566,225,cs),
(566,715,l),
(514,715,l),
(514,229,ls),
(514,89,o),
(434,35,o),
(311,35,cs),
(181,35,o),
(108,89,o),
(108,229,cs),
(108,715,l),
(56,715,l),
(56,225,ls),
(56,67,o),
(152,-11,o),
(308,-11,cs)
);
},
{
closed = 1;
nodes = (
(211,755,l),
(260,755,l),
(260,835,l),
(211,835,l)
);
},
{
closed = 1;
nodes = (
(362,755,l),
(411,755,l),
(411,835,l),
(362,835,l)
);
}
);
width = 622;
}
);
note = Udieresis;
unicode = 220;
},
{
glyphname = aacute;
kernLeft = a;
kernRight = a;
layers = (
{
hints = (
{
horizontal = 1;
place = (-8, 39);
place = (-8, 39);
type = Stem;
},
{
horizontal = 1;
place = (486, 42);
place = (486, 42);
type = Stem;
},
{
horizontal = 1;
place = (588, 127);
place = (588, 127);
type = Stem;
},
{
place = (23, 50);
place = (23, 50);
type = Stem;
},
{
place = (377, 49);
place = (377, 49);
type = Stem;
},
{
horizontal = 1;
place = (-13, 41);
place = (-13, 41);
type = Stem;
}
);
layerId = m01;
shapes = (
{
closed = 1;
nodes = (
(466,-8,o),
(478,-4,o),
(486,0,c),
(486,36,l),
(483,36,l),
(474,33,o),
(466,31,o),
(459,31,cs),
(441,31,o),
(426,39,o),
(426,67,cs),
(426,371,ls),
(426,477,o),
(362,528,o),
(247,528,cs),
(118,528,o),
(51,470,o),
(41,370,c),
(91,370,l),
(98,446,o),
(150,486,o),
(247,486,cs),
(331,486,o),
(377,452,o),
(377,374,cs),
(377,356,ls),
(377,308,o),
(349,302,o),
(227,290,cs),
(119,279,o),
(23,254,o),
(23,131,cs),
(23,36,o),
(93,-13,o),
(188,-13,cs),
(294,-13,o),
(346,39,o),
(375,80,c),
(378,80,l),
(378,62,ls),
(378,14,o),
(406,-8,o),
(446,-8,cs)
);
},
{
closed = 1;
nodes = (
(127,28,o),
(73,56,o),
(73,129,cs),
(73,227,o),
(142,239,o),
(233,249,cs),
(286,255,o),
(341,262,o),
(377,280,c),
(377,184,ls),
(377,106,o),
(310,28,o),
(193,28,cs)
);
},
{
closed = 1;
nodes = (
(210,588,l),
(254,588,l),
(355,715,l),
(286,715,l)
);
}
);
width = 492;
}
);
note = aacute;
unicode = 225;
},
{
glyphname = agrave;
kernLeft = a;
kernRight = a;
layers = (
{
hints = (
{
horizontal = 1;
place = (-8, 39);
place = (-8, 39);
type = Stem;
},
{
horizontal = 1;
place = (486, 42);
place = (486, 42);
type = Stem;
},
{
horizontal = 1;
place = (588, 127);
place = (588, 127);
type = Stem;
},
{
place = (23, 50);
place = (23, 50);
type = Stem;
},
{
place = (377, 49);
place = (377, 49);
type = Stem;
},
{
horizontal = 1;
place = (-13, 41);
place = (-13, 41);
type = Stem;
}
);
layerId = m01;
shapes = (
{
closed = 1;
nodes = (
(466,-8,o),
(478,-4,o),
(486,0,c),
(486,36,l),
(483,36,l),
(474,33,o),
(466,31,o),
(459,31,cs),
(441,31,o),
(426,39,o),
(426,67,cs),
(426,371,ls),
(426,477,o),
(362,528,o),
(247,528,cs),
(118,528,o),
(51,470,o),
(41,370,c),
(91,370,l),
(98,446,o),
(150,486,o),
(247,486,cs),
(331,486,o),
(377,452,o),
(377,374,cs),
(377,356,ls),
(377,308,o),
(349,302,o),
(227,290,cs),
(119,279,o),
(23,254,o),
(23,131,cs),
(23,36,o),
(93,-13,o),
(188,-13,cs),
(294,-13,o),
(346,39,o),
(375,80,c),
(378,80,l),
(378,62,ls),
(378,14,o),
(406,-8,o),
(446,-8,cs)
);
},
{
closed = 1;
nodes = (
(127,28,o),
(73,56,o),
(73,129,cs),
(73,227,o),
(142,239,o),
(233,249,cs),
(286,255,o),
(341,262,o),
(377,280,c),
(377,184,ls),
(377,106,o),
(310,28,o),
(193,28,cs)
);
},
{
closed = 1;
nodes = (
(287,588,l),
(211,715,l),
(142,715,l),
(243,588,l)
);
}
);
width = 492;
}
);
note = agrave;
unicode = 224;
},
{
glyphname = acircumflex;
kernLeft = a;
kernRight = a;
layers = (
{
hints = (
{
horizontal = 1;
place = (-8, 39);
place = (-8, 39);
type = Stem;
},
{
horizontal = 1;
place = (486, 42);
place = (486, 42);
type = Stem;
},
{
horizontal = 1;
place = (592, 106);
place = (592, 106);
type = Stem;
},
{
place = (23, 50);
place = (23, 50);
type = Stem;
},
{
place = (377, 49);
place = (377, 49);
type = Stem;
},
{
horizontal = 1;
place = (-13, 41);
place = (-13, 41);
type = Stem;
},
{
horizontal = 1;
place = (668, 30);
place = (668, 30);
type = Stem;
}
);
layerId = m01;
shapes = (
{
closed = 1;
nodes = (
(466,-8,o),
(478,-4,o),
(486,0,c),
(486,36,l),
(483,36,l),
(474,33,o),
(466,31,o),
(459,31,cs),
(441,31,o),
(426,39,o),
(426,67,cs),
(426,371,ls),
(426,477,o),
(362,528,o),
(247,528,cs),
(118,528,o),
(51,470,o),
(41,370,c),
(91,370,l),
(98,446,o),
(150,486,o),
(247,486,cs),
(331,486,o),
(377,452,o),
(377,374,cs),
(377,356,ls),
(377,308,o),
(349,302,o),
(227,290,cs),
(119,279,o),
(23,254,o),
(23,131,cs),
(23,36,o),
(93,-13,o),
(188,-13,cs),
(294,-13,o),
(346,39,o),
(375,80,c),
(378,80,l),
(378,62,ls),
(378,14,o),
(406,-8,o),
(446,-8,cs)
);
},
{
closed = 1;
nodes = (
(127,28,o),
(73,56,o),
(73,129,cs),
(73,227,o),
(142,239,o),
(233,249,cs),
(286,255,o),
(341,262,o),
(377,280,c),
(377,184,ls),
(377,106,o),
(310,28,o),
(193,28,cs)
);
},
{
closed = 1;
nodes = (
(139,592,l),
(193,592,l),
(248,668,l),
(250,668,l),
(304,592,l),
(361,592,l),
(281,698,l),
(219,698,l)
);
}
);
width = 492;
}
);
note = acircumflex;
unicode = 226;
},
{
glyphname = adieresis;
kernLeft = a;
kernRight = a;
layers = (
{
hints = (
{
horizontal = 1;
place = (-8, 39);
place = (-8, 39);
type = Stem;
},
{
horizontal = 1;
place = (486, 42);
place = (486, 42);
type = Stem;
},
{
horizontal = 1;
place = (635, 80);
place = (635, 80);
type = Stem;
},
{
place = (23, 50);
place = (23, 50);
type = Stem;
},
{
place = (150, 49);
place = (150, 49);
type = Stem;
},
{
place = (377, 49);
place = (377, 49);
type = Stem;
},
{
horizontal = 1;
place = (-13, 41);
place = (-13, 41);
type = Stem;
},
{
place = (301, 49);
place = (301, 49);
type = Stem;
}
);
layerId = m01;
shapes = (
{
closed = 1;
nodes = (
(466,-8,o),
(478,-4,o),
(486,0,c),
(486,36,l),
(483,36,l),
(474,33,o),
(466,31,o),
(459,31,cs),
(441,31,o),
(426,39,o),
(426,67,cs),
(426,371,ls),
(426,477,o),
(362,528,o),
(247,528,cs),
(118,528,o),
(51,470,o),
(41,370,c),
(91,370,l),
(98,446,o),
(150,486,o),
(247,486,cs),
(331,486,o),
(377,452,o),
(377,374,cs),
(377,356,ls),
(377,308,o),
(349,302,o),
(227,290,cs),
(119,279,o),
(23,254,o),
(23,131,cs),
(23,36,o),
(93,-13,o),
(188,-13,cs),
(294,-13,o),
(346,39,o),
(375,80,c),
(378,80,l),
(378,62,ls),
(378,14,o),
(406,-8,o),
(446,-8,cs)
);
},
{
closed = 1;
nodes = (
(127,28,o),
(73,56,o),
(73,129,cs),
(73,227,o),
(142,239,o),
(233,249,cs),
(286,255,o),
(341,262,o),
(377,280,c),
(377,184,ls),
(377,106,o),
(310,28,o),
(193,28,cs)
);
},
{
closed = 1;
nodes = (
(150,635,l),
(199,635,l),
(199,715,l),
(150,715,l)
);
},
{
closed = 1;
nodes = (
(301,635,l),
(350,635,l),
(350,715,l),
(301,715,l)
);
}
);
width = 492;
}
);
note = adieresis;
unicode = 228;
},
{
glyphname = atilde;
kernLeft = a;
kernRight = a;
layers = (
{
hints = (
{
horizontal = 1;
place = (-8, 39);
place = (-8, 39);
type = Stem;
},
{
horizontal = 1;
place = (486, 42);
place = (486, 42);
type = Stem;
},
{
horizontal = 1;
place = (643, 43);
place = (643, 43);
type = Stem;
},
{
place = (23, 50);
place = (23, 50);
type = Stem;
},
{
place = (377, 49);
place = (377, 49);
type = Stem;
},
{
horizontal = 1;
place = (-13, 41);
place = (-13, 41);
type = Stem;
},
{
horizontal = 1;
place = (600, 43);
place = (600, 43);
type = Stem;
},
{
place = (340, 42);
place = (340, 42);
type = Stem;
},
{
place = (119, 42);
place = (119, 42);
type = Stem;
}
);
layerId = m01;
shapes = (
{
closed = 1;
nodes = (
(466,-8,o),
(478,-4,o),
(486,0,c),
(486,36,l),
(483,36,l),
(474,33,o),
(466,31,o),
(459,31,cs),
(441,31,o),
(426,39,o),
(426,67,cs),
(426,371,ls),
(426,477,o),
(362,528,o),
(247,528,cs),
(118,528,o),
(51,470,o),
(41,370,c),
(91,370,l),
(98,446,o),
(150,486,o),
(247,486,cs),
(331,486,o),
(377,452,o),
(377,374,cs),
(377,356,ls),
(377,308,o),
(349,302,o),
(227,290,cs),
(119,279,o),
(23,254,o),
(23,131,cs),
(23,36,o),
(93,-13,o),
(188,-13,cs),
(294,-13,o),
(346,39,o),
(375,80,c),
(378,80,l),
(378,62,ls),
(378,14,o),
(406,-8,o),
(446,-8,cs)
);
},
{
closed = 1;
nodes = (
(127,28,o),
(73,56,o),
(73,129,cs),
(73,227,o),
(142,239,o),
(233,249,cs),
(286,255,o),
(341,262,o),
(377,280,c),
(377,184,ls),
(377,106,o),
(310,28,o),
(193,28,cs)
);
},
{
closed = 1;
nodes = (
(348,600,o),
(378,629,o),
(382,684,c),
(340,684,l),
(338,658,o),
(324,643,o),
(307,643,cs),
(278,643,o),
(234,686,o),
(192,686,cs),
(153,686,o),
(124,659,o),
(119,602,c),
(161,602,l),
(163,628,o),
(178,643,o),
(192,643,cs),
(221,643,o),
(268,600,o),
(309,600,cs)
);
}
);
width = 492;
}
);
note = atilde;
unicode = 227;
},
{
glyphname = aring;
kernLeft = a;
kernRight = a;
layers = (
{
hints = (
{
horizontal = 1;
place = (-8, 39);
place = (-8, 39);
type = Stem;
},
{
horizontal = 1;
place = (486, 42);
place = (486, 42);
type = Stem;
},
{
horizontal = 1;
place = (576, 33);
place = (576, 33);
type = Stem;
},
{
horizontal = 1;
place = (713, 33);
place = (713, 33);
type = Stem;
},
{
place = (23, 50);
place = (23, 50);
type = Stem;
},
{
place = (163, 38);
place = (163, 38);
type = Stem;
},
{
place = (299, 38);
place = (299, 38);
type = Stem;
},
{
place = (377, 49);
place = (377, 49);
type = Stem;
},
{
horizontal = 1;
place = (-13, 41);
place = (-13, 41);
type = Stem;
}
);
layerId = m01;
shapes = (
{
closed = 1;
nodes = (
(466,-8,o),
(478,-4,o),
(486,0,c),
(486,36,l),
(483,36,l),
(474,33,o),
(466,31,o),
(459,31,cs),
(441,31,o),
(426,39,o),
(426,67,cs),
(426,371,ls),
(426,477,o),
(362,528,o),
(247,528,cs),
(118,528,o),
(51,470,o),
(41,370,c),
(91,370,l),
(98,446,o),
(150,486,o),
(247,486,cs),
(331,486,o),
(377,452,o),
(377,374,cs),
(377,356,ls),
(377,308,o),
(349,302,o),
(227,290,cs),
(119,279,o),
(23,254,o),
(23,131,cs),
(23,36,o),
(93,-13,o),
(188,-13,cs),
(294,-13,o),
(346,39,o),
(375,80,c),
(378,80,l),
(378,62,ls),
(378,14,o),
(406,-8,o),
(446,-8,cs)
);
},
{
closed = 1;
nodes = (
(127,28,o),
(73,56,o),
(73,129,cs),
(73,227,o),
(142,239,o),
(233,249,cs),
(286,255,o),
(341,262,o),
(377,280,c),
(377,184,ls),
(377,106,o),
(310,28,o),
(193,28,cs)
);
},
{
closed = 1;
nodes = (
(298,576,o),
(337,614,o),
(337,661,cs),
(337,708,o),
(298,746,o),
(250,746,cs),
(202,746,o),
(163,708,o),
(163,661,cs),
(163,614,o),
(202,576,o),
(250,576,cs)
);
},
{
closed = 1;
nodes = (
(221,609,o),
(201,632,o),
(201,661,cs),
(201,690,o),
(221,713,o),
(250,713,cs),
(279,713,o),
(299,690,o),
(299,661,cs),
(299,632,o),
(279,609,o),
(250,609,cs)
);
}
);
width = 492;
}
);
note = aring;
unicode = 229;
},
{
glyphname = ccedilla;
kernLeft = c;
kernRight = c;
layers = (
{
hints = (
{
horizontal = 1;
place = (-184, 34);
place = (-184, 34);
type = Stem;
},
{
horizontal = 1;
place = (-84, 32);
place = (-84, 32);
type = Stem;
},
{
horizontal = 1;
place = (-11, 41);
place = (-11, 41);
type = Stem;
},
{
horizontal = 1;
place = (486, 42);
place = (486, 42);
type = Stem;
},
{
place = (25, 50);
place = (25, 50);
type = Stem;
},
{
place = (259, 48);
place = (259, 48);
type = Stem;
},
{
horizontal = 1;
place = (-184, 21);
target = up;
type = BottomGhost;
}
);
layerId = m01;
shapes = (
{
closed = 1;
nodes = (
(267,-184,o),
(307,-159,o),
(307,-113,cs),
(307,-72,o),
(273,-50,o),
(227,-52,c),
(227,-50,l),
(268,-12,l),
(376,-5,o),
(443,69,o),
(456,175,c),
(410,175,l),
(399,90,o),
(340,30,o),
(250,30,cs),
(127,30,o),
(75,134,o),
(75,258,cs),
(75,382,o),
(126,486,o),
(251,486,cs),
(332,486,o),
(385,450,o),
(402,368,c),
(450,368,l),
(434,472,o),
(359,528,o),
(251,528,cs),
(103,528,o),
(25,414,o),
(25,258,cs),
(25,111,o),
(91,1,o),
(223,-11,c),
(164,-69,l),
(177,-91,l),
(187,-88,o),
(199,-84,o),
(216,-84,cs),
(242,-84,o),
(259,-91,o),
(259,-113,cs),
(259,-135,o),
(239,-150,o),
(202,-150,cs),
(177,-150,o),
(157,-145,o),
(135,-137,c),
(122,-162,l),
(143,-174,o),
(172,-184,o),
(211,-184,cs)
);
}
);
width = 472;
}
);
note = ccedilla;
unicode = 231;
},
{
glyphname = eacute;
kernLeft = c;
kernRight = e;
layers = (
{
hints = (
{
horizontal = 1;
place = (-13, 43);
place = (-13, 43);
type = Stem;
},
{
horizontal = 1;
place = (253, 40);
place = (253, 40);
type = Stem;
},
{
horizontal = 1;
place = (486, 42);
place = (486, 42);
type = Stem;
},
{
horizontal = 1;
place = (588, 127);
place = (588, 127);
type = Stem;
},
{
place = (25, 50);
place = (25, 50);
type = Stem;
},
{
place = (416, 50);
place = (416, 50);
type = Stem;
}
);
layerId = m01;
shapes = (
{
closed = 1;
nodes = (
(466,253,l),
(467,351,o),
(448,425,o),
(391,478,cs),
(357,510,o),
(311,528,o),
(255,528,cs),
(114,528,o),
(25,417,o),
(25,258,cs),
(25,99,o),
(107,-13,o),
(259,-13,cs),
(374,-13,o),
(442,58,o),
(463,154,c),
(416,154,l),
(395,84,o),
(352,30,o),
(259,30,cs),
(132,30,o),
(76,129,o),
(75,253,c)
);
},
{
closed = 1;
nodes = (
(76,293,l),
(86,402,o),
(143,486,o),
(255,486,cs),
(369,486,o),
(413,395,o),
(416,293,c)
);
},
{
closed = 1;
nodes = (
(212,588,l),
(256,588,l),
(357,715,l),
(288,715,l)
);
}
);
width = 491;
}
);
note = eacute;
unicode = 233;
},
{
glyphname = egrave;
kernLeft = c;
kernRight = e;
layers = (
{
hints = (
{
horizontal = 1;
place = (-13, 43);
place = (-13, 43);
type = Stem;
},
{
horizontal = 1;
place = (253, 40);
place = (253, 40);
type = Stem;
},
{
horizontal = 1;
place = (486, 42);
place = (486, 42);
type = Stem;
},
{
horizontal = 1;
place = (588, 127);
place = (588, 127);
type = Stem;
},
{
place = (25, 50);
place = (25, 50);
type = Stem;
},
{
place = (416, 50);
place = (416, 50);
type = Stem;
}
);
layerId = m01;
shapes = (
{
closed = 1;
nodes = (
(466,253,l),
(467,351,o),
(448,425,o),
(391,478,cs),
(357,510,o),
(311,528,o),
(255,528,cs),
(114,528,o),
(25,417,o),
(25,258,cs),
(25,99,o),
(107,-13,o),
(259,-13,cs),
(374,-13,o),
(442,58,o),
(463,154,c),
(416,154,l),
(395,84,o),
(352,30,o),
(259,30,cs),
(132,30,o),
(76,129,o),
(75,253,c)
);
},
{
closed = 1;
nodes = (
(76,293,l),
(86,402,o),
(143,486,o),
(255,486,cs),
(369,486,o),
(413,395,o),
(416,293,c)
);
},
{
closed = 1;
nodes = (
(289,588,l),
(213,715,l),
(144,715,l),
(245,588,l)
);
}
);
width = 491;
}
);
note = egrave;
unicode = 232;
},
{
glyphname = ecircumflex;
kernLeft = c;
kernRight = e;
layers = (
{
hints = (
{
horizontal = 1;
place = (-13, 43);
place = (-13, 43);
type = Stem;
},
{
horizontal = 1;
place = (253, 40);
place = (253, 40);
type = Stem;
},
{
horizontal = 1;
place = (486, 42);
place = (486, 42);
type = Stem;
},
{
horizontal = 1;
place = (592, 106);
place = (592, 106);
type = Stem;
},
{
place = (25, 50);
place = (25, 50);
type = Stem;
},
{
place = (416, 50);
place = (416, 50);
type = Stem;
},
{
horizontal = 1;
place = (668, 30);
place = (668, 30);
type = Stem;
}
);
layerId = m01;
shapes = (
{
closed = 1;
nodes = (
(466,253,l),
(467,351,o),
(448,425,o),
(391,478,cs),
(357,510,o),
(311,528,o),
(255,528,cs),
(114,528,o),
(25,417,o),
(25,258,cs),
(25,99,o),
(107,-13,o),
(259,-13,cs),
(374,-13,o),
(442,58,o),
(463,154,c),
(416,154,l),
(395,84,o),
(352,30,o),
(259,30,cs),
(132,30,o),
(76,129,o),
(75,253,c)
);
},
{
closed = 1;
nodes = (
(76,293,l),
(86,402,o),
(143,486,o),
(255,486,cs),
(369,486,o),
(413,395,o),
(416,293,c)
);
},
{
closed = 1;
nodes = (
(141,592,l),
(195,592,l),
(250,668,l),
(252,668,l),
(306,592,l),
(363,592,l),
(283,698,l),
(221,698,l)
);
}
);
width = 491;
}
);
note = ecircumflex;
unicode = 234;
},
{
glyphname = edieresis;
kernLeft = c;
kernRight = e;
layers = (
{
hints = (
{
horizontal = 1;
place = (-13, 43);
place = (-13, 43);
type = Stem;
},
{
horizontal = 1;
place = (253, 40);
place = (253, 40);
type = Stem;
},
{
horizontal = 1;
place = (486, 42);
place = (486, 42);
type = Stem;
},
{
horizontal = 1;
place = (635, 80);
place = (635, 80);
type = Stem;
},
{
place = (25, 50);
place = (25, 50);
type = Stem;
},
{
place = (152, 49);
place = (152, 49);
type = Stem;
},
{
place = (303, 49);
place = (303, 49);
type = Stem;
},
{
place = (416, 50);
place = (416, 50);
type = Stem;
}
);
layerId = m01;
shapes = (
{
closed = 1;
nodes = (
(466,253,l),
(467,351,o),
(448,425,o),
(391,478,cs),
(357,510,o),
(311,528,o),
(255,528,cs),
(114,528,o),
(25,417,o),
(25,258,cs),
(25,99,o),
(107,-13,o),
(259,-13,cs),
(374,-13,o),
(442,58,o),
(463,154,c),
(416,154,l),
(395,84,o),
(352,30,o),
(259,30,cs),
(132,30,o),
(76,129,o),
(75,253,c)
);
},
{
closed = 1;
nodes = (
(76,293,l),
(86,402,o),
(143,486,o),
(255,486,cs),
(369,486,o),
(413,395,o),
(416,293,c)
);
},
{
closed = 1;
nodes = (
(152,635,l),
(201,635,l),
(201,715,l),
(152,715,l)
);
},
{
closed = 1;
nodes = (
(303,635,l),
(352,635,l),
(352,715,l),
(303,715,l)
);
}
);
width = 491;
}
);
note = edieresis;
unicode = 235;
},
{
glyphname = iacute;
kernLeft = b;
layers = (
{
hints = (
{
horizontal = 1;
place = (0, 21);
target = up;
type = BottomGhost;
},
{
horizontal = 1;
place = (517, -20);
target = down;
type = TopGhost;
},
{
horizontal = 1;
place = (588, 127);
place = (588, 127);
type = Stem;
},
{
place = (53, 49);
place = (53, 49);
type = Stem;
}
);
layerId = m01;
shapes = (
{
closed = 1;
nodes = (
(53,0,l),
(102,0,l),
(102,517,l),
(53,517,l)
);
},
{
closed = 1;
nodes = (
(57,588,l),
(100,588,l),
(180,715,l),
(115,715,l)
);
}
);
width = 155;
}
);
note = iacute;
unicode = 237;
},
{
glyphname = igrave;
kernLeft = b;
layers = (
{
hints = (
{
horizontal = 1;
place = (0, 21);
target = up;
type = BottomGhost;
},
{
horizontal = 1;
place = (517, -20);
target = down;
type = TopGhost;
},
{
horizontal = 1;
place = (588, 127);
place = (588, 127);
type = Stem;
},
{
place = (53, 49);
place = (53, 49);
type = Stem;
}
);
layerId = m01;
shapes = (
{
closed = 1;
nodes = (
(53,0,l),
(102,0,l),
(102,517,l),
(53,517,l)
);
},
{
closed = 1;
nodes = (
(100,588,l),
(42,715,l),
(-23,715,l),
(57,588,l)
);
}
);
width = 155;
}
);
note = igrave;
unicode = 236;
},
{
glyphname = icircumflex;
kernLeft = b;
layers = (
{
hints = (
{
horizontal = 1;
place = (0, 21);
target = up;
type = BottomGhost;
},
{
horizontal = 1;
place = (517, -20);
target = down;
type = TopGhost;
},
{
horizontal = 1;
place = (592, 106);
place = (592, 106);
type = Stem;
},
{
place = (53, 49);
place = (53, 49);
type = Stem;
},
{
horizontal = 1;
place = (667, 31);
place = (667, 31);
type = Stem;
}
);
layerId = m01;
shapes = (
{
closed = 1;
nodes = (
(53,0,l),
(102,0,l),
(102,517,l),
(53,517,l)
);
},
{
closed = 1;
nodes = (
(-18,592,l),
(31,592,l),
(75,667,l),
(77,667,l),
(120,592,l),
(172,592,l),
(108,698,l),
(46,698,l)
);
}
);
width = 155;
}
);
note = icircumflex;
unicode = 238;
},
{
glyphname = idieresis;
kernLeft = b;
layers = (
{
hints = (
{
horizontal = 1;
place = (0, 21);
target = up;
type = BottomGhost;
},
{
horizontal = 1;
place = (517, -20);
target = down;
type = TopGhost;
},
{
horizontal = 1;
place = (635, 80);
place = (635, 80);
type = Stem;
},
{
place = (53, 49);
place = (53, 49);
type = Stem;
},
{
place = (2, 49);
place = (2, 49);
type = Stem;
},
{
place = (104, 49);
place = (104, 49);
type = Stem;
}
);
layerId = m01;
shapes = (
{
closed = 1;
nodes = (
(53,0,l),
(102,0,l),
(102,517,l),
(53,517,l)
);
},
{
closed = 1;
nodes = (
(2,635,l),
(51,635,l),
(51,715,l),
(2,715,l)
);
},
{
closed = 1;
nodes = (
(104,635,l),
(153,635,l),
(153,715,l),
(104,715,l)
);
}
);
width = 155;
}
);
note = idieresis;
unicode = 239;
},
{
glyphname = ntilde;
kernLeft = m;
kernRight = h;
layers = (
{
hints = (
{
horizontal = 1;
place = (0, 21);
target = up;
type = BottomGhost;
},
{
horizontal = 1;
place = (517, -20);
target = down;
type = TopGhost;
},
{
horizontal = 1;
place = (643, 43);
place = (643, 43);
type = Stem;
},
{
place = (50, 49);
place = (50, 49);
type = Stem;
},
{
place = (390, 49);
place = (390, 49);
type = Stem;
},
{
horizontal = 1;
place = (485, 42);
place = (485, 42);
type = Stem;
},
{
horizontal = 1;
place = (600, 43);
place = (600, 43);
type = Stem;
},
{
place = (338, 42);
place = (338, 42);
type = Stem;
},
{
place = (117, 42);
place = (117, 42);
type = Stem;
}
);
layerId = m01;
shapes = (
{
closed = 1;
nodes = (
(99,517,l),
(50,517,l),
(50,0,l),
(99,0,l),
(99,334,ls),
(99,420,o),
(180,485,o),
(272,485,cs),
(344,485,o),
(390,449,o),
(390,364,cs),
(390,0,l),
(439,0,l),
(439,369,ls),
(439,472,o),
(369,527,o),
(281,527,cs),
(193,527,o),
(135,485,o),
(101,430,c),
(99,430,l)
);
},
{
closed = 1;
nodes = (
(346,600,o),
(376,629,o),
(380,684,c),
(338,684,l),
(336,658,o),
(322,643,o),
(305,643,cs),
(276,643,o),
(232,686,o),
(190,686,cs),
(151,686,o),
(122,659,o),
(117,602,c),
(159,602,l),
(161,628,o),
(176,643,o),
(190,643,cs),
(219,643,o),
(266,600,o),
(307,600,cs)
);
}
);
width = 485;
}
);
note = ntilde;
unicode = 241;
},
{
glyphname = oacute;
kernLeft = c;
kernRight = o;
layers = (
{
hints = (
{
horizontal = 1;
place = (-13, 42);
place = (-13, 42);
type = Stem;
},
{
horizontal = 1;
place = (487, 41);
place = (487, 41);
type = Stem;
},
{
horizontal = 1;
place = (588, 127);
place = (588, 127);
type = Stem;
},
{
place = (25, 50);
place = (25, 50);
type = Stem;
},
{
place = (439, 50);
place = (439, 50);
type = Stem;
}
);
layerId = m01;
shapes = (
{
closed = 1;
nodes = (
(403,-13,o),
(489,102,o),
(489,258,cs),
(489,414,o),
(403,528,o),
(257,528,cs),
(112,528,o),
(25,414,o),
(25,258,cs),
(25,102,o),
(112,-13,o),
(257,-13,cs)
);
},
{
closed = 1;
nodes = (
(138,29,o),
(75,132,o),
(75,258,cs),
(75,384,o),
(138,487,o),
(257,487,cs),
(376,487,o),
(439,384,o),
(439,258,cs),
(439,132,o),
(376,29,o),
(257,29,cs)
);
},
{
closed = 1;
nodes = (
(217,588,l),
(261,588,l),
(362,715,l),
(293,715,l)
);
}
);
width = 514;
}
);
note = oacute;
unicode = 243;
},
{
glyphname = ograve;
kernLeft = c;
kernRight = o;
layers = (
{
hints = (
{
horizontal = 1;
place = (-13, 42);
place = (-13, 42);
type = Stem;
},
{
horizontal = 1;
place = (487, 41);
place = (487, 41);
type = Stem;
},
{
horizontal = 1;
place = (588, 127);
place = (588, 127);
type = Stem;
},
{
place = (25, 50);
place = (25, 50);
type = Stem;
},
{
place = (439, 50);
place = (439, 50);
type = Stem;
}
);
layerId = m01;
shapes = (
{
closed = 1;
nodes = (
(403,-13,o),
(489,102,o),
(489,258,cs),
(489,414,o),
(403,528,o),
(257,528,cs),
(112,528,o),
(25,414,o),
(25,258,cs),
(25,102,o),
(112,-13,o),
(257,-13,cs)
);
},
{
closed = 1;
nodes = (
(138,29,o),
(75,132,o),
(75,258,cs),
(75,384,o),
(138,487,o),
(257,487,cs),
(376,487,o),
(439,384,o),
(439,258,cs),
(439,132,o),
(376,29,o),
(257,29,cs)
);
},
{
closed = 1;
nodes = (
(294,588,l),
(218,715,l),
(149,715,l),
(250,588,l)
);
}
);
width = 514;
}
);
note = ograve;
unicode = 242;
},
{
glyphname = ocircumflex;
kernLeft = c;
kernRight = o;
layers = (
{
hints = (
{
horizontal = 1;
place = (-13, 42);
place = (-13, 42);
type = Stem;
},
{
horizontal = 1;
place = (487, 41);
place = (487, 41);
type = Stem;
},
{
horizontal = 1;
place = (592, 106);
place = (592, 106);
type = Stem;
},
{
place = (25, 50);
place = (25, 50);
type = Stem;
},
{
place = (439, 50);
place = (439, 50);
type = Stem;
},
{
horizontal = 1;
place = (668, 30);
place = (668, 30);
type = Stem;
}
);
layerId = m01;
shapes = (
{
closed = 1;
nodes = (
(403,-13,o),
(489,102,o),
(489,258,cs),
(489,414,o),
(403,528,o),
(257,528,cs),
(112,528,o),
(25,414,o),
(25,258,cs),
(25,102,o),
(112,-13,o),
(257,-13,cs)
);
},
{
closed = 1;
nodes = (
(138,29,o),
(75,132,o),
(75,258,cs),
(75,384,o),
(138,487,o),
(257,487,cs),
(376,487,o),
(439,384,o),
(439,258,cs),
(439,132,o),
(376,29,o),
(257,29,cs)
);
},
{
closed = 1;
nodes = (
(146,592,l),
(200,592,l),
(255,668,l),
(257,668,l),
(311,592,l),
(368,592,l),
(288,698,l),
(226,698,l)
);
}
);
width = 514;
}
);
note = ocircumflex;
unicode = 244;
},
{
glyphname = odieresis;
kernLeft = c;
kernRight = o;
layers = (
{
hints = (
{
horizontal = 1;
place = (-13, 42);
place = (-13, 42);
type = Stem;
},
{
horizontal = 1;
place = (487, 41);
place = (487, 41);
type = Stem;
},
{
horizontal = 1;
place = (635, 80);
place = (635, 80);
type = Stem;
},
{
place = (25, 50);
place = (25, 50);
type = Stem;
},
{
place = (157, 49);
place = (157, 49);
type = Stem;
},
{
place = (308, 49);
place = (308, 49);
type = Stem;
},
{
place = (439, 50);
place = (439, 50);
type = Stem;
}
);
layerId = m01;
shapes = (
{
closed = 1;
nodes = (
(403,-13,o),
(489,102,o),
(489,258,cs),
(489,414,o),
(403,528,o),
(257,528,cs),
(112,528,o),
(25,414,o),
(25,258,cs),
(25,102,o),
(112,-13,o),
(257,-13,cs)
);
},
{
closed = 1;
nodes = (
(138,29,o),
(75,132,o),
(75,258,cs),
(75,384,o),
(138,487,o),
(257,487,cs),
(376,487,o),
(439,384,o),
(439,258,cs),
(439,132,o),
(376,29,o),
(257,29,cs)
);
},
{
closed = 1;
nodes = (
(157,635,l),
(206,635,l),
(206,715,l),
(157,715,l)
);
},
{
closed = 1;
nodes = (
(308,635,l),
(357,635,l),
(357,715,l),
(308,715,l)
);
}
);
width = 514;
}
);
note = odieresis;
unicode = 246;
},
{
glyphname = otilde;
kernLeft = c;
kernRight = o;
layers = (
{
hints = (
{
horizontal = 1;
place = (-13, 42);
place = (-13, 42);
type = Stem;
},
{
horizontal = 1;
place = (487, 41);
place = (487, 41);
type = Stem;
},
{
horizontal = 1;
place = (643, 43);
place = (643, 43);
type = Stem;
},
{
place = (25, 50);
place = (25, 50);
type = Stem;
},
{
place = (439, 50);
place = (439, 50);
type = Stem;
},
{
horizontal = 1;
place = (600, 43);
place = (600, 43);
type = Stem;
},
{
place = (347, 42);
place = (347, 42);
type = Stem;
},
{
place = (126, 42);
place = (126, 42);
type = Stem;
}
);
layerId = m01;
shapes = (
{
closed = 1;
nodes = (
(403,-13,o),
(489,102,o),
(489,258,cs),
(489,414,o),
(403,528,o),
(257,528,cs),
(112,528,o),
(25,414,o),
(25,258,cs),
(25,102,o),
(112,-13,o),
(257,-13,cs)
);
},
{
closed = 1;
nodes = (
(138,29,o),
(75,132,o),
(75,258,cs),
(75,384,o),
(138,487,o),
(257,487,cs),
(376,487,o),
(439,384,o),
(439,258,cs),
(439,132,o),
(376,29,o),
(257,29,cs)
);
},
{
closed = 1;
nodes = (
(355,600,o),
(385,629,o),
(389,684,c),
(347,684,l),
(345,658,o),
(331,643,o),
(314,643,cs),
(285,643,o),
(241,686,o),
(199,686,cs),
(160,686,o),
(131,659,o),
(126,602,c),
(168,602,l),
(170,628,o),
(185,643,o),
(199,643,cs),
(228,643,o),
(275,600,o),
(316,600,cs)
);
}
);
width = 514;
}
);
note = otilde;
unicode = 245;
},
{
glyphname = uacute;
kernLeft = u;
kernRight = u;
layers = (
{
hints = (
{
horizontal = 1;
place = (0, 21);
target = up;
type = BottomGhost;
},
{
horizontal = 1;
place = (517, -20);
target = down;
type = TopGhost;
},
{
horizontal = 1;
place = (588, 127);
place = (588, 127);
type = Stem;
},
{
place = (46, 49);
place = (46, 49);
type = Stem;
},
{
place = (380, 49);
place = (380, 49);
type = Stem;
},
{
horizontal = 1;
place = (-12, 42);
place = (-12, 42);
type = Stem;
}
);
layerId = m01;
shapes = (
{
closed = 1;
nodes = (
(429,0,l),
(429,517,l),
(380,517,l),
(380,190,ls),
(380,99,o),
(312,30,o),
(221,30,cs),
(144,30,o),
(95,68,o),
(95,153,cs),
(95,517,l),
(46,517,l),
(46,148,ls),
(46,45,o),
(117,-12,o),
(212,-12,cs),
(299,-12,o),
(344,29,o),
(378,79,c),
(380,79,l),
(380,0,l)
);
},
{
closed = 1;
nodes = (
(200,588,l),
(244,588,l),
(345,715,l),
(276,715,l)
);
}
);
width = 479;
}
);
note = uacute;
unicode = 250;
},
{
glyphname = ugrave;
kernLeft = u;
kernRight = u;
layers = (
{
hints = (
{
horizontal = 1;
place = (0, 21);
target = up;
type = BottomGhost;
},
{
horizontal = 1;
place = (517, -20);
target = down;
type = TopGhost;
},
{
horizontal = 1;
place = (588, 127);
place = (588, 127);
type = Stem;
},
{
place = (46, 49);
place = (46, 49);
type = Stem;
},
{
place = (380, 49);
place = (380, 49);
type = Stem;
},
{
horizontal = 1;
place = (-12, 42);
place = (-12, 42);
type = Stem;
}
);
layerId = m01;
shapes = (
{
closed = 1;
nodes = (
(429,0,l),
(429,517,l),
(380,517,l),
(380,190,ls),
(380,99,o),
(312,30,o),
(221,30,cs),
(144,30,o),
(95,68,o),
(95,153,cs),
(95,517,l),
(46,517,l),
(46,148,ls),
(46,45,o),
(117,-12,o),
(212,-12,cs),
(299,-12,o),
(344,29,o),
(378,79,c),
(380,79,l),
(380,0,l)
);
},
{
closed = 1;
nodes = (
(277,588,l),
(201,715,l),
(132,715,l),
(233,588,l)
);
}
);
width = 479;
}
);
note = ugrave;
unicode = 249;
},
{
glyphname = ucircumflex;
kernLeft = u;
kernRight = u;
layers = (
{
hints = (
{
horizontal = 1;
place = (0, 21);
target = up;
type = BottomGhost;
},
{
horizontal = 1;
place = (517, -20);
target = down;
type = TopGhost;
},
{
horizontal = 1;
place = (592, 106);
place = (592, 106);
type = Stem;
},
{
place = (46, 49);
place = (46, 49);
type = Stem;
},
{
place = (380, 49);
place = (380, 49);
type = Stem;
},
{
horizontal = 1;
place = (-12, 42);
place = (-12, 42);
type = Stem;
},
{
horizontal = 1;
place = (668, 30);
place = (668, 30);
type = Stem;
}
);
layerId = m01;
shapes = (
{
closed = 1;
nodes = (
(429,0,l),
(429,517,l),
(380,517,l),
(380,190,ls),
(380,99,o),
(312,30,o),
(221,30,cs),
(144,30,o),
(95,68,o),
(95,153,cs),
(95,517,l),
(46,517,l),
(46,148,ls),
(46,45,o),
(117,-12,o),
(212,-12,cs),
(299,-12,o),
(344,29,o),
(378,79,c),
(380,79,l),
(380,0,l)
);
},
{
closed = 1;
nodes = (
(129,592,l),
(183,592,l),
(238,668,l),
(240,668,l),
(294,592,l),
(351,592,l),
(271,698,l),
(209,698,l)
);
}
);
width = 479;
}
);
note = ucircumflex;
unicode = 251;
},
{
glyphname = udieresis;
kernLeft = u;
kernRight = u;
layers = (
{
hints = (
{
horizontal = 1;
place = (0, 21);
target = up;
type = BottomGhost;
},
{
horizontal = 1;
place = (517, -20);
target = down;
type = TopGhost;
},
{
horizontal = 1;
place = (635, 80);
place = (635, 80);
type = Stem;
},
{
place = (46, 49);
place = (46, 49);
type = Stem;
},
{
place = (140, 49);
place = (140, 49);
type = Stem;
},
{
place = (291, 49);
place = (291, 49);
type = Stem;
},
{
place = (380, 49);
place = (380, 49);
type = Stem;
},
{
horizontal = 1;
place = (-12, 42);
place = (-12, 42);
type = Stem;
}
);
layerId = m01;
shapes = (
{
closed = 1;
nodes = (
(429,0,l),
(429,517,l),
(380,517,l),
(380,190,ls),
(380,99,o),
(312,30,o),
(221,30,cs),
(144,30,o),
(95,68,o),
(95,153,cs),
(95,517,l),
(46,517,l),
(46,148,ls),
(46,45,o),
(117,-12,o),
(212,-12,cs),
(299,-12,o),
(344,29,o),
(378,79,c),
(380,79,l),
(380,0,l)
);
},
{
closed = 1;
nodes = (
(140,635,l),
(189,635,l),
(189,715,l),
(140,715,l)
);
},
{
closed = 1;
nodes = (
(291,635,l),
(340,635,l),
(340,715,l),
(291,715,l)
);
}
);
width = 479;
}
);
note = udieresis;
unicode = 252;
},
{
glyphname = dagger;
layers = (
{
hints = (
{
horizontal = 1;
place = (471, 43);
place = (471, 43);
type = Stem;
},
{
horizontal = 1;
place = (715, -20);
target = down;
type = TopGhost;
},
{
place = (223, 50);
place = (223, 50);
type = Stem;
}
);
layerId = m01;
shapes = (
{
closed = 1;
nodes = (
(39,471,l),
(223,471,l),
(223,-104,l),
(273,-104,l),
(273,471,l),
(457,471,l),
(457,514,l),
(273,514,l),
(273,715,l),
(223,715,l),
(223,514,l),
(39,514,l)
);
}
);
width = 496;
}
);
note = dagger;
unicode = 8224;
},
{
glyphname = degree;
layers = (
{
hints = (
{
horizontal = 1;
place = (461, 38);
place = (461, 38);
type = Stem;
},
{
horizontal = 1;
place = (661, 38);
place = (661, 38);
type = Stem;
},
{
place = (41, 45);
place = (41, 45);
type = Stem;
},
{
place = (232, 45);
place = (232, 45);
type = Stem;
}
);
layerId = m01;
shapes = (
{
closed = 1;
nodes = (
(226,461,o),
(277,514,o),
(277,580,cs),
(277,646,o),
(226,699,o),
(159,699,cs),
(93,699,o),
(41,646,o),
(41,580,cs),
(41,514,o),
(93,461,o),
(159,461,cs)
);
},
{
closed = 1;
nodes = (
(115,499,o),
(86,533,o),
(86,580,cs),
(86,626,o),
(115,661,o),
(159,661,cs),
(204,661,o),
(232,626,o),
(232,580,cs),
(232,533,o),
(204,499,o),
(159,499,cs)
);
}
);
width = 318;
}
);
note = degree;
unicode = 176;
},
{
glyphname = cent;
layers = (
{
hints = (
{
horizontal = 1;
place = (-12, 43);
place = (-12, 43);
type = Stem;
},
{
horizontal = 1;
place = (485, 42);
place = (485, 42);
type = Stem;
},
{
place = (26, 50);
place = (26, 50);
type = Stem;
},
{
place = (230, 40);
place = (230, 40);
type = Stem;
}
);
layerId = m01;
shapes = (
{
closed = 1;
nodes = (
(230,-85,l),
(270,-85,l),
(270,-12,l),
(378,-5,o),
(444,69,o),
(457,175,c),
(411,175,l),
(401,96,o),
(349,39,o),
(270,31,c),
(270,485,l),
(340,480,o),
(387,443,o),
(403,368,c),
(451,368,l),
(436,466,o),
(368,521,o),
(270,527,c),
(270,591,l),
(230,591,l),
(230,527,l),
(96,516,o),
(26,406,o),
(26,258,cs),
(26,109,o),
(95,-1,o),
(230,-12,c)
);
},
{
closed = 1;
nodes = (
(76,374,o),
(121,473,o),
(230,485,c),
(230,31,l),
(122,42,o),
(76,141,o),
(76,258,cs)
);
}
);
width = 479;
}
);
note = cent;
unicode = 162;
},
{
glyphname = sterling;
layers = (
{
hints = (
{
horizontal = 1;
place = (-10, 45);
place = (-10, 45);
type = Stem;
},
{
horizontal = 1;
place = (313, 42);
place = (313, 42);
type = Stem;
},
{
horizontal = 1;
place = (655, 44);
place = (655, 44);
type = Stem;
},
{
place = (69, 51);
place = (69, 51);
type = Stem;
},
{
place = (433, 49);
place = (433, 49);
type = Stem;
},
{
horizontal = 1;
place = (-5, 21);
target = up;
type = BottomGhost;
},
{
horizontal = 1;
place = (38, 42);
place = (38, 42);
type = Stem;
},
{
place = (138, 47);
place = (138, 47);
type = Stem;
}
);
layerId = m01;
shapes = (
{
closed = 1;
nodes = (
(37,313,l),
(121,313,l),
(131,285,o),
(138,256,o),
(138,227,cs),
(138,142,o),
(99,85,o),
(36,39,c),
(65,-5,l),
(95,15,o),
(133,38,o),
(173,38,cs),
(253,38,o),
(271,-10,o),
(362,-10,cs),
(424,-10,o),
(457,13,o),
(496,47,c),
(468,84,l),
(440,58,o),
(406,35,o),
(365,35,cs),
(299,35,o),
(257,80,o),
(185,80,cs),
(156,80,o),
(139,73,o),
(115,60,c),
(114,62,l),
(162,103,o),
(185,160,o),
(185,234,cs),
(185,261,o),
(180,287,o),
(173,313,c),
(330,313,l),
(330,355,l),
(159,355,l),
(141,406,o),
(120,455,o),
(120,504,cs),
(120,593,o),
(174,655,o),
(273,655,cs),
(355,655,o),
(431,607,o),
(433,488,c),
(482,488,l),
(480,619,o),
(394,699,o),
(276,699,cs),
(135,699,o),
(69,605,o),
(69,505,cs),
(69,449,o),
(88,401,o),
(106,355,c),
(37,355,l)
);
}
);
width = 524;
}
);
note = sterling;
unicode = 163;
},
{
glyphname = section;
layers = (
{
hints = (
{
horizontal = 1;
place = (-182, 46);
place = (-182, 46);
type = Stem;
},
{
horizontal = 1;
place = (653, 46);
place = (653, 46);
type = Stem;
},
{
place = (28, 52);
place = (28, 52);
type = Stem;
},
{
place = (468, 52);
place = (468, 52);
type = Stem;
},
{
place = (397, 53);
place = (397, 53);
type = Stem;
},
{
place = (103, 53);
place = (103, 53);
type = Stem;
}
);
layerId = m01;
shapes = (
{
closed = 1;
nodes = (
(391,-182,o),
(450,-125,o),
(450,-40,cs),
(450,-1,o),
(435,28,o),
(409,54,c),
(480,76,o),
(520,122,o),
(520,189,cs),
(520,290,o),
(429,341,o),
(311,404,cs),
(209,459,o),
(156,487,o),
(156,554,cs),
(156,609,o),
(193,653,o),
(270,653,cs),
(346,653,o),
(398,608,o),
(403,530,c),
(456,530,l),
(450,628,o),
(383,699,o),
(272,699,cs),
(168,699,o),
(103,638,o),
(103,551,cs),
(103,513,o),
(116,484,o),
(140,458,c),
(74,438,o),
(28,397,o),
(28,323,cs),
(28,226,o),
(118,175,o),
(245,101,cs),
(355,37,o),
(397,17,o),
(397,-41,cs),
(397,-103,o),
(358,-136,o),
(283,-136,cs),
(194,-136,o),
(138,-78,o),
(134,2,c),
(81,2,l),
(83,-90,o),
(156,-182,o),
(283,-182,cs)
);
},
{
closed = 1;
nodes = (
(403,297,o),
(468,260,o),
(468,188,cs),
(468,146,o),
(444,101,o),
(374,83,c),
(345,104,o),
(308,124,o),
(266,148,cs),
(138,220,o),
(80,253,o),
(80,326,cs),
(80,381,o),
(113,414,o),
(175,427,c),
(205,404,o),
(244,383,o),
(290,358,cs)
);
}
);
width = 548;
}
);
note = section;
unicode = 167;
},
{
glyphname = bullet;
layers = (
{
hints = (
{
horizontal = 1;
place = (225, 201);
place = (225, 201);
type = Stem;
},
{
place = (38, 201);
place = (38, 201);
type = Stem;
}
);
layerId = m01;
shapes = (
{
closed = 1;
nodes = (
(194,225,o),
(239,270,o),
(239,325,cs),
(239,380,o),
(194,426,o),
(139,426,cs),
(83,426,o),
(38,380,o),
(38,325,cs),
(38,270,o),
(83,225,o),
(139,225,cs)
);
}
);
width = 277;
}
);
note = bullet;
unicode = 8226;
},
{
glyphname = paragraph;
layers = (
{
hints = (
{
horizontal = 1;
place = (0, 21);
target = up;
type = BottomGhost;
},
{
horizontal = 1;
place = (665, 50);
place = (665, 50);
type = Stem;
},
{
place = (246, 52);
place = (246, 52);
type = Stem;
},
{
place = (372, 52);
place = (372, 52);
type = Stem;
}
);
layerId = m01;
shapes = (
{
closed = 1;
nodes = (
(246,382,l),
(246,0,l),
(298,0,l),
(298,665,l),
(372,665,l),
(372,0,l),
(424,0,l),
(424,715,l),
(208,715,ls),
(150,715,o),
(106,700,o),
(76,670,cs),
(46,640,o),
(29,599,o),
(29,551,cs),
(29,445,o),
(92,382,o),
(215,382,cs)
);
}
);
width = 486;
}
);
note = paragraph;
unicode = 182;
},
{
glyphname = germandbls;
kernLeft = germandbls;
kernRight = germandbls;
layers = (
{
hints = (
{
horizontal = 1;
place = (-5, 43);
place = (-5, 43);
type = Stem;
},
{
horizontal = 1;
place = (379, 41);
place = (379, 41);
type = Stem;
},
{
horizontal = 1;
place = (682, 41);
place = (682, 41);
type = Stem;
},
{
place = (50, 49);
place = (50, 49);
type = Stem;
},
{
place = (356, 49);
place = (356, 49);
type = Stem;
},
{
place = (393, 51);
place = (393, 51);
type = Stem;
},
{
horizontal = 1;
place = (0, 21);
target = up;
type = BottomGhost;
}
);
layerId = m01;
shapes = (
{
closed = 1;
nodes = (
(358,-5,o),
(444,65,o),
(444,207,cs),
(444,311,o),
(391,376,o),
(308,403,c),
(308,405,l),
(371,429,o),
(405,482,o),
(405,555,cs),
(405,648,o),
(336,723,o),
(230,723,cs),
(122,723,o),
(50,655,o),
(50,544,cs),
(50,0,l),
(99,0,l),
(99,542,ls),
(99,631,o),
(151,682,o),
(229,682,cs),
(308,682,o),
(356,629,o),
(356,554,cs),
(356,481,o),
(316,420,o),
(234,420,cs),
(188,420,l),
(188,379,l),
(231,379,ls),
(337,379,o),
(393,308,o),
(393,204,cs),
(393,96,o),
(331,38,o),
(233,38,cs),
(218,38,o),
(199,40,o),
(183,44,c),
(181,44,l),
(181,2,l),
(197,-2,o),
(229,-5,o),
(239,-5,cs)
);
}
);
width = 469;
}
);
note = germandbls;
unicode = 223;
},
{
glyphname = registered;
kernLeft = registered;
layers = (
{
hints = (
{
horizontal = 1;
place = (244, 30);
place = (244, 30);
type = Stem;
},
{
horizontal = 1;
place = (470, 32);
place = (470, 32);
type = Stem;
},
{
horizontal = 1;
place = (588, 33);
place = (588, 33);
type = Stem;
},
{
horizontal = 1;
place = (698, 30);
place = (698, 30);
type = Stem;
},
{
place = (27, 36);
place = (27, 36);
type = Stem;
},
{
place = (171, 40);
place = (171, 40);
type = Stem;
},
{
place = (329, 40);
place = (329, 40);
type = Stem;
},
{
place = (465, 36);
place = (465, 36);
type = Stem;
}
);
layerId = m01;
shapes = (
{
closed = 1;
nodes = (
(397,244,o),
(501,346,o),
(501,486,cs),
(501,625,o),
(397,728,o),
(264,728,cs),
(131,728,o),
(27,625,o),
(27,486,cs),
(27,346,o),
(131,244,o),
(264,244,cs)
);
},
{
closed = 1;
nodes = (
(147,274,o),
(63,363,o),
(63,486,cs),
(63,608,o),
(147,698,o),
(264,698,cs),
(381,698,o),
(465,608,o),
(465,486,cs),
(465,363,o),
(381,274,o),
(264,274,cs)
);
},
{
closed = 1;
nodes = (
(171,359,l),
(211,359,l),
(211,470,l),
(269,470,ls),
(305,470,o),
(321,454,o),
(322,419,cs),
(324,385,o),
(326,362,o),
(333,359,c),
(372,359,l),
(372,361,l),
(365,365,o),
(365,387,o),
(361,426,cs),
(359,461,o),
(347,478,o),
(321,485,c),
(321,486,l),
(354,495,o),
(369,518,o),
(369,549,cs),
(369,592,o),
(337,621,o),
(289,621,cs),
(171,621,l)
);
},
{
closed = 1;
nodes = (
(211,588,l),
(281,588,ls),
(314,588,o),
(329,570,o),
(329,544,cs),
(329,518,o),
(312,502,o),
(280,502,cs),
(211,502,l)
);
}
);
width = 528;
}
);
note = registered;
unicode = 174;
},
{
glyphname = copyright;
kernLeft = copyright;
kernRight = copyright;
layers = (
{
hints = (
{
horizontal = 1;
place = (-17, 32);
place = (-17, 32);
type = Stem;
},
{
horizontal = 1;
place = (122, 43);
place = (122, 43);
type = Stem;
},
{
horizontal = 1;
place = (548, 43);
place = (548, 43);
type = Stem;
},
{
horizontal = 1;
place = (696, 32);
place = (696, 32);
type = Stem;
},
{
place = (42, 40);
place = (42, 40);
type = Stem;
},
{
place = (204, 52);
place = (204, 52);
type = Stem;
},
{
place = (542, 49);
place = (542, 49);
type = Stem;
},
{
place = (730, 40);
place = (730, 40);
type = Stem;
}
);
layerId = m01;
shapes = (
{
closed = 1;
nodes = (
(610,-17,o),
(770,141,o),
(770,355,cs),
(770,569,o),
(610,728,o),
(406,728,cs),
(202,728,o),
(42,569,o),
(42,355,cs),
(42,141,o),
(202,-17,o),
(406,-17,cs)
);
},
{
closed = 1;
nodes = (
(219,15,o),
(82,159,o),
(82,355,cs),
(82,551,o),
(219,696,o),
(406,696,cs),
(593,696,o),
(730,551,o),
(730,355,cs),
(730,159,o),
(593,15,o),
(406,15,cs)
);
},
{
closed = 1;
nodes = (
(467,122,o),
(514,143,o),
(545,177,cs),
(572,206,o),
(588,247,o),
(591,290,c),
(542,290,l),
(535,218,o),
(489,165,o),
(408,165,cs),
(309,165,o),
(256,246,o),
(256,355,cs),
(256,462,o),
(307,548,o),
(410,548,cs),
(479,548,o),
(523,509,o),
(534,452,c),
(584,452,l),
(569,536,o),
(506,591,o),
(410,591,cs),
(282,591,o),
(204,492,o),
(204,355,cs),
(204,218,o),
(286,122,o),
(408,122,cs)
);
}
);
width = 812;
}
);
note = copyright;
unicode = 169;
},
{
glyphname = trademark;
kernLeft = trademark;
layers = (
{
hints = (
{
horizontal = 1;
place = (429, 50);
place = (429, 50);
type = Stem;
},
{
horizontal = 1;
place = (679, 36);
place = (679, 36);
type = Stem;
},
{
place = (127, 40);
place = (127, 40);
type = Stem;
},
{
place = (308, 38);
place = (308, 38);
type = Stem;
},
{
place = (546, 38);
place = (546, 38);
type = Stem;
}
);
layerId = m01;
shapes = (
{
closed = 1;
nodes = (
(308,429,l),
(346,429,l),
(346,666,l),
(348,666,l),
(348,666,o),
(365,608,o),
(379,569,cs),
(426,429,l),
(466,429,l),
(513,569,ls),
(527,611,o),
(544,666,o),
(544,666,c),
(546,666,l),
(546,429,l),
(584,429,l),
(584,715,l),
(524,715,l),
(447,479,l),
(446,479,l),
(367,715,l),
(308,715,l)
);
},
{
closed = 1;
nodes = (
(34,679,l),
(127,679,l),
(127,429,l),
(167,429,l),
(167,679,l),
(260,679,l),
(260,715,l),
(34,715,l)
);
}
);
width = 634;
}
);
note = trademark;
unicode = 8482;
},
{
glyphname = acute;
layers = (
{
hints = (
{
horizontal = 1;
place = (588, 127);
place = (588, 127);
type = Stem;
},
{
place = (209, 145);
place = (209, 145);
type = Stem;
}
);
layerId = m01;
shapes = (
{
closed = 1;
nodes = (
(209,588,l),
(253,588,l),
(354,715,l),
(285,715,l)
);
}
);
width = 500;
}
);
note = acute;
unicode = 180;
},
{
glyphname = dieresis;
layers = (
{
hints = (
{
horizontal = 1;
place = (635, 80);
place = (635, 80);
type = Stem;
},
{
place = (160, 49);
place = (160, 49);
type = Stem;
},
{
place = (311, 49);
place = (311, 49);
type = Stem;
}
);
layerId = m01;
shapes = (
{
closed = 1;
nodes = (
(160,635,l),
(209,635,l),
(209,715,l),
(160,715,l)
);
},
{
closed = 1;
nodes = (
(311,635,l),
(360,635,l),
(360,715,l),
(311,715,l)
);
}
);
width = 520;
}
);
note = dieresis;
unicode = 168;
},
{
glyphname = notequal;
layers = (
{
hints = (
{
horizontal = 1;
place = (211, 46);
place = (211, 46);
type = Stem;
},
{
horizontal = 1;
place = (361, 46);
place = (361, 46);
type = Stem;
},
{
place = (56, 398);
place = (56, 398);
type = Stem;
},
{
horizontal = 1;
place = (361, 164);
place = (361, 164);
type = Stem;
}
);
layerId = m01;
shapes = (
{
closed = 1;
nodes = (
(56,361,l),
(256,361,l),
(207,257,l),
(56,257,l),
(56,211,l),
(186,211,l),
(128,88,l),
(176,88,l),
(234,211,l),
(454,211,l),
(454,257,l),
(255,257,l),
(304,361,l),
(454,361,l),
(454,407,l),
(326,407,l),
(382,525,l),
(334,525,l),
(278,407,l),
(56,407,l)
);
}
);
width = 510;
}
);
note = notequal;
unicode = 8800;
},
{
glyphname = AE;
kernLeft = AE;
kernRight = E;
layers = (
{
hints = (
{
horizontal = 1;
place = (0, 48);
place = (0, 48);
type = Stem;
},
{
horizontal = 1;
place = (229, 44);
place = (229, 44);
type = Stem;
},
{
horizontal = 1;
place = (346, 45);
place = (346, 45);
type = Stem;
},
{
horizontal = 1;
place = (669, 46);
place = (669, 46);
type = Stem;
},
{
place = (465, 52);
place = (465, 52);
type = Stem;
}
);
layerId = m01;
shapes = (
{
closed = 1;
nodes = (
(865,346,l),
(865,391,l),
(517,391,l),
(517,669,l),
(899,669,l),
(899,715,l),
(306,715,l),
(9,0,l),
(62,0,l),
(157,229,l),
(465,229,l),
(465,0,l),
(909,0,l),
(909,48,l),
(517,48,l),
(517,346,l)
);
},
{
closed = 1;
nodes = (
(465,669,l),
(465,273,l),
(175,273,l),
(339,669,l)
);
}
);
width = 945;
}
);
note = AE;
unicode = 198;
},
{
glyphname = Oslash;
kernLeft = C;
kernRight = O;
layers = (
{
hints = (
{
horizontal = 1;
place = (-13, 47);
place = (-13, 47);
type = Stem;
},
{
horizontal = 1;
place = (682, 47);
place = (682, 47);
type = Stem;
},
{
place = (34, 54);
place = (34, 54);
type = Stem;
},
{
place = (622, 54);
place = (622, 54);
type = Stem;
}
);
layerId = m01;
shapes = (
{
closed = 1;
nodes = (
(51,-16,l),
(134,78,l),
(189,21,o),
(264,-13,o),
(354,-13,cs),
(548,-13,o),
(676,146,o),
(676,358,cs),
(676,454,o),
(649,540,o),
(602,605,c),
(688,702,l),
(659,729,l),
(576,635,l),
(520,694,o),
(444,729,o),
(354,729,cs),
(160,729,o),
(34,570,o),
(34,358,cs),
(34,260,o),
(61,174,o),
(109,109,c),
(22,11,l)
);
},
{
closed = 1;
nodes = (
(88,535,o),
(180,682,o),
(354,682,cs),
(435,682,o),
(498,650,o),
(543,598,c),
(143,147,l),
(106,204,o),
(88,278,o),
(88,358,cs)
);
},
{
closed = 1;
nodes = (
(274,34,o),
(212,65,o),
(167,115,c),
(567,566,l),
(603,509,o),
(622,436,o),
(622,358,cs),
(622,181,o),
(528,34,o),
(354,34,cs)
);
}
);
width = 710;
}
);
note = Oslash;
unicode = 216;
},
{
glyphname = infinity;
layers = (
{
hints = (
{
horizontal = 1;
place = (134, 42);
place = (134, 42);
type = Stem;
},
{
horizontal = 1;
place = (434, 41);
place = (434, 41);
type = Stem;
},
{
place = (38, 50);
place = (38, 50);
type = Stem;
},
{
place = (627, 50);
place = (627, 50);
type = Stem;
}
);
layerId = m01;
shapes = (
{
closed = 1;
nodes = (
(270,134,o),
(319,194,o),
(360,261,c),
(401,194,o),
(447,134,o),
(526,134,cs),
(620,134,o),
(677,203,o),
(677,305,cs),
(677,406,o),
(620,475,o),
(526,475,cs),
(447,475,o),
(401,415,o),
(360,348,c),
(319,415,o),
(270,475,o),
(188,475,cs),
(86,475,o),
(38,396,o),
(38,305,cs),
(38,213,o),
(86,134,o),
(188,134,cs)
);
},
{
closed = 1;
nodes = (
(255,434,o),
(295,372,o),
(335,304,c),
(295,237,o),
(255,176,o),
(188,176,cs),
(119,176,o),
(88,234,o),
(88,305,cs),
(88,375,o),
(119,434,o),
(188,434,cs)
);
},
{
closed = 1;
nodes = (
(463,176,o),
(426,237,o),
(386,304,c),
(426,372,o),
(463,434,o),
(526,434,cs),
(595,434,o),
(627,375,o),
(627,305,cs),
(627,234,o),
(595,176,o),
(526,176,cs)
);
}
);
width = 715;
}
);
note = infinity;
unicode = 8734;
},
{
glyphname = plusminus;
layers = (
{
hints = (
{
horizontal = 1;
place = (0, 46);
place = (0, 46);
type = Stem;
},
{
horizontal = 1;
place = (313, 46);
place = (313, 46);
type = Stem;
},
{
place = (230, 50);
place = (230, 50);
type = Stem;
}
);
layerId = m01;
shapes = (
{
closed = 1;
nodes = (
(56,313,l),
(230,313,l),
(230,133,l),
(280,133,l),
(280,313,l),
(454,313,l),
(454,359,l),
(280,359,l),
(280,536,l),
(230,536,l),
(230,359,l),
(56,359,l)
);
},
{
closed = 1;
nodes = (
(56,0,l),
(454,0,l),
(454,46,l),
(56,46,l)
);
}
);
width = 510;
}
);
note = plusminus;
unicode = 177;
},
{
glyphname = lessequal;
layers = (
{
hints = (
{
horizontal = 1;
place = (0, 46);
place = (0, 46);
type = Stem;
},
{
place = (50, 44);
place = (50, 44);
type = Stem;
}
);
layerId = m01;
shapes = (
{
closed = 1;
nodes = (
(437,117,l),
(437,166,l),
(94,310,l),
(94,312,l),
(437,457,l),
(437,506,l),
(50,340,l),
(50,283,l)
);
},
{
closed = 1;
nodes = (
(50,0,l),
(437,0,l),
(437,46,l),
(50,46,l)
);
}
);
width = 491;
}
);
note = lessequal;
unicode = 8804;
},
{
glyphname = greaterequal;
layers = (
{
hints = (
{
horizontal = 1;
place = (0, 46);
place = (0, 46);
type = Stem;
},
{
place = (397, 44);
place = (397, 44);
type = Stem;
}
);
layerId = m01;
shapes = (
{
closed = 1;
nodes = (
(54,506,l),
(54,457,l),
(397,313,l),
(397,311,l),
(54,166,l),
(54,117,l),
(441,283,l),
(441,340,l)
);
},
{
closed = 1;
nodes = (
(54,0,l),
(441,0,l),
(441,46,l),
(54,46,l)
);
}
);
width = 491;
}
);
note = greaterequal;
unicode = 8805;
},
{
glyphname = yen;
layers = (
{
hints = (
{
horizontal = 1;
place = (0, 21);
target = up;
type = BottomGhost;
},
{
horizontal = 1;
place = (169, 41);
place = (169, 41);
type = Stem;
},
{
horizontal = 1;
place = (285, 41);
place = (285, 41);
type = Stem;
},
{
horizontal = 1;
place = (686, -20);
target = down;
type = TopGhost;
},
{
place = (239, 50);
place = (239, 50);
type = Stem;
}
);
layerId = m01;
shapes = (
{
closed = 1;
nodes = (
(58,285,l),
(239,285,l),
(239,210,l),
(58,210,l),
(58,169,l),
(239,169,l),
(239,0,l),
(289,0,l),
(289,169,l),
(470,169,l),
(470,210,l),
(289,210,l),
(289,285,l),
(470,285,l),
(470,326,l),
(301,326,l),
(518,686,l),
(463,686,l),
(266,355,l),
(264,355,l),
(70,686,l),
(12,686,l),
(228,326,l),
(58,326,l)
);
}
);
width = 530;
}
);
note = yen;
unicode = 165;
},
{
glyphname = mu;
layers = (
{
hints = (
{
horizontal = 1;
place = (-166, 21);
target = up;
type = BottomGhost;
},
{
horizontal = 1;
place = (0, 21);
target = up;
type = BottomGhost;
},
{
horizontal = 1;
place = (517, -20);
target = down;
type = TopGhost;
},
{
place = (50, 49);
place = (50, 49);
type = Stem;
},
{
place = (384, 49);
place = (384, 49);
type = Stem;
},
{
horizontal = 1;
place = (-12, 42);
place = (-12, 42);
type = Stem;
}
);
layerId = m01;
shapes = (
{
closed = 1;
nodes = (
(433,0,l),
(433,517,l),
(384,517,l),
(384,190,ls),
(384,99,o),
(316,30,o),
(225,30,cs),
(148,30,o),
(99,68,o),
(99,153,cs),
(99,517,l),
(50,517,l),
(50,-166,l),
(99,-166,l),
(99,42,l),
(101,42,l),
(129,2,o),
(170,-12,o),
(216,-12,cs),
(303,-12,o),
(348,29,o),
(382,79,c),
(384,79,l),
(384,0,l)
);
}
);
width = 483;
}
);
note = mu;
unicode = 181;
},
{
glyphname = partialdiff;
layers = (
{
hints = (
{
horizontal = 1;
place = (-12, 42);
place = (-12, 42);
type = Stem;
},
{
horizontal = 1;
place = (439, 44);
place = (439, 44);
type = Stem;
},
{
horizontal = 1;
place = (720, -20);
target = down;
type = TopGhost;
},
{
place = (30, 54);
place = (30, 54);
type = Stem;
},
{
place = (411, 54);
place = (411, 54);
type = Stem;
}
);
layerId = m01;
shapes = (
{
closed = 1;
nodes = (
(378,455,o),
(321,483,o),
(255,483,cs),
(124,483,o),
(30,371,o),
(30,214,cs),
(30,84,o),
(107,-12,o),
(235,-12,cs),
(386,-12,o),
(465,117,o),
(465,307,cs),
(465,483,o),
(393,694,o),
(123,720,c),
(123,677,l),
(323,654,o),
(389,515,o),
(411,396,c)
);
},
{
closed = 1;
nodes = (
(84,347,o),
(148,439,o),
(255,439,cs),
(356,439,o),
(411,363,o),
(411,264,cs),
(411,140,o),
(347,30,o),
(235,30,cs),
(125,30,o),
(84,127,o),
(84,215,cs)
);
}
);
width = 495;
}
);
note = partialdiff;
unicode = 8706;
},
{
glyphname = summation;
layers = (
{
hints = (
{
horizontal = 1;
place = (-100, 45);
place = (-100, 45);
type = Stem;
},
{
horizontal = 1;
place = (669, 46);
place = (669, 46);
type = Stem;
},
{
place = (42, 63);
place = (42, 63);
type = Stem;
},
{
place = (357, 51);
place = (357, 51);
type = Stem;
}
);
layerId = m01;
shapes = (
{
closed = 1;
nodes = (
(538,-100,l),
(538,-55,l),
(105,-55,l),
(105,-53,l),
(408,314,l),
(408,345,l),
(105,667,l),
(105,669,l),
(538,669,l),
(538,715,l),
(42,715,l),
(42,663,l),
(357,329,l),
(357,327,l),
(42,-60,l),
(42,-100,l)
);
}
);
width = 574;
}
);
note = summation;
unicode = 8721;
},
{
glyphname = product;
layers = (
{
hints = (
{
horizontal = 1;
place = (668, 47);
place = (668, 47);
type = Stem;
},
{
place = (67, 52);
place = (67, 52);
type = Stem;
},
{
place = (517, 52);
place = (517, 52);
type = Stem;
}
);
layerId = m01;
shapes = (
{
closed = 1;
nodes = (
(517,668,l),
(517,-100,l),
(569,-100,l),
(569,715,l),
(67,715,l),
(67,-100,l),
(119,-100,l),
(119,668,l)
);
}
);
width = 636;
}
);
note = product;
unicode = 8719;
},
{
glyphname = pi;
layers = (
{
hints = (
{
horizontal = 1;
place = (-4, 42);
place = (-4, 42);
type = Stem;
},
{
horizontal = 1;
place = (476, 41);
place = (476, 41);
type = Stem;
},
{
place = (100, 49);
place = (100, 49);
type = Stem;
},
{
place = (395, 49);
place = (395, 49);
type = Stem;
},
{
horizontal = 1;
place = (0, 21);
target = up;
type = BottomGhost;
}
);
layerId = m01;
shapes = (
{
closed = 1;
nodes = (
(525,517,l),
(18,517,l),
(18,476,l),
(100,476,l),
(100,0,l),
(149,0,l),
(149,476,l),
(395,476,l),
(395,84,ls),
(395,23,o),
(430,-4,o),
(483,-4,cs),
(504,-4,o),
(519,-1,o),
(535,5,c),
(535,47,l),
(532,47,l),
(523,42,o),
(506,38,o),
(493,38,cs),
(459,38,o),
(444,50,o),
(444,88,cs),
(444,476,l),
(525,476,l)
);
}
);
width = 559;
}
);
note = pi;
unicode = 960;
},
{
glyphname = integral;
layers = (
{
hints = (
{
horizontal = 1;
place = (-176, 43);
place = (-176, 43);
type = Stem;
},
{
horizontal = 1;
place = (698, 43);
place = (698, 43);
type = Stem;
},
{
place = (160, 49);
place = (160, 49);
type = Stem;
},
{
horizontal = 1;
place = (730, -20);
target = down;
type = TopGhost;
},
{
horizontal = 1;
place = (-165, 21);
target = up;
type = BottomGhost;
}
);
layerId = m01;
shapes = (
{
closed = 1;
nodes = (
(209,622,ls),
(209,674,o),
(237,698,o),
(276,698,cs),
(294,698,o),
(315,693,o),
(326,687,c),
(329,687,l),
(329,730,l),
(310,738,o),
(292,741,o),
(271,741,cs),
(207,741,o),
(160,697,o),
(160,621,cs),
(160,-57,ls),
(160,-109,o),
(132,-133,o),
(93,-133,cs),
(75,-133,o),
(54,-128,o),
(43,-122,c),
(40,-122,l),
(40,-165,l),
(59,-173,o),
(77,-176,o),
(98,-176,cs),
(162,-176,o),
(209,-132,o),
(209,-56,cs)
);
}
);
width = 369;
}
);
note = integral;
unicode = 8747;
},
{
glyphname = ordfeminine;
layers = (
{
hints = (
{
horizontal = 1;
place = (228, 41);
place = (228, 41);
type = Stem;
},
{
horizontal = 1;
place = (659, 40);
place = (659, 40);
type = Stem;
},
{
place = (37, 51);
place = (37, 51);
type = Stem;
},
{
place = (345, 48);
place = (345, 48);
type = Stem;
},
{
horizontal = 1;
place = (233, 39);
place = (233, 39);
type = Stem;
}
);
layerId = m01;
shapes = (
{
closed = 1;
nodes = (
(393,559,ls),
(393,654,o),
(334,699,o),
(236,699,cs),
(129,699,o),
(70,646,o),
(60,559,c),
(108,559,l),
(116,624,o),
(158,659,o),
(236,659,cs),
(306,659,o),
(345,627,o),
(345,563,cs),
(345,552,ls),
(345,510,o),
(318,503,o),
(219,494,cs),
(121,484,o),
(37,462,o),
(37,356,cs),
(37,273,o),
(103,228,o),
(186,228,cs),
(276,228,o),
(317,272,o),
(343,307,c),
(345,307,l),
(345,301,ls),
(345,254,o),
(373,233,o),
(412,233,cs),
(432,233,o),
(444,237,o),
(452,241,c),
(452,277,l),
(449,277,l),
(440,274,o),
(432,272,o),
(425,272,cs),
(407,272,o),
(393,280,o),
(393,307,cs)
);
},
{
closed = 1;
nodes = (
(137,269,o),
(88,292,o),
(88,355,cs),
(88,436,o),
(145,446,o),
(224,455,cs),
(268,460,o),
(315,467,o),
(345,482,c),
(345,401,ls),
(345,336,o),
(293,269,o),
(193,269,cs)
);
}
);
width = 463;
}
);
note = ordfeminine;
unicode = 170;
},
{
glyphname = ordmasculine;
layers = (
{
hints = (
{
horizontal = 1;
place = (228, 41);
place = (228, 41);
type = Stem;
},
{
horizontal = 1;
place = (660, 39);
place = (660, 39);
type = Stem;
},
{
place = (25, 49);
place = (25, 49);
type = Stem;
},
{
place = (384, 50);
place = (384, 50);
type = Stem;
}
);
layerId = m01;
shapes = (
{
closed = 1;
nodes = (
(358,228,o),
(434,329,o),
(434,464,cs),
(434,599,o),
(358,699,o),
(230,699,cs),
(101,699,o),
(25,599,o),
(25,464,cs),
(25,329,o),
(101,228,o),
(230,228,cs)
);
},
{
closed = 1;
nodes = (
(128,269,o),
(74,356,o),
(74,464,cs),
(74,572,o),
(128,660,o),
(230,660,cs),
(331,660,o),
(384,572,o),
(384,464,cs),
(384,356,o),
(331,269,o),
(230,269,cs)
);
}
);
width = 459;
}
);
note = ordmasculine;
unicode = 186;
},
{
glyphname = Omega;
layers = (
{
hints = (
{
horizontal = 1;
place = (0, 46);
place = (0, 46);
type = Stem;
},
{
horizontal = 1;
place = (682, 47);
place = (682, 47);
type = Stem;
},
{
place = (34, 54);
place = (34, 54);
type = Stem;
},
{
place = (210, 79);
place = (210, 79);
type = Stem;
},
{
place = (602, 54);
place = (602, 54);
type = Stem;
}
);
layerId = m01;
shapes = (
{
closed = 1;
nodes = (
(88,548,o),
(177,682,o),
(344,682,cs),
(511,682,o),
(602,548,o),
(602,371,cs),
(602,227,o),
(535,96,o),
(401,48,c),
(401,0,l),
(652,0,l),
(652,46,l),
(480,46,l),
(480,48,l),
(587,103,o),
(656,223,o),
(656,371,cs),
(656,583,o),
(530,729,o),
(344,729,cs),
(158,729,o),
(34,583,o),
(34,371,cs),
(34,223,o),
(103,103,o),
(210,48,c),
(210,46,l),
(38,46,l),
(38,0,l),
(289,0,l),
(289,48,l),
(161,97,o),
(88,227,o),
(88,371,cs)
);
}
);
width = 690;
}
);
note = Omega;
unicode = 8486;
},
{
glyphname = ae;
kernLeft = a;
kernRight = e;
layers = (
{
hints = (
{
horizontal = 1;
place = (-13, 43);
place = (-13, 43);
type = Stem;
},
{
horizontal = 1;
place = (253, 40);
place = (253, 40);
type = Stem;
},
{
horizontal = 1;
place = (486, 42);
place = (486, 42);
type = Stem;
},
{
place = (23, 50);
place = (23, 50);
type = Stem;
},
{
place = (377, 49);
place = (377, 49);
type = Stem;
},
{
place = (767, 50);
place = (767, 50);
type = Stem;
}
);
layerId = m01;
shapes = (
{
closed = 1;
nodes = (
(817,253,l),
(818,351,o),
(799,425,o),
(742,478,cs),
(708,510,o),
(662,528,o),
(606,528,cs),
(519,528,o),
(454,486,o),
(417,416,c),
(400,490,o),
(343,528,o),
(249,528,cs),
(129,528,o),
(62,470,o),
(49,370,c),
(98,370,l),
(108,445,o),
(158,486,o),
(249,486,cs),
(331,486,o),
(377,448,o),
(377,370,cs),
(377,356,ls),
(377,308,o),
(349,302,o),
(227,290,cs),
(119,279,o),
(23,256,o),
(23,133,cs),
(23,38,o),
(99,-13,o),
(201,-13,cs),
(300,-13,o),
(368,31,o),
(406,109,c),
(407,109,l),
(444,33,o),
(512,-13,o),
(610,-13,cs),
(725,-13,o),
(793,58,o),
(814,154,c),
(767,154,l),
(746,84,o),
(703,30,o),
(610,30,cs),
(483,30,o),
(427,129,o),
(426,253,c)
);
},
{
closed = 1;
nodes = (
(132,29,o),
(73,58,o),
(73,131,cs),
(73,229,o),
(142,240,o),
(233,250,cs),
(286,256,o),
(341,263,o),
(377,281,c),
(377,184,ls),
(377,106,o),
(315,29,o),
(204,29,cs)
);
},
{
closed = 1;
nodes = (
(427,293,l),
(437,402,o),
(494,486,o),
(606,486,cs),
(720,486,o),
(764,395,o),
(767,293,c)
);
}
);
width = 842;
}
);
note = ae;
unicode = 230;
},
{
glyphname = oslash;
kernLeft = c;
kernRight = o;
layers = (
{
hints = (
{
horizontal = 1;
place = (-13, 42);
place = (-13, 42);
type = Stem;
},
{
horizontal = 1;
place = (487, 41);
place = (487, 41);
type = Stem;
},
{
place = (25, 50);
place = (25, 50);
type = Stem;
},
{
place = (439, 50);
place = (439, 50);
type = Stem;
},
{
horizontal = 1;
place = (528, -20);
target = down;
type = TopGhost;
},
{
horizontal = 1;
place = (-13, 21);
target = up;
type = BottomGhost;
}
);
layerId = m01;
shapes = (
{
closed = 1;
nodes = (
(41,-15,l),
(98,50,l),
(137,10,o),
(191,-13,o),
(257,-13,cs),
(403,-13,o),
(489,102,o),
(489,258,cs),
(489,329,o),
(471,390,o),
(438,437,c),
(499,507,l),
(473,530,l),
(416,465,l),
(377,505,o),
(323,528,o),
(257,528,cs),
(112,528,o),
(25,414,o),
(25,258,cs),
(25,187,o),
(42,124,o),
(76,77,c),
(15,8,l)
);
},
{
closed = 1;
nodes = (
(75,384,o),
(138,487,o),
(257,487,cs),
(311,487,o),
(354,465,o),
(385,429,c),
(109,115,l),
(86,154,o),
(75,204,o),
(75,258,cs)
);
},
{
closed = 1;
nodes = (
(202,29,o),
(160,50,o),
(129,86,c),
(405,400,l),
(428,361,o),
(439,311,o),
(439,258,cs),
(439,132,o),
(376,29,o),
(257,29,cs)
);
}
);
width = 514;
}
);
note = oslash;
unicode = 248;
},
{
glyphname = questiondown;
kernRight = questiondown;
layers = (
{
hints = (
{
horizontal = 1;
place = (-140, 46);
place = (-140, 46);
type = Stem;
},
{
horizontal = 1;
place = (509, 79);
place = (509, 79);
type = Stem;
},
{
place = (48, 53);
place = (48, 53);
type = Stem;
},
{
place = (246, 49);
place = (246, 49);
type = Stem;
},
{
place = (408, 51);
place = (408, 51);
type = Stem;
},
{
place = (240, 61);
place = (240, 61);
type = Stem;
}
);
layerId = m01;
shapes = (
{
closed = 1;
nodes = (
(246,415,l),
(246,316,o),
(226,287,o),
(160,231,cs),
(108,187,o),
(48,147,o),
(48,38,cs),
(48,-64,o),
(124,-140,o),
(239,-140,cs),
(391,-140,o),
(458,-32,o),
(459,71,c),
(408,71,l),
(406,-22,o),
(345,-94,o),
(242,-94,cs),
(160,-94,o),
(101,-46,o),
(101,39,cs),
(101,122,o),
(149,160,o),
(194,197,cs),
(268,258,o),
(295,299,o),
(295,415,c)
);
},
{
closed = 1;
nodes = (
(301,588,l),
(240,588,l),
(240,509,l),
(301,509,l)
);
}
);
width = 493;
}
);
note = questiondown;
unicode = 191;
},
{
glyphname = exclamdown;
kernRight = exclamdown;
layers = (
{
hints = (
{
horizontal = 1;
place = (509, 79);
place = (509, 79);
type = Stem;
},
{
place = (71, 55);
place = (71, 55);
type = Stem;
},
{
place = (68, 61);
place = (68, 61);
type = Stem;
}
);
layerId = m01;
shapes = (
{
closed = 1;
nodes = (
(116,415,l),
(81,415,l),
(71,102,l),
(71,-127,l),
(126,-127,l),
(126,102,l)
);
},
{
closed = 1;
nodes = (
(129,588,l),
(68,588,l),
(68,509,l),
(129,509,l)
);
}
);
width = 197;
}
);
note = exclamdown;
unicode = 161;
},
{
glyphname = logicalnot;
layers = (
{
hints = (
{
horizontal = 1;
place = (325, 46);
place = (325, 46);
type = Stem;
},
{
place = (384, 50);
place = (384, 50);
type = Stem;
}
);
layerId = m01;
shapes = (
{
closed = 1;
nodes = (
(56,325,l),
(384,325,l),
(384,135,l),
(434,135,l),
(434,371,l),
(56,371,l)
);
}
);
width = 510;
}
);
note = logicalnot;
unicode = 172;
},
{
glyphname = radical;
layers = (
{
hints = (
{
horizontal = 1;
place = (-100, 56);
place = (-100, 56);
type = Stem;
},
{
horizontal = 1;
place = (260, 44);
place = (260, 44);
type = Stem;
},
{
horizontal = 1;
place = (715, -20);
target = down;
type = TopGhost;
},
{
place = (12, 531);
place = (12, 531);
type = Stem;
}
);
layerId = m01;
shapes = (
{
closed = 1;
nodes = (
(12,260,l),
(87,260,l),
(232,-100,l),
(287,-100,l),
(543,715,l),
(493,715,l),
(298,92,ls),
(280,36,o),
(260,-44,o),
(260,-44,c),
(258,-44,l),
(258,-44,o),
(234,31,o),
(212,87,cs),
(127,304,l),
(12,304,l)
);
}
);
width = 554;
}
);
note = radical;
unicode = 8730;
},
{
glyphname = florin;
layers = (
{
hints = (
{
horizontal = 1;
place = (-148, 43);
place = (-148, 43);
type = Stem;
},
{
horizontal = 1;
place = (355, 41);
place = (355, 41);
type = Stem;
},
{
horizontal = 1;
place = (642, 43);
place = (642, 43);
type = Stem;
},
{
place = (44, 237);
place = (44, 237);
type = Stem;
}
);
layerId = m01;
shapes = (
{
closed = 1;
nodes = (
(44,355,l),
(126,355,l),
(70,-44,ls),
(64,-86,o),
(41,-105,o),
(-1,-105,cs),
(-16,-105,l),
(-16,-148,l),
(-1,-148,ls),
(69,-148,o),
(109,-121,o),
(119,-48,cs),
(176,355,l),
(281,355,l),
(281,396,l),
(182,396,l),
(207,574,ls),
(213,618,o),
(227,642,o),
(273,642,cs),
(311,642,l),
(311,685,l),
(273,685,ls),
(202,685,o),
(168,648,o),
(158,578,cs),
(132,396,l),
(44,396,l)
);
}
);
width = 329;
}
);
note = florin;
unicode = 402;
},
{
glyphname = approxequal;
layers = (
{
hints = (
{
horizontal = 1;
place = (187, 46);
place = (187, 46);
type = Stem;
},
{
horizontal = 1;
place = (332, 46);
place = (332, 46);
type = Stem;
},
{
place = (51, 46);
place = (51, 46);
type = Stem;
},
{
horizontal = 1;
place = (384, 46);
place = (384, 46);
type = Stem;
},
{
horizontal = 1;
place = (239, 46);
place = (239, 46);
type = Stem;
}
);
layerId = m01;
shapes = (
{
closed = 1;
nodes = (
(416,332,o),
(454,367,o),
(459,434,c),
(414,434,l),
(411,397,o),
(388,378,o),
(351,378,cs),
(286,378,o),
(216,430,o),
(153,430,cs),
(95,430,o),
(57,395,o),
(51,328,c),
(97,328,l),
(100,364,o),
(121,384,o),
(153,384,cs),
(205,384,o),
(281,332,o),
(352,332,cs)
);
},
{
closed = 1;
nodes = (
(416,187,o),
(454,222,o),
(459,289,c),
(414,289,l),
(411,252,o),
(388,233,o),
(351,233,cs),
(286,233,o),
(216,285,o),
(153,285,cs),
(95,285,o),
(57,250,o),
(51,183,c),
(97,183,l),
(100,219,o),
(121,239,o),
(153,239,cs),
(205,239,o),
(281,187,o),
(352,187,cs)
);
}
);
width = 510;
}
);
note = approxequal;
unicode = 8776;
},
{
glyphname = Delta;
layers = (
{
hints = (
{
horizontal = 1;
place = (0, 44);
place = (0, 44);
type = Stem;
},
{
horizontal = 1;
place = (715, -20);
target = down;
type = TopGhost;
},
{
place = (22, 580);
place = (22, 580);
type = Stem;
},
{
horizontal = 1;
place = (663, 52);
place = (663, 52);
type = Stem;
}
);
layerId = m01;
shapes = (
{
closed = 1;
nodes = (
(22,0,l),
(602,0,l),
(602,41,l),
(341,715,l),
(282,715,l),
(22,41,l)
);
},
{
closed = 1;
nodes = (
(273,557,ls),
(290,602,o),
(310,663,o),
(310,663,c),
(312,663,l),
(312,663,o),
(335,598,o),
(351,557,cs),
(547,44,l),
(76,44,l)
);
}
);
width = 624;
}
);
note = Delta;
unicode = 8710;
},
{
glyphname = guillemotleft;
kernLeft = guillemotleft;
kernRight = guillemotleft;
layers = (
{
hints = (
{
horizontal = 1;
place = (126, 291);
place = (126, 291);
type = Stem;
},
{
place = (60, 124);
place = (60, 124);
type = Stem;
},
{
place = (218, 124);
place = (218, 124);
type = Stem;
}
);
layerId = m01;
shapes = (
{
closed = 1;
nodes = (
(342,126,l),
(342,188,l),
(249,270,l),
(249,272,l),
(342,355,l),
(342,417,l),
(218,305,l),
(218,238,l)
);
},
{
closed = 1;
nodes = (
(184,126,l),
(184,188,l),
(91,270,l),
(91,272,l),
(184,355,l),
(184,417,l),
(60,305,l),
(60,238,l)
);
}
);
width = 402;
}
);
note = guillemotleft;
unicode = 171;
},
{
glyphname = guillemotright;
kernLeft = guillemotright;
kernRight = guillemotright;
layers = (
{
hints = (
{
horizontal = 1;
place = (126, 291);
place = (126, 291);
type = Stem;
},
{
place = (60, 124);
place = (60, 124);
type = Stem;
},
{
place = (218, 124);
place = (218, 124);
type = Stem;
}
);
layerId = m01;
shapes = (
{
closed = 1;
nodes = (
(60,417,l),
(60,355,l),
(153,273,l),
(153,271,l),
(60,188,l),
(60,126,l),
(184,238,l),
(184,305,l)
);
},
{
closed = 1;
nodes = (
(218,417,l),
(218,355,l),
(311,273,l),
(311,271,l),
(218,188,l),
(218,126,l),
(342,238,l),
(342,305,l)
);
}
);
width = 402;
}
);
note = guillemotright;
unicode = 187;
},
{
glyphname = ellipsis;
kernLeft = comma;
kernRight = comma;
layers = (
{
hints = (
{
horizontal = 1;
place = (0, 79);
place = (0, 79);
type = Stem;
},
{
place = (41, 61);
place = (41, 61);
type = Stem;
},
{
place = (224, 61);
place = (224, 61);
type = Stem;
},
{
place = (407, 61);
place = (407, 61);
type = Stem;
}
);
layerId = m01;
shapes = (
{
closed = 1;
nodes = (
(41,0,l),
(102,0,l),
(102,79,l),
(41,79,l)
);
},
{
closed = 1;
nodes = (
(407,0,l),
(468,0,l),
(468,79,l),
(407,79,l)
);
},
{
closed = 1;
nodes = (
(224,0,l),
(285,0,l),
(285,79,l),
(224,79,l)
);
}
);
width = 509;
}
);
note = ellipsis;
unicode = 8230;
},
{
glyphname = Agrave;
kernLeft = A;
kernRight = A;
layers = (
{
hints = (
{
horizontal = 1;
place = (0, 21);
target = up;
type = BottomGhost;
},
{
horizontal = 1;
place = (229, 44);
place = (229, 44);
type = Stem;
},
{
horizontal = 1;
place = (715, -20);
target = down;
type = TopGhost;
},
{
horizontal = 1;
place = (753, 110);
place = (753, 110);
type = Stem;
},
{
place = (6, 612);
place = (6, 612);
type = Stem;
},
{
horizontal = 1;
place = (663, 52);
place = (663, 52);
type = Stem;
}
);
layerId = m01;
shapes = (
{
closed = 1;
nodes = (
(6,0,l),
(59,0,l),
(147,229,l),
(476,229,l),
(564,0,l),
(618,0,l),
(341,715,l),
(282,715,l)
);
},
{
closed = 1;
nodes = (
(273,557,ls),
(290,602,o),
(310,663,o),
(310,663,c),
(312,663,l),
(312,663,o),
(335,598,o),
(351,557,cs),
(459,273,l),
(164,273,l)
);
},
{
closed = 1;
nodes = (
(343,753,l),
(267,863,l),
(198,863,l),
(299,753,l)
);
}
);
width = 624;
}
);
note = Agrave;
unicode = 192;
},
{
glyphname = Atilde;
kernLeft = A;
kernRight = A;
layers = (
{
hints = (
{
horizontal = 1;
place = (0, 21);
target = up;
type = BottomGhost;
},
{
horizontal = 1;
place = (229, 44);
place = (229, 44);
type = Stem;
},
{
horizontal = 1;
place = (715, -20);
target = down;
type = TopGhost;
},
{
horizontal = 1;
place = (760, 43);
place = (760, 43);
type = Stem;
},
{
place = (181, 42);
place = (181, 42);
type = Stem;
},
{
place = (402, 42);
place = (402, 42);
type = Stem;
},
{
horizontal = 1;
place = (663, 52);
place = (663, 52);
type = Stem;
},
{
horizontal = 1;
place = (803, 43);
place = (803, 43);
type = Stem;
}
);
layerId = m01;
shapes = (
{
closed = 1;
nodes = (
(6,0,l),
(59,0,l),
(147,229,l),
(476,229,l),
(564,0,l),
(618,0,l),
(341,715,l),
(282,715,l)
);
},
{
closed = 1;
nodes = (
(273,557,ls),
(290,602,o),
(310,663,o),
(310,663,c),
(312,663,l),
(312,663,o),
(335,598,o),
(351,557,cs),
(459,273,l),
(164,273,l)
);
},
{
closed = 1;
nodes = (
(410,760,o),
(440,789,o),
(444,844,c),
(402,844,l),
(400,818,o),
(386,803,o),
(369,803,cs),
(340,803,o),
(296,846,o),
(254,846,cs),
(215,846,o),
(186,819,o),
(181,762,c),
(223,762,l),
(225,788,o),
(240,803,o),
(254,803,cs),
(283,803,o),
(330,760,o),
(371,760,cs)
);
}
);
width = 624;
}
);
note = Atilde;
unicode = 195;
},
{
glyphname = Otilde;
kernLeft = C;
kernRight = O;
layers = (
{
hints = (
{
horizontal = 1;
place = (-13, 47);
place = (-13, 47);
type = Stem;
},
{
horizontal = 1;
place = (682, 47);
place = (682, 47);
type = Stem;
},
{
horizontal = 1;
place = (760, 43);
place = (760, 43);
type = Stem;
},
{
place = (34, 54);
place = (34, 54);
type = Stem;
},
{
place = (445, 42);
place = (445, 42);
type = Stem;
},
{
place = (622, 54);
place = (622, 54);
type = Stem;
},
{
horizontal = 1;
place = (803, 43);
place = (803, 43);
type = Stem;
},
{
place = (224, 42);
place = (224, 42);
type = Stem;
}
);
layerId = m01;
shapes = (
{
closed = 1;
nodes = (
(548,-13,o),
(676,146,o),
(676,358,cs),
(676,570,o),
(548,729,o),
(354,729,cs),
(160,729,o),
(34,570,o),
(34,358,cs),
(34,146,o),
(160,-13,o),
(354,-13,cs)
);
},
{
closed = 1;
nodes = (
(180,34,o),
(88,181,o),
(88,358,cs),
(88,535,o),
(180,682,o),
(354,682,cs),
(528,682,o),
(622,535,o),
(622,358,cs),
(622,181,o),
(528,34,o),
(354,34,cs)
);
},
{
closed = 1;
nodes = (
(453,760,o),
(483,789,o),
(487,844,c),
(445,844,l),
(443,818,o),
(429,803,o),
(412,803,cs),
(383,803,o),
(339,846,o),
(297,846,cs),
(258,846,o),
(229,819,o),
(224,762,c),
(266,762,l),
(268,788,o),
(283,803,o),
(297,803,cs),
(326,803,o),
(373,760,o),
(414,760,cs)
);
}
);
width = 710;
}
);
note = Otilde;
unicode = 213;
},
{
glyphname = OE;
kernLeft = C;
kernRight = E;
layers = (
{
hints = (
{
horizontal = 1;
place = (-13, 47);
place = (-13, 47);
type = Stem;
},
{
horizontal = 1;
place = (346, 45);
place = (346, 45);
type = Stem;
},
{
horizontal = 1;
place = (669, 46);
place = (669, 46);
type = Stem;
},
{
place = (34, 54);
place = (34, 54);
type = Stem;
},
{
place = (596, 52);
place = (596, 52);
type = Stem;
},
{
horizontal = 1;
place = (0, 48);
place = (0, 48);
type = Stem;
},
{
horizontal = 1;
place = (682, 47);
place = (682, 47);
type = Stem;
}
);
layerId = m01;
shapes = (
{
closed = 1;
nodes = (
(464,-13,o),
(545,36,o),
(596,123,c),
(596,0,l),
(1060,0,l),
(1060,48,l),
(648,48,l),
(648,346,l),
(1026,346,l),
(1026,391,l),
(648,391,l),
(648,669,l),
(1050,669,l),
(1050,715,l),
(596,715,l),
(596,591,l),
(549,676,o),
(467,729,o),
(355,729,cs),
(160,729,o),
(34,570,o),
(34,358,cs),
(34,146,o),
(160,-13,o),
(355,-13,cs)
);
},
{
closed = 1;
nodes = (
(180,34,o),
(88,181,o),
(88,358,cs),
(88,535,o),
(180,682,o),
(354,682,cs),
(489,682,o),
(591,585,o),
(596,454,c),
(596,275,ls),
(596,134,o),
(490,34,o),
(354,34,cs)
);
}
);
width = 1096;
}
);
note = OE;
unicode = 338;
},
{
glyphname = oe;
kernLeft = c;
kernRight = e;
layers = (
{
hints = (
{
horizontal = 1;
place = (-13, 42);
place = (-13, 42);
type = Stem;
},
{
horizontal = 1;
place = (253, 40);
place = (253, 40);
type = Stem;
},
{
horizontal = 1;
place = (487, 41);
place = (487, 41);
type = Stem;
},
{
place = (25, 50);
place = (25, 50);
type = Stem;
},
{
place = (439, 50);
place = (439, 50);
type = Stem;
},
{
place = (830, 50);
place = (830, 50);
type = Stem;
}
);
layerId = m01;
shapes = (
{
closed = 1;
nodes = (
(360,-13,o),
(431,44,o),
(464,134,c),
(495,44,o),
(565,-13,o),
(673,-13,cs),
(788,-13,o),
(856,58,o),
(877,154,c),
(830,154,l),
(809,84,o),
(766,30,o),
(673,30,cs),
(546,30,o),
(490,129,o),
(489,253,c),
(880,253,l),
(881,351,o),
(862,425,o),
(805,478,cs),
(771,510,o),
(725,528,o),
(669,528,cs),
(568,528,o),
(497,471,o),
(464,380,c),
(432,470,o),
(361,528,o),
(257,528,cs),
(112,528,o),
(25,414,o),
(25,258,cs),
(25,102,o),
(112,-13,o),
(257,-13,cs)
);
},
{
closed = 1;
nodes = (
(138,29,o),
(75,132,o),
(75,258,cs),
(75,384,o),
(138,487,o),
(257,487,cs),
(376,487,o),
(439,384,o),
(439,258,cs),
(439,132,o),
(376,29,o),
(257,29,cs)
);
},
{
closed = 1;
nodes = (
(490,293,l),
(500,402,o),
(557,486,o),
(669,486,cs),
(783,486,o),
(827,395,o),
(830,293,c)
);
}
);
width = 905;
}
);
note = oe;
unicode = 339;
},
{
glyphname = endash;
kernLeft = hyphen;
kernRight = hyphen;
layers = (
{
hints = (
{
horizontal = 1;
place = (233, 43);
place = (233, 43);
type = Stem;
},
{
place = (38, 407);
place = (38, 407);
type = Stem;
}
);
layerId = m01;
shapes = (
{
closed = 1;
nodes = (
(38,233,l),
(445,233,l),
(445,276,l),
(38,276,l)
);
}
);
width = 483;
}
);
note = endash;
unicode = 8211;
},
{
glyphname = emdash;
kernLeft = hyphen;
kernRight = hyphen;
layers = (
{
hints = (
{
horizontal = 1;
place = (233, 43);
place = (233, 43);
type = Stem;
},
{
place = (38, 667);
place = (38, 667);
type = Stem;
}
);
layerId = m01;
shapes = (
{
closed = 1;
nodes = (
(38,233,l),
(705,233,l),
(705,276,l),
(38,276,l)
);
}
);
width = 743;
}
);
note = emdash;
unicode = 8212;
},
{
glyphname = quotedblleft;
kernLeft = quotedblleft;
kernRight = quotedblleft;
layers = (
{
hints = (
{
horizontal = 1;
place = (546, 76);
place = (546, 76);
type = Stem;
},
{
horizontal = 1;
place = (717, -20);
target = down;
type = TopGhost;
},
{
place = (42, 33);
place = (42, 33);
type = Stem;
},
{
place = (155, 33);
place = (155, 33);
type = Stem;
}
);
layerId = m01;
shapes = (
{
closed = 1;
nodes = (
(42,546,l),
(101,546,l),
(101,622,l),
(75,622,l),
(75,635,ls),
(75,668,o),
(86,680,o),
(103,688,c),
(103,717,l),
(62,710,o),
(42,681,o),
(42,631,cs)
);
},
{
closed = 1;
nodes = (
(155,546,l),
(214,546,l),
(214,622,l),
(188,622,l),
(188,635,ls),
(188,668,o),
(199,680,o),
(216,688,c),
(216,717,l),
(175,710,o),
(155,681,o),
(155,631,cs)
);
}
);
width = 256;
}
);
note = quotedblleft;
unicode = 8220;
},
{
glyphname = quotedblright;
kernLeft = quotedblright;
kernRight = quotedblright;
layers = (
{
hints = (
{
horizontal = 1;
place = (639, 76);
place = (639, 76);
type = Stem;
},
{
place = (68, 33);
place = (68, 33);
type = Stem;
},
{
place = (181, 33);
place = (181, 33);
type = Stem;
}
);
layerId = m01;
shapes = (
{
closed = 1;
nodes = (
(153,544,l),
(194,551,o),
(214,580,o),
(214,630,cs),
(214,715,l),
(155,715,l),
(155,639,l),
(181,639,l),
(181,626,ls),
(181,593,o),
(170,581,o),
(153,573,c)
);
},
{
closed = 1;
nodes = (
(40,544,l),
(81,551,o),
(101,580,o),
(101,630,cs),
(101,715,l),
(42,715,l),
(42,639,l),
(68,639,l),
(68,626,ls),
(68,593,o),
(57,581,o),
(40,573,c)
);
}
);
width = 256;
}
);
note = quotedblright;
unicode = 8221;
},
{
glyphname = quoteleft;
kernLeft = quotedblleft;
kernRight = quotedblleft;
layers = (
{
hints = (
{
horizontal = 1;
place = (546, 76);
place = (546, 76);
type = Stem;
},
{
horizontal = 1;
place = (717, -20);
target = down;
type = TopGhost;
},
{
place = (42, 33);
place = (42, 33);
type = Stem;
}
);
layerId = m01;
shapes = (
{
closed = 1;
nodes = (
(42,546,l),
(101,546,l),
(101,622,l),
(75,622,l),
(75,635,ls),
(75,668,o),
(86,680,o),
(103,688,c),
(103,717,l),
(62,710,o),
(42,681,o),
(42,631,cs)
);
}
);
width = 143;
}
);
note = quoteleft;
unicode = 8216;
},
{
glyphname = quoteright;
kernLeft = quotedblright;
kernRight = quotedblright;
layers = (
{
hints = (
{
horizontal = 1;
place = (639, 76);
place = (639, 76);
type = Stem;
},
{
place = (68, 33);
place = (68, 33);
type = Stem;
}
);
layerId = m01;
shapes = (
{
closed = 1;
nodes = (
(40,544,l),
(81,551,o),
(101,580,o),
(101,630,cs),
(101,715,l),
(42,715,l),
(42,639,l),
(68,639,l),
(68,626,ls),
(68,593,o),
(57,581,o),
(40,573,c)
);
}
);
width = 143;
}
);
note = quoteright;
unicode = 8217;
},
{
glyphname = divide;
kernLeft = minus;
kernRight = minus;
layers = (
{
hints = (
{
place = (123, 75);
place = (123, 75);
type = Stem;
},
{
place = (303, 46);
place = (303, 46);
type = Stem;
},
{
place = (454, 75);
place = (454, 75);
type = Stem;
},
{
place = (224, 61);
place = (224, 61);
type = Stem;
}
);
layerId = m01;
shapes = (
{
closed = 1;
nodes = (
(56,303,l),
(454,303,l),
(454,349,l),
(56,349,l)
);
},
{
closed = 1;
nodes = (
(224,123,l),
(285,123,l),
(285,198,l),
(224,198,l)
);
},
{
closed = 1;
nodes = (
(224,454,l),
(285,454,l),
(285,529,l),
(224,529,l)
);
}
);
width = 510;
}
);
note = divide;
unicode = 247;
},
{
glyphname = lozenge;
layers = (
{
hints = (
{
horizontal = 1;
place = (0, 21);
target = up;
type = BottomGhost;
},
{
horizontal = 1;
place = (715, -20);
target = down;
type = TopGhost;
},
{
place = (35, 450);
place = (35, 450);
type = Stem;
},
{
horizontal = 1;
place = (0, 52);
place = (0, 52);
type = Stem;
},
{
horizontal = 1;
place = (663, 52);
place = (663, 52);
type = Stem;
}
);
layerId = m01;
shapes = (
{
closed = 1;
nodes = (
(485,356,l),
(284,715,l),
(235,715,l),
(35,357,l),
(236,0,l),
(285,0,l)
);
},
{
closed = 1;
nodes = (
(260,52,l),
(90,358,l),
(258,663,l),
(260,663,l),
(430,355,l),
(262,52,l)
);
}
);
width = 520;
}
);
note = lozenge;
unicode = 9674;
},
{
glyphname = ydieresis;
kernLeft = yacute;
kernRight = yacute;
layers = (
{
hints = (
{
horizontal = 1;
place = (-171, 45);
place = (-171, 45);
type = Stem;
},
{
horizontal = 1;
place = (517, -20);
target = down;
type = TopGhost;
},
{
horizontal = 1;
place = (635, 80);
place = (635, 80);
type = Stem;
},
{
place = (131, 49);
place = (131, 49);
type = Stem;
},
{
place = (282, 49);
place = (282, 49);
type = Stem;
},
{
horizontal = 1;
place = (-165, 21);
target = up;
type = BottomGhost;
}
);
layerId = m01;
shapes = (
{
closed = 1;
nodes = (
(166,-171,o),
(208,-146,o),
(238,-62,cs),
(446,517,l),
(396,517,l),
(276,175,ls),
(258,123,o),
(234,46,o),
(234,46,c),
(232,46,l),
(232,46,o),
(206,124,o),
(187,175,cs),
(61,517,l),
(10,517,l),
(208,-8,l),
(193,-51,ls),
(174,-106,o),
(143,-126,o),
(100,-126,cs),
(78,-126,o),
(67,-123,o),
(59,-121,c),
(57,-121,l),
(57,-165,l),
(68,-168,o),
(78,-171,o),
(96,-171,cs)
);
},
{
closed = 1;
nodes = (
(131,635,l),
(180,635,l),
(180,715,l),
(131,715,l)
);
},
{
closed = 1;
nodes = (
(282,635,l),
(331,635,l),
(331,715,l),
(282,715,l)
);
}
);
width = 455;
}
);
note = ydieresis;
unicode = 255;
},
{
glyphname = Ydieresis;
kernLeft = Yacute;
kernRight = Yacute;
layers = (
{
hints = (
{
horizontal = 1;
place = (0, 21);
target = up;
type = BottomGhost;
},
{
horizontal = 1;
place = (715, -20);
target = down;
type = TopGhost;
},
{
horizontal = 1;
place = (755, 80);
place = (755, 80);
type = Stem;
},
{
place = (189, 49);
place = (189, 49);
type = Stem;
},
{
place = (340, 49);
place = (340, 49);
type = Stem;
}
);
layerId = m01;
shapes = (
{
closed = 1;
nodes = (
(263,0,l),
(315,0,l),
(315,316,l),
(574,715,l),
(518,715,l),
(291,365,l),
(289,365,l),
(62,715,l),
(5,715,l),
(263,318,l)
);
},
{
closed = 1;
nodes = (
(189,755,l),
(238,755,l),
(238,835,l),
(189,835,l)
);
},
{
closed = 1;
nodes = (
(340,755,l),
(389,755,l),
(389,835,l),
(340,835,l)
);
}
);
width = 579;
}
);
note = Ydieresis;
unicode = 376;
},
{
glyphname = fraction;
layers = (
{
hints = (
{
horizontal = 1;
place = (0, 21);
target = up;
type = BottomGhost;
},
{
horizontal = 1;
place = (715, -20);
target = down;
type = TopGhost;
},
{
place = (-186, 565);
place = (-186, 565);
type = Stem;
}
);
layerId = m01;
shapes = (
{
closed = 1;
nodes = (
(-186,0,l),
(-133,0,l),
(379,715,l),
(326,715,l)
);
}
);
width = 193;
}
);
note = fraction;
unicode = 8260;
},
{
glyphname = Euro;
layers = (
{
hints = (
{
horizontal = 1;
place = (-13, 45);
place = (-13, 45);
type = Stem;
},
{
horizontal = 1;
place = (259, 41);
place = (259, 41);
type = Stem;
},
{
horizontal = 1;
place = (382, 41);
place = (382, 41);
type = Stem;
},
{
horizontal = 1;
place = (655, 44);
place = (655, 44);
type = Stem;
},
{
place = (87, 53);
place = (87, 53);
type = Stem;
},
{
place = (517, 49);
place = (517, 49);
type = Stem;
}
);
layerId = m01;
shapes = (
{
closed = 1;
nodes = (
(22,382,l),
(87,382,l),
(86,369,o),
(86,355,o),
(86,342,cs),
(86,327,o),
(86,313,o),
(87,300,c),
(22,300,l),
(22,259,l),
(91,259,l),
(112,94,o),
(198,-13,o),
(335,-13,cs),
(471,-13,o),
(555,91,o),
(566,249,c),
(517,249,l),
(506,127,o),
(450,32,o),
(335,32,cs),
(221,32,o),
(161,126,o),
(144,259,c),
(359,259,l),
(359,300,l),
(140,300,l),
(139,313,o),
(139,327,o),
(139,342,cs),
(139,355,o),
(139,369,o),
(140,382,c),
(359,382,l),
(359,423,l),
(143,423,l),
(159,559,o),
(218,655,o),
(338,655,cs),
(433,655,o),
(484,597,o),
(502,498,c),
(552,498,l),
(530,626,o),
(451,699,o),
(338,699,cs),
(200,699,o),
(112,589,o),
(91,423,c),
(22,423,l)
);
}
);
width = 600;
}
);
note = Euro;
unicode = 8364;
},
{
glyphname = guilsinglleft;
kernLeft = guillemotleft;
kernRight = guillemotleft;
layers = (
{
hints = (
{
horizontal = 1;
place = (126, 291);
place = (126, 291);
type = Stem;
},
{
place = (60, 31);
place = (60, 31);
type = Stem;
}
);
layerId = m01;
shapes = (
{
closed = 1;
nodes = (
(194,126,l),
(194,188,l),
(91,270,l),
(91,272,l),
(194,355,l),
(194,417,l),
(60,305,l),
(60,238,l)
);
}
);
width = 254;
}
);
note = guilsinglleft;
unicode = 8249;
},
{
glyphname = guilsinglright;
kernLeft = guillemotright;
kernRight = guillemotright;
layers = (
{
hints = (
{
horizontal = 1;
place = (126, 291);
place = (126, 291);
type = Stem;
},
{
place = (163, 31);
place = (163, 31);
type = Stem;
}
);
layerId = m01;
shapes = (
{
closed = 1;
nodes = (
(60,417,l),
(60,355,l),
(163,273,l),
(163,271,l),
(60,188,l),
(60,126,l),
(194,238,l),
(194,305,l)
);
}
);
width = 254;
}
);
note = guilsinglright;
unicode = 8250;
},
{
glyphname = fi;
kernLeft = f;
layers = (
{
hints = (
{
horizontal = 1;
place = (0, 21);
target = up;
type = BottomGhost;
},
{
horizontal = 1;
place = (476, 41);
place = (476, 41);
type = Stem;
},
{
horizontal = 1;
place = (676, 43);
place = (676, 43);
type = Stem;
},
{
place = (89, 49);
place = (89, 49);
type = Stem;
},
{
place = (299, 49);
place = (299, 49);
type = Stem;
},
{
horizontal = 1;
place = (635, 80);
place = (635, 80);
type = Stem;
}
);
layerId = m01;
shapes = (
{
closed = 1;
nodes = (
(12,476,l),
(89,476,l),
(89,0,l),
(138,0,l),
(138,476,l),
(234,476,l),
(234,517,l),
(138,517,l),
(138,614,ls),
(138,652,o),
(152,676,o),
(203,676,cs),
(231,676,l),
(231,719,l),
(200,719,ls),
(126,719,o),
(89,684,o),
(89,615,cs),
(89,517,l),
(12,517,l)
);
},
{
closed = 1;
nodes = (
(299,0,l),
(348,0,l),
(348,517,l),
(299,517,l)
);
},
{
closed = 1;
nodes = (
(299,635,l),
(348,635,l),
(348,715,l),
(299,715,l)
);
}
);
width = 401;
}
);
note = fi;
unicode = 64257;
},
{
glyphname = fl;
kernLeft = f;
layers = (
{
hints = (
{
horizontal = 1;
place = (0, 21);
target = up;
type = BottomGhost;
},
{
horizontal = 1;
place = (476, 41);
place = (476, 41);
type = Stem;
},
{
horizontal = 1;
place = (676, 43);
place = (676, 43);
type = Stem;
},
{
place = (89, 49);
place = (89, 49);
type = Stem;
},
{
place = (299, 49);
place = (299, 49);
type = Stem;
},
{
horizontal = 1;
place = (715, -20);
target = down;
type = TopGhost;
}
);
layerId = m01;
shapes = (
{
closed = 1;
nodes = (
(12,476,l),
(89,476,l),
(89,0,l),
(138,0,l),
(138,476,l),
(234,476,l),
(234,517,l),
(138,517,l),
(138,614,ls),
(138,652,o),
(152,676,o),
(203,676,cs),
(231,676,l),
(231,719,l),
(200,719,ls),
(126,719,o),
(89,684,o),
(89,615,cs),
(89,517,l),
(12,517,l)
);
},
{
closed = 1;
nodes = (
(299,0,l),
(348,0,l),
(348,715,l),
(299,715,l)
);
}
);
width = 401;
}
);
note = fl;
unicode = 64258;
},
{
glyphname = daggerdbl;
layers = (
{
hints = (
{
horizontal = 1;
place = (97, 43);
place = (97, 43);
type = Stem;
},
{
horizontal = 1;
place = (471, 43);
place = (471, 43);
type = Stem;
},
{
horizontal = 1;
place = (715, -20);
target = down;
type = TopGhost;
},
{
place = (223, 50);
place = (223, 50);
type = Stem;
}
);
layerId = m01;
shapes = (
{
closed = 1;
nodes = (
(273,715,l),
(223,715,l),
(223,514,l),
(39,514,l),
(39,471,l),
(223,471,l),
(223,140,l),
(39,140,l),
(39,97,l),
(223,97,l),
(223,-104,l),
(273,-104,l),
(273,97,l),
(457,97,l),
(457,140,l),
(273,140,l),
(273,471,l),
(457,471,l),
(457,514,l),
(273,514,l)
);
}
);
width = 496;
}
);
note = daggerdbl;
unicode = 8225;
},
{
glyphname = periodcentered;
kernLeft = periodcentered;
kernRight = periodcentered;
layers = (
{
hints = (
{
horizontal = 1;
place = (271, 79);
place = (271, 79);
type = Stem;
},
{
place = (41, 61);
place = (41, 61);
type = Stem;
}
);
layerId = m01;
shapes = (
{
closed = 1;
nodes = (
(41,271,l),
(102,271,l),
(102,350,l),
(41,350,l)
);
}
);
width = 143;
}
);
note = periodcentered;
unicode = 183;
},
{
glyphname = quotesinglbase;
kernLeft = quotesinglbase;
kernRight = quotesinglbase;
layers = (
{
hints = (
{
horizontal = 1;
place = (0, 76);
place = (0, 76);
type = Stem;
},
{
place = (68, 33);
place = (68, 33);
type = Stem;
}
);
layerId = m01;
shapes = (
{
closed = 1;
nodes = (
(40,-95,l),
(81,-88,o),
(101,-59,o),
(101,-9,cs),
(101,76,l),
(42,76,l),
(42,0,l),
(68,0,l),
(68,-13,ls),
(68,-46,o),
(57,-58,o),
(40,-66,c)
);
}
);
width = 143;
}
);
note = quotesinglbase;
unicode = 8218;
},
{
glyphname = quotedblbase;
kernLeft = quotesinglbase;
kernRight = quotesinglbase;
layers = (
{
hints = (
{
horizontal = 1;
place = (0, 76);
place = (0, 76);
type = Stem;
},
{
place = (68, 33);
place = (68, 33);
type = Stem;
},
{
place = (181, 33);
place = (181, 33);
type = Stem;
}
);
layerId = m01;
shapes = (
{
closed = 1;
nodes = (
(153,-95,l),
(194,-88,o),
(214,-59,o),
(214,-9,cs),
(214,76,l),
(155,76,l),
(155,0,l),
(181,0,l),
(181,-13,ls),
(181,-46,o),
(170,-58,o),
(153,-66,c)
);
},
{
closed = 1;
nodes = (
(40,-95,l),
(81,-88,o),
(101,-59,o),
(101,-9,cs),
(101,76,l),
(42,76,l),
(42,0,l),
(68,0,l),
(68,-13,ls),
(68,-46,o),
(57,-58,o),
(40,-66,c)
);
}
);
width = 256;
}
);
note = quotedblbase;
unicode = 8222;
},
{
glyphname = perthousand;
kernLeft = percent;
layers = (
{
hints = (
{
horizontal = 1;
place = (-13, 39);
place = (-13, 39);
type = Stem;
},
{
horizontal = 1;
place = (313, 39);
place = (313, 39);
type = Stem;
},
{
horizontal = 1;
place = (660, 39);
place = (660, 39);
type = Stem;
},
{
place = (34, 47);
place = (34, 47);
type = Stem;
},
{
place = (283, 47);
place = (283, 47);
type = Stem;
},
{
place = (440, 47);
place = (440, 47);
type = Stem;
},
{
place = (689, 47);
place = (689, 47);
type = Stem;
},
{
horizontal = 1;
place = (334, 39);
place = (334, 39);
type = Stem;
},
{
place = (794, 47);
place = (794, 47);
type = Stem;
},
{
place = (1043, 47);
place = (1043, 47);
type = Stem;
},
{
horizontal = 1;
place = (0, 21);
target = up;
type = BottomGhost;
},
{
horizontal = 1;
place = (685, -20);
target = down;
type = TopGhost;
}
);
layerId = m01;
shapes = (
{
closed = 1;
nodes = (
(265,313,o),
(330,382,o),
(330,506,cs),
(330,634,o),
(262,699,o),
(182,699,cs),
(102,699,o),
(34,632,o),
(34,506,cs),
(34,382,o),
(99,313,o),
(182,313,cs)
);
},
{
closed = 1;
nodes = (
(671,-13,o),
(736,56,o),
(736,180,cs),
(736,308,o),
(668,373,o),
(588,373,cs),
(508,373,o),
(440,306,o),
(440,180,cs),
(440,56,o),
(505,-13,o),
(588,-13,cs)
);
},
{
closed = 1;
nodes = (
(1025,-13,o),
(1090,56,o),
(1090,180,cs),
(1090,308,o),
(1022,373,o),
(942,373,cs),
(862,373,o),
(794,306,o),
(794,180,cs),
(794,56,o),
(859,-13,o),
(942,-13,cs)
);
},
{
closed = 1;
nodes = (
(534,26,o),
(487,74,o),
(487,180,cs),
(487,288,o),
(534,334,o),
(588,334,cs),
(641,334,o),
(689,286,o),
(689,180,cs),
(689,72,o),
(643,26,o),
(588,26,cs)
);
},
{
closed = 1;
nodes = (
(888,26,o),
(841,74,o),
(841,180,cs),
(841,288,o),
(888,334,o),
(942,334,cs),
(995,334,o),
(1043,286,o),
(1043,180,cs),
(1043,72,o),
(997,26,o),
(942,26,cs)
);
},
{
closed = 1;
nodes = (
(128,352,o),
(81,400,o),
(81,506,cs),
(81,614,o),
(128,660,o),
(182,660,cs),
(235,660,o),
(283,612,o),
(283,506,cs),
(283,398,o),
(237,352,o),
(182,352,cs)
);
},
{
closed = 1;
nodes = (
(164,0,l),
(210,0,l),
(606,685,l),
(560,685,l)
);
}
);
width = 1124;
}
);
note = perthousand;
unicode = 8240;
},
{
glyphname = Acircumflex;
kernLeft = A;
kernRight = A;
layers = (
{
hints = (
{
horizontal = 1;
place = (0, 21);
target = up;
type = BottomGhost;
},
{
horizontal = 1;
place = (229, 44);
place = (229, 44);
type = Stem;
},
{
horizontal = 1;
place = (715, -20);
target = down;
type = TopGhost;
},
{
horizontal = 1;
place = (752, 101);
place = (752, 101);
type = Stem;
},
{
place = (6, 612);
place = (6, 612);
type = Stem;
},
{
horizontal = 1;
place = (663, 52);
place = (663, 52);
type = Stem;
}
);
layerId = m01;
shapes = (
{
closed = 1;
nodes = (
(6,0,l),
(59,0,l),
(147,229,l),
(476,229,l),
(564,0,l),
(618,0,l),
(341,715,l),
(282,715,l)
);
},
{
closed = 1;
nodes = (
(273,557,ls),
(290,602,o),
(310,663,o),
(310,663,c),
(312,663,l),
(312,663,o),
(335,598,o),
(351,557,cs),
(459,273,l),
(164,273,l)
);
},
{
closed = 1;
nodes = (
(187,752,l),
(243,752,l),
(310,823,l),
(312,823,l),
(378,752,l),
(437,752,l),
(343,853,l),
(281,853,l)
);
}
);
width = 624;
}
);
note = Acircumflex;
unicode = 194;
},
{
glyphname = Ecircumflex;
kernRight = E;
layers = (
{
hints = (
{
horizontal = 1;
place = (0, 48);
place = (0, 48);
type = Stem;
},
{
horizontal = 1;
place = (346, 45);
place = (346, 45);
type = Stem;
},
{
horizontal = 1;
place = (669, 46);
place = (669, 46);
type = Stem;
},
{
place = (62, 52);
place = (62, 52);
type = Stem;
},
{
horizontal = 1;
place = (669, 184);
place = (669, 184);
type = Stem;
}
);
layerId = m01;
shapes = (
{
closed = 1;
nodes = (
(62,0,l),
(546,0,l),
(546,48,l),
(114,48,l),
(114,346,l),
(502,346,l),
(502,391,l),
(114,391,l),
(114,669,l),
(536,669,l),
(536,715,l),
(62,715,l)
);
},
{
closed = 1;
nodes = (
(186,752,l),
(242,752,l),
(309,823,l),
(311,823,l),
(377,752,l),
(436,752,l),
(342,853,l),
(280,853,l)
);
}
);
width = 582;
}
);
note = Ecircumflex;
unicode = 202;
},
{
glyphname = Aacute;
kernLeft = A;
kernRight = A;
layers = (
{
hints = (
{
horizontal = 1;
place = (0, 21);
target = up;
type = BottomGhost;
},
{
horizontal = 1;
place = (229, 44);
place = (229, 44);
type = Stem;
},
{
horizontal = 1;
place = (715, -20);
target = down;
type = TopGhost;
},
{
horizontal = 1;
place = (753, 110);
place = (753, 110);
type = Stem;
},
{
place = (6, 612);
place = (6, 612);
type = Stem;
},
{
horizontal = 1;
place = (663, 52);
place = (663, 52);
type = Stem;
}
);
layerId = m01;
shapes = (
{
closed = 1;
nodes = (
(6,0,l),
(59,0,l),
(147,229,l),
(476,229,l),
(564,0,l),
(618,0,l),
(341,715,l),
(282,715,l)
);
},
{
closed = 1;
nodes = (
(273,557,ls),
(290,602,o),
(310,663,o),
(310,663,c),
(312,663,l),
(312,663,o),
(335,598,o),
(351,557,cs),
(459,273,l),
(164,273,l)
);
},
{
closed = 1;
nodes = (
(280,753,l),
(324,753,l),
(425,863,l),
(356,863,l)
);
}
);
width = 624;
}
);
note = Aacute;
unicode = 193;
},
{
glyphname = Edieresis;
kernRight = E;
layers = (
{
hints = (
{
horizontal = 1;
place = (0, 48);
place = (0, 48);
type = Stem;
},
{
horizontal = 1;
place = (346, 45);
place = (346, 45);
type = Stem;
},
{
horizontal = 1;
place = (669, 46);
place = (669, 46);
type = Stem;
},
{
place = (62, 52);
place = (62, 52);
type = Stem;
},
{
place = (211, 49);
place = (211, 49);
type = Stem;
},
{
place = (362, 49);
place = (362, 49);
type = Stem;
},
{
horizontal = 1;
place = (669, 166);
place = (669, 166);
type = Stem;
}
);
layerId = m01;
shapes = (
{
closed = 1;
nodes = (
(62,0,l),
(546,0,l),
(546,48,l),
(114,48,l),
(114,346,l),
(502,346,l),
(502,391,l),
(114,391,l),
(114,669,l),
(536,669,l),
(536,715,l),
(62,715,l)
);
},
{
closed = 1;
nodes = (
(211,755,l),
(260,755,l),
(260,835,l),
(211,835,l)
);
},
{
closed = 1;
nodes = (
(362,755,l),
(411,755,l),
(411,835,l),
(362,835,l)
);
}
);
width = 582;
}
);
note = Edieresis;
unicode = 203;
},
{
glyphname = Egrave;
kernRight = E;
layers = (
{
hints = (
{
horizontal = 1;
place = (0, 48);
place = (0, 48);
type = Stem;
},
{
horizontal = 1;
place = (346, 45);
place = (346, 45);
type = Stem;
},
{
horizontal = 1;
place = (669, 46);
place = (669, 46);
type = Stem;
},
{
place = (62, 52);
place = (62, 52);
type = Stem;
},
{
horizontal = 1;
place = (669, 194);
place = (669, 194);
type = Stem;
}
);
layerId = m01;
shapes = (
{
closed = 1;
nodes = (
(62,0,l),
(546,0,l),
(546,48,l),
(114,48,l),
(114,346,l),
(502,346,l),
(502,391,l),
(114,391,l),
(114,669,l),
(536,669,l),
(536,715,l),
(62,715,l)
);
},
{
closed = 1;
nodes = (
(342,753,l),
(266,863,l),
(197,863,l),
(298,753,l)
);
}
);
width = 582;
}
);
note = Egrave;
unicode = 200;
},
{
glyphname = Iacute;
layers = (
{
hints = (
{
horizontal = 1;
place = (0, 21);
target = up;
type = BottomGhost;
},
{
horizontal = 1;
place = (715, -20);
target = down;
type = TopGhost;
},
{
horizontal = 1;
place = (753, 110);
place = (753, 110);
type = Stem;
},
{
place = (66, 52);
place = (66, 52);
type = Stem;
}
);
layerId = m01;
shapes = (
{
closed = 1;
nodes = (
(66,0,l),
(118,0,l),
(118,715,l),
(66,715,l)
);
},
{
closed = 1;
nodes = (
(68,753,l),
(112,753,l),
(213,863,l),
(144,863,l)
);
}
);
width = 184;
}
);
note = Iacute;
unicode = 205;
},
{
glyphname = Icircumflex;
layers = (
{
hints = (
{
horizontal = 1;
place = (0, 21);
target = up;
type = BottomGhost;
},
{
horizontal = 1;
place = (715, -20);
target = down;
type = TopGhost;
},
{
horizontal = 1;
place = (752, 101);
place = (752, 101);
type = Stem;
},
{
place = (66, 52);
place = (66, 52);
type = Stem;
}
);
layerId = m01;
shapes = (
{
closed = 1;
nodes = (
(66,0,l),
(118,0,l),
(118,715,l),
(66,715,l)
);
},
{
closed = 1;
nodes = (
(-33,752,l),
(23,752,l),
(90,823,l),
(92,823,l),
(158,752,l),
(217,752,l),
(123,853,l),
(61,853,l)
);
}
);
width = 184;
}
);
note = Icircumflex;
unicode = 206;
},
{
glyphname = Idieresis;
layers = (
{
hints = (
{
horizontal = 1;
place = (0, 21);
target = up;
type = BottomGhost;
},
{
horizontal = 1;
place = (715, -20);
target = down;
type = TopGhost;
},
{
horizontal = 1;
place = (755, 80);
place = (755, 80);
type = Stem;
},
{
place = (66, 52);
place = (66, 52);
type = Stem;
},
{
place = (-8, 49);
place = (-8, 49);
type = Stem;
},
{
place = (143, 49);
place = (143, 49);
type = Stem;
}
);
layerId = m01;
shapes = (
{
closed = 1;
nodes = (
(66,0,l),
(118,0,l),
(118,715,l),
(66,715,l)
);
},
{
closed = 1;
nodes = (
(-8,755,l),
(41,755,l),
(41,835,l),
(-8,835,l)
);
},
{
closed = 1;
nodes = (
(143,755,l),
(192,755,l),
(192,835,l),
(143,835,l)
);
}
);
width = 184;
}
);
note = Idieresis;
unicode = 207;
},
{
glyphname = Igrave;
layers = (
{
hints = (
{
horizontal = 1;
place = (0, 21);
target = up;
type = BottomGhost;
},
{
horizontal = 1;
place = (715, -20);
target = down;
type = TopGhost;
},
{
horizontal = 1;
place = (753, 110);
place = (753, 110);
type = Stem;
},
{
place = (66, 52);
place = (66, 52);
type = Stem;
}
);
layerId = m01;
shapes = (
{
closed = 1;
nodes = (
(66,0,l),
(118,0,l),
(118,715,l),
(66,715,l)
);
},
{
closed = 1;
nodes = (
(115,753,l),
(39,863,l),
(-30,863,l),
(71,753,l)
);
}
);
width = 184;
}
);
note = Igrave;
unicode = 204;
},
{
glyphname = Oacute;
kernLeft = C;
kernRight = O;
layers = (
{
hints = (
{
horizontal = 1;
place = (-13, 47);
place = (-13, 47);
type = Stem;
},
{
horizontal = 1;
place = (682, 47);
place = (682, 47);
type = Stem;
},
{
place = (34, 54);
place = (34, 54);
type = Stem;
},
{
place = (622, 54);
place = (622, 54);
type = Stem;
},
{
horizontal = 1;
place = (753, 110);
place = (753, 110);
type = Stem;
}
);
layerId = m01;
shapes = (
{
closed = 1;
nodes = (
(548,-13,o),
(676,146,o),
(676,358,cs),
(676,570,o),
(548,729,o),
(354,729,cs),
(160,729,o),
(34,570,o),
(34,358,cs),
(34,146,o),
(160,-13,o),
(354,-13,cs)
);
},
{
closed = 1;
nodes = (
(180,34,o),
(88,181,o),
(88,358,cs),
(88,535,o),
(180,682,o),
(354,682,cs),
(528,682,o),
(622,535,o),
(622,358,cs),
(622,181,o),
(528,34,o),
(354,34,cs)
);
},
{
closed = 1;
nodes = (
(320,753,l),
(364,753,l),
(465,863,l),
(396,863,l)
);
}
);
width = 710;
}
);
note = Oacute;
unicode = 211;
},
{
glyphname = Ocircumflex;
kernLeft = C;
kernRight = O;
layers = (
{
hints = (
{
horizontal = 1;
place = (-13, 47);
place = (-13, 47);
type = Stem;
},
{
horizontal = 1;
place = (682, 47);
place = (682, 47);
type = Stem;
},
{
place = (34, 54);
place = (34, 54);
type = Stem;
},
{
place = (622, 54);
place = (622, 54);
type = Stem;
},
{
horizontal = 1;
place = (752, 101);
place = (752, 101);
type = Stem;
}
);
layerId = m01;
shapes = (
{
closed = 1;
nodes = (
(548,-13,o),
(676,146,o),
(676,358,cs),
(676,570,o),
(548,729,o),
(354,729,cs),
(160,729,o),
(34,570,o),
(34,358,cs),
(34,146,o),
(160,-13,o),
(354,-13,cs)
);
},
{
closed = 1;
nodes = (
(180,34,o),
(88,181,o),
(88,358,cs),
(88,535,o),
(180,682,o),
(354,682,cs),
(528,682,o),
(622,535,o),
(622,358,cs),
(622,181,o),
(528,34,o),
(354,34,cs)
);
},
{
closed = 1;
nodes = (
(230,752,l),
(286,752,l),
(353,823,l),
(355,823,l),
(421,752,l),
(480,752,l),
(386,853,l),
(324,853,l)
);
}
);
width = 710;
}
);
note = Ocircumflex;
unicode = 212;
},
{
glyphname = Ograve;
kernLeft = C;
kernRight = O;
layers = (
{
hints = (
{
horizontal = 1;
place = (-13, 47);
place = (-13, 47);
type = Stem;
},
{
horizontal = 1;
place = (682, 47);
place = (682, 47);
type = Stem;
},
{
place = (34, 54);
place = (34, 54);
type = Stem;
},
{
place = (622, 54);
place = (622, 54);
type = Stem;
},
{
horizontal = 1;
place = (753, 110);
place = (753, 110);
type = Stem;
}
);
layerId = m01;
shapes = (
{
closed = 1;
nodes = (
(548,-13,o),
(676,146,o),
(676,358,cs),
(676,570,o),
(548,729,o),
(354,729,cs),
(160,729,o),
(34,570,o),
(34,358,cs),
(34,146,o),
(160,-13,o),
(354,-13,cs)
);
},
{
closed = 1;
nodes = (
(180,34,o),
(88,181,o),
(88,358,cs),
(88,535,o),
(180,682,o),
(354,682,cs),
(528,682,o),
(622,535,o),
(622,358,cs),
(622,181,o),
(528,34,o),
(354,34,cs)
);
},
{
closed = 1;
nodes = (
(389,753,l),
(313,863,l),
(244,863,l),
(345,753,l)
);
}
);
width = 710;
}
);
note = Ograve;
unicode = 210;
},
{
glyphname = Uacute;
kernLeft = U;
kernRight = U;
layers = (
{
hints = (
{
horizontal = 1;
place = (-11, 46);
place = (-11, 46);
type = Stem;
},
{
horizontal = 1;
place = (715, -20);
target = down;
type = TopGhost;
},
{
horizontal = 1;
place = (753, 110);
place = (753, 110);
type = Stem;
},
{
place = (56, 52);
place = (56, 52);
type = Stem;
},
{
place = (514, 52);
place = (514, 52);
type = Stem;
}
);
layerId = m01;
shapes = (
{
closed = 1;
nodes = (
(463,-11,o),
(566,63,o),
(566,225,cs),
(566,715,l),
(514,715,l),
(514,229,ls),
(514,89,o),
(434,35,o),
(311,35,cs),
(181,35,o),
(108,89,o),
(108,229,cs),
(108,715,l),
(56,715,l),
(56,225,ls),
(56,67,o),
(152,-11,o),
(308,-11,cs)
);
},
{
closed = 1;
nodes = (
(279,753,l),
(323,753,l),
(424,863,l),
(355,863,l)
);
}
);
width = 622;
}
);
note = Uacute;
unicode = 218;
},
{
glyphname = Ucircumflex;
kernLeft = U;
kernRight = U;
layers = (
{
hints = (
{
horizontal = 1;
place = (-11, 46);
place = (-11, 46);
type = Stem;
},
{
horizontal = 1;
place = (715, -20);
target = down;
type = TopGhost;
},
{
horizontal = 1;
place = (752, 101);
place = (752, 101);
type = Stem;
},
{
place = (56, 52);
place = (56, 52);
type = Stem;
},
{
place = (514, 52);
place = (514, 52);
type = Stem;
}
);
layerId = m01;
shapes = (
{
closed = 1;
nodes = (
(463,-11,o),
(566,63,o),
(566,225,cs),
(566,715,l),
(514,715,l),
(514,229,ls),
(514,89,o),
(434,35,o),
(311,35,cs),
(181,35,o),
(108,89,o),
(108,229,cs),
(108,715,l),
(56,715,l),
(56,225,ls),
(56,67,o),
(152,-11,o),
(308,-11,cs)
);
},
{
closed = 1;
nodes = (
(186,752,l),
(242,752,l),
(309,823,l),
(311,823,l),
(377,752,l),
(436,752,l),
(342,853,l),
(280,853,l)
);
}
);
width = 622;
}
);
note = Ucircumflex;
unicode = 219;
},
{
glyphname = Ugrave;
kernLeft = U;
kernRight = U;
layers = (
{
hints = (
{
horizontal = 1;
place = (-11, 46);
place = (-11, 46);
type = Stem;
},
{
horizontal = 1;
place = (715, -20);
target = down;
type = TopGhost;
},
{
horizontal = 1;
place = (753, 110);
place = (753, 110);
type = Stem;
},
{
place = (56, 52);
place = (56, 52);
type = Stem;
},
{
place = (514, 52);
place = (514, 52);
type = Stem;
}
);
layerId = m01;
shapes = (
{
closed = 1;
nodes = (
(463,-11,o),
(566,63,o),
(566,225,cs),
(566,715,l),
(514,715,l),
(514,229,ls),
(514,89,o),
(434,35,o),
(311,35,cs),
(181,35,o),
(108,89,o),
(108,229,cs),
(108,715,l),
(56,715,l),
(56,225,ls),
(56,67,o),
(152,-11,o),
(308,-11,cs)
);
},
{
closed = 1;
nodes = (
(342,753,l),
(266,863,l),
(197,863,l),
(298,753,l)
);
}
);
width = 622;
}
);
note = Ugrave;
unicode = 217;
},
{
glyphname = dotlessi;
kernLeft = m;
kernRight = u;
layers = (
{
hints = (
{
horizontal = 1;
place = (0, 21);
target = up;
type = BottomGhost;
},
{
horizontal = 1;
place = (517, -20);
target = down;
type = TopGhost;
},
{
place = (53, 49);
place = (53, 49);
type = Stem;
}
);
layerId = m01;
shapes = (
{
closed = 1;
nodes = (
(53,0,l),
(102,0,l),
(102,517,l),
(53,517,l)
);
}
);
width = 155;
}
);
note = dotlessi;
unicode = 305;
},
{
glyphname = circumflex;
layers = (
{
hints = (
{
horizontal = 1;
place = (592, 106);
place = (592, 106);
type = Stem;
},
{
place = (139, 222);
place = (139, 222);
type = Stem;
},
{
horizontal = 1;
place = (668, 30);
place = (668, 30);
type = Stem;
}
);
layerId = m01;
shapes = (
{
closed = 1;
nodes = (
(139,592,l),
(193,592,l),
(248,668,l),
(250,668,l),
(304,592,l),
(361,592,l),
(281,698,l),
(219,698,l)
);
}
);
width = 500;
}
);
note = circumflex;
unicode = 710;
},
{
glyphname = tilde;
layers = (
{
hints = (
{
horizontal = 1;
place = (600, 43);
place = (600, 43);
type = Stem;
},
{
place = (118, 42);
place = (118, 42);
type = Stem;
},
{
place = (339, 42);
place = (339, 42);
type = Stem;
},
{
horizontal = 1;
place = (643, 43);
place = (643, 43);
type = Stem;
}
);
layerId = m01;
shapes = (
{
closed = 1;
nodes = (
(347,600,o),
(377,629,o),
(381,684,c),
(339,684,l),
(337,658,o),
(323,643,o),
(306,643,cs),
(277,643,o),
(233,686,o),
(191,686,cs),
(152,686,o),
(123,659,o),
(118,602,c),
(160,602,l),
(162,628,o),
(177,643,o),
(191,643,cs),
(220,643,o),
(267,600,o),
(308,600,cs)
);
}
);
width = 500;
}
);
note = tilde;
unicode = 732;
},
{
glyphname = macron;
layers = (
{
hints = (
{
horizontal = 1;
place = (630, 49);
place = (630, 49);
type = Stem;
},
{
place = (129, 242);
place = (129, 242);
type = Stem;
}
);
layerId = m01;
shapes = (
{
closed = 1;
nodes = (
(129,630,l),
(371,630,l),
(371,679,l),
(129,679,l)
);
}
);
width = 500;
}
);
note = macron;
unicode = 175;
},
{
glyphname = breve;
layers = (
{
hints = (
{
horizontal = 1;
place = (589, 106);
place = (589, 106);
type = Stem;
},
{
place = (151, 236);
place = (151, 236);
type = Stem;
},
{
horizontal = 1;
place = (589, 47);
place = (589, 47);
type = Stem;
}
);
layerId = m01;
shapes = (
{
closed = 1;
nodes = (
(337,589,o),
(383,635,o),
(387,695,c),
(341,695,l),
(335,661,o),
(311,636,o),
(269,636,cs),
(227,636,o),
(203,661,o),
(197,695,c),
(151,695,l),
(155,635,o),
(201,589,o),
(269,589,cs)
);
}
);
width = 500;
}
);
note = breve;
unicode = 728;
},
{
glyphname = dotaccent;
layers = (
{
hints = (
{
horizontal = 1;
place = (635, 80);
place = (635, 80);
type = Stem;
},
{
place = (235, 49);
place = (235, 49);
type = Stem;
}
);
layerId = m01;
shapes = (
{
closed = 1;
nodes = (
(235,635,l),
(284,635,l),
(284,715,l),
(235,715,l)
);
}
);
width = 520;
}
);
note = dotaccent;
unicode = 729;
},
{
glyphname = ring;
layers = (
{
hints = (
{
horizontal = 1;
place = (576, 33);
place = (576, 33);
type = Stem;
},
{
horizontal = 1;
place = (713, 33);
place = (713, 33);
type = Stem;
},
{
place = (167, 38);
place = (167, 38);
type = Stem;
},
{
place = (303, 38);
place = (303, 38);
type = Stem;
}
);
layerId = m01;
shapes = (
{
closed = 1;
nodes = (
(302,576,o),
(341,614,o),
(341,661,cs),
(341,708,o),
(302,746,o),
(254,746,cs),
(206,746,o),
(167,708,o),
(167,661,cs),
(167,614,o),
(206,576,o),
(254,576,cs)
);
},
{
closed = 1;
nodes = (
(225,609,o),
(205,632,o),
(205,661,cs),
(205,690,o),
(225,713,o),
(254,713,cs),
(283,713,o),
(303,690,o),
(303,661,cs),
(303,632,o),
(283,609,o),
(254,609,cs)
);
}
);
width = 509;
}
);
note = ring;
unicode = 730;
},
{
glyphname = cedilla;
layers = (
{
hints = (
{
horizontal = 1;
place = (-184, 34);
place = (-184, 34);
type = Stem;
},
{
horizontal = 1;
place = (-84, 32);
place = (-84, 32);
type = Stem;
},
{
place = (267, 48);
place = (267, 48);
type = Stem;
},
{
horizontal = 1;
place = (-184, 21);
target = up;
type = BottomGhost;
}
);
layerId = m01;
shapes = (
{
closed = 1;
nodes = (
(275,-184,o),
(315,-159,o),
(315,-113,cs),
(315,-72,o),
(281,-50,o),
(235,-52,c),
(235,-50,l),
(290,0,l),
(243,0,l),
(172,-69,l),
(185,-91,l),
(195,-88,o),
(207,-84,o),
(224,-84,cs),
(250,-84,o),
(267,-91,o),
(267,-113,cs),
(267,-135,o),
(247,-150,o),
(210,-150,cs),
(185,-150,o),
(165,-145,o),
(143,-137,c),
(130,-162,l),
(151,-174,o),
(180,-184,o),
(219,-184,cs)
);
}
);
width = 500;
}
);
note = cedilla;
unicode = 184;
},
